<svg xmlns="http://www.w3.org/2000/svg" xmlns:xlink="http://www.w3.org/1999/xlink" width="300" height="100" viewBox="0 0 300 100">
  <defs>
    <clipPath id="clip-path">
      <rect id="Rectangle_32241" data-name="Rectangle 32241" width="300" height="100" transform="translate(105 490)" fill="#fff"/>
    </clipPath>
  </defs>
  <g id="Mask_Group_80" data-name="Mask Group 80" transform="translate(-105 -490)" clip-path="url(#clip-path)">
    <g id="Layer_3" transform="translate(115.31 492)">
      <g id="Group_11648" data-name="Group 11648" transform="translate(0)">
        <rect id="Rectangle_32209" data-name="Rectangle 32209" width="123.594" height="1.498" transform="translate(136.398 72.217)" fill="#fdb913"/>
        <path id="Path_9357" data-name="Path 9357" d="M196.5,24.577c0-2.509-.176-3.173-1.871-3.307l-1.177-.083c-.192-.15-.135-.835.041-.85,2.027-.181,4.588-.27,8.092-.27a15.8,15.8,0,0,1,6.324.949,4.438,4.438,0,0,1,2.861,4.235c0,2.442-1.581,3.7-3.841,4.645,0,.337.3.441.715.508a5.823,5.823,0,0,1,5.044,5.666c0,3.929-3.235,6.573-10,6.573-1.094,0-2.934-.1-4.515-.1s-2.934.067-4.329.1a.6.6,0,0,1-.073-.845l.679-.1c2-.306,2.068-.679,2.068-4.24V24.571Zm3.084,4.51c0,.949.041,1.016,1.96.949,3.836-.135,5.9-1.156,5.9-4.339s-2.747-4.577-5.6-4.577a5.122,5.122,0,0,0-1.731.2c-.373.1-.529.275-.529.881v6.884Zm0,7.864c0,1.223.078,2.95.788,3.7a3.9,3.9,0,0,0,2.97.949c3.349,0,5.91-1.358,5.91-4.743,0-2.68-1.509-5.8-7.491-5.8-2.032,0-2.182.2-2.182.881v5.018Z" transform="translate(-56.935 -5.909)" fill="#043673"/>
        <path id="Path_9358" data-name="Path 9358" d="M256.637,29.31c0-3.069-.062-3.561-1.959-3.706l-.8-.057c-.192-.114-.13-.638.062-.726,1.607.062,2.7.088,4.049.088s2.379-.031,3.986-.088c.192.088.259.612.067.726l-.8.057c-1.9.145-1.96.638-1.96,3.706V39.621c0,3.069.067,3.473,1.96,3.675l.8.088c.192.114.13.638-.067.726-1.607-.062-2.7-.088-3.986-.088-1.353,0-2.442.026-4.049.088a.521.521,0,0,1-.062-.726l.8-.088c1.9-.2,1.959-.607,1.959-3.675Z" transform="translate(-74.729 -7.31)" fill="#043673"/>
        <path id="Path_9359" data-name="Path 9359" d="M278.58,39.327c0,3.038.062,3.473,1.809,3.618l.964.088c.176.114.119.638-.062.726-1.716-.062-2.737-.088-3.945-.088s-2.26.026-4.183.088a.5.5,0,0,1,0-.726l1.083-.088c1.716-.145,1.866-.581,1.866-3.618V26.382c0-.9,0-.923-.9-.923h-1.654c-1.3,0-2.95.057-3.707.721a5.235,5.235,0,0,0-1.353,2,.59.59,0,0,1-.783-.2,29.733,29.733,0,0,0,1.146-4.313.774.774,0,0,1,.57,0c.181.923,1.177.9,2.561.9h12.2c1.628,0,1.9-.057,2.348-.814.15-.057.482-.031.544.088a16.733,16.733,0,0,0-.451,4.4c-.119.233-.632.233-.783.057-.088-.726-.3-1.794-.752-2.115a6.215,6.215,0,0,0-3.494-.721h-2.136c-.9,0-.876.031-.876.985V39.332Z" transform="translate(-78.84 -6.953)" fill="#043673"/>
        <path id="Path_9360" data-name="Path 9360" d="M300.21,29.31c0-3.069-.062-3.561-1.96-3.706l-.8-.057c-.192-.114-.13-.638.067-.726,1.607.062,2.7.088,4.049.088s2.379-.031,3.986-.088c.192.088.254.612.062.726l-.8.057c-1.9.145-1.965.638-1.965,3.706V39.621c0,3.069.062,3.473,1.965,3.675l.8.088c.192.114.13.638-.062.726-1.612-.062-2.7-.088-3.986-.088-1.348,0-2.442.026-4.049.088a.526.526,0,0,1-.067-.726l.8-.088c1.9-.2,1.96-.607,1.96-3.675Z" transform="translate(-87.562 -7.31)" fill="#043673"/>
        <path id="Path_9361" data-name="Path 9361" d="M319.214,44.218a12.2,12.2,0,0,1-5.329-1.073,11.62,11.62,0,0,1-.923-4.054c.171-.2.684-.259.819-.088a5.918,5.918,0,0,0,5.879,4.313c2.867,0,4.272-1.591,4.272-3.333,0-1.27-.306-2.69-2.8-4.054l-3.245-1.8c-1.711-.954-3.691-2.6-3.691-4.982,0-2.753,2.53-4.982,6.972-4.982a15.121,15.121,0,0,1,3.178.378,5.158,5.158,0,0,0,1.192.176,10.936,10.936,0,0,1,.617,3.53.771.771,0,0,1-.855.088c-.446-1.389-1.369-3.271-4.645-3.271s-4.069,1.882-4.069,3.214c0,1.68,1.643,2.893,2.9,3.561l2.732,1.446c2.151,1.13,4.271,2.81,4.271,5.557,0,3.188-2.836,5.36-7.278,5.36Z" transform="translate(-92.165 -7.117)" fill="#043673"/>
        <path id="Path_9362" data-name="Path 9362" d="M343.34,34.672c-1.5,0-1.56.057-1.56.928v4.085c0,3.038.155,3.447,1.9,3.618l.9.088c.187.114.124.638-.062.726-1.685-.062-2.742-.088-3.961-.088-1.337,0-2.4.057-3.613.088a.536.536,0,0,1-.062-.726l.529-.088c1.747-.29,1.809-.581,1.809-3.618V29.26c0-3.043-.218-3.535-1.84-3.649l-.809-.057c-.187-.114-.124-.638.062-.726,1.529.031,2.587.088,3.924.088,1.218,0,2.276-.031,3.618-.088.187.088.249.612.062.726l-.591.057c-1.809.171-1.871.607-1.871,3.649v3.328c0,.9.062.923,1.56.923h8.911c1.493,0,1.56-.031,1.56-.923V29.26c0-3.043-.062-3.478-1.9-3.649l-.591-.057c-.192-.114-.124-.638.062-.726,1.431.062,2.493.088,3.769.088s2.276-.031,3.681-.088c.187.088.249.612.062.726l-.658.057c-1.8.171-1.871.607-1.871,3.649V39.685c0,3.038.062,3.416,1.871,3.618l.752.088c.187.114.124.638-.062.726-1.493-.062-2.556-.088-3.769-.088-1.275,0-2.395.026-3.769.088a.536.536,0,0,1-.062-.726l.591-.088c1.9-.29,1.9-.581,1.9-3.618V35.6c0-.871-.062-.928-1.56-.928h-8.911Z" transform="translate(-99.086 -7.312)" fill="#043673"/>
        <path id="Path_9363" data-name="Path 9363" d="M170.7,59.945a15.144,15.144,0,0,1,9.476-2.97,27.085,27.085,0,0,1,6.21.84,2.662,2.662,0,0,0,.985.14c.031.809.213,3.007.487,5.142a.741.741,0,0,1-.943.073c-.529-2.379-2.1-5.106-7.2-5.106-5.365,0-9.927,3.39-9.927,10.627s4.665,11.4,10.42,11.4a7.465,7.465,0,0,0,7.33-5,.738.738,0,0,1,.912.14,13.013,13.013,0,0,1-1.685,4.79,6.55,6.55,0,0,0-1.229.353,20.742,20.742,0,0,1-5.547.8,15.414,15.414,0,0,1-8.74-2.343,11.266,11.266,0,0,1-4.982-9.611,11.618,11.618,0,0,1,4.422-9.269Z" transform="translate(-48.966 -16.779)" fill="#043673"/>
        <path id="Path_9364" data-name="Path 9364" d="M199.741,72.943c0-5.79,4.562-10.223,10.829-10.223,7.024,0,10.549,4.837,10.549,9.932,0,5.847-4.681,10.109-10.549,10.109-6.749,0-10.829-4.6-10.829-9.818Zm18.335.612c0-4.78-2.219-9.932-8.025-9.932-3.162,0-7.268,2.058-7.268,8.4,0,4.282,2.188,9.844,8.18,9.844,3.649,0,7.117-2.607,7.117-8.31Z" transform="translate(-58.822 -18.471)" fill="#043673"/>
        <path id="Path_9365" data-name="Path 9365" d="M271.323,70.615c0-1.794-.062-5.127-.586-5.993a1.927,1.927,0,0,0-1.534-.607l-.767-.057a.5.5,0,0,1,.062-.695c1.166.057,2.3.088,3.5.088,1.291,0,2.115-.031,3.224-.083a.484.484,0,0,1,.062.695l-.736.057a1.82,1.82,0,0,0-1.534.695c-.43.954-.43,4.287-.43,5.9V73.9c0,2.519-.43,5.184-2.146,6.92a8.352,8.352,0,0,1-5.863,2.115,9.1,9.1,0,0,1-5.739-1.591c-1.628-1.275-2.395-3.39-2.395-6.838V67.67c0-3.012-.062-3.5-1.84-3.649l-.767-.057c-.181-.114-.124-.607.062-.695,1.534.057,2.576.088,3.8.088s2.271-.031,3.779-.083c.181.083.244.575.062.695l-.736.057c-1.778.145-1.84.638-1.84,3.649v6.252c0,4.66,1.534,7.734,6.231,7.734,4.453,0,6.138-3.3,6.138-7.7V70.625Z" transform="translate(-74.72 -18.631)" fill="#043673"/>
        <path id="Path_9366" data-name="Path 9366" d="M328.05,66.929c0-2.167-.135-2.722-1.659-2.841l-1.089-.1c-.124-.114-.192-.7.031-.715,1.835-.14,4.142-.233,7.3-.233a14.722,14.722,0,0,1,5.7.819,3.837,3.837,0,0,1,2.576,3.655c0,2.1-1.426,3.188-3.458,4.007,0,.3.27.378.648.441,1.83.29,4.546,1.752,4.546,4.883,0,3.4-2.919,5.671-9.025,5.671-.985,0-2.649-.088-4.069-.088s-2.644.057-3.9.088a.509.509,0,0,1-.067-.731l.612-.088c1.8-.264,1.866-.586,1.866-3.655V66.924Zm2.784,3.888c0,.819.036.881,1.763.819,3.463-.114,5.329-1,5.329-3.743s-2.478-3.95-5.054-3.95a4.728,4.728,0,0,0-1.56.176c-.342.083-.477.233-.477.757v5.936Zm0,6.786c0,1.058.067,2.545.715,3.188a3.6,3.6,0,0,0,2.68.819c3.017,0,5.324-1.172,5.324-4.1,0-2.312-1.358-5-6.749-5-1.835,0-1.97.176-1.97.762V77.6Z" transform="translate(-95.765 -18.564)" fill="#043673"/>
        <path id="Path_9367" data-name="Path 9367" d="M242.825,43.3l-.8-.067c-.161-.021-.306-.036-.446-.062-1.177-.207-1.648-1.254-2.2-2.229L236.594,36.1c-.482-.809-1-1.892-2.094-2.048,2.846-.342,5.422-1.985,5.422-4.811,0-3.261-3.224-4.717-6.485-4.717-1.96,0-3.743.052-5.728.052-1.094,0-2.405-.052-3.5-.052-.606,0-.617.124-.617.467,0,.5.213.363.861.4,2.317.13,2.229.565,2.229,2.545v12.69c0,1.82.156,2.359-1.752,2.53,0,0-.29.031-.456.047l-.809.083a.526.526,0,0,0,.062.726c.43-.016,1.192-.047,1.192-.047,1.058-.031,2.115-.109,3.167-.109s2.079.083,3.121.109h0c.373.016.762.026,1.192.041a.52.52,0,0,0,.067-.721l-.814-.078c-.166-.021-.451-.047-.451-.047-1.928-.13-1.809-.674-1.809-2.535v-4.78c0-.28-.036-1.021.171-1.239.171-.187.482-.156.752-.156,2.607,0,2.576.249,3.81,2.421l3.364,6.05c.275.467.482,1.052,1.166,1.052h2.924c.368.01.757.026,1.182.041a.521.521,0,0,0,.062-.726ZM231.11,33.785c-.586,0-1.752.218-1.752-.555V27.673c0-2.172.067-2.483,2.68-2.483,3.053,0,4.94,1.55,4.94,4.406a3.648,3.648,0,0,1-1.576,3.167,7.064,7.064,0,0,1-4.287,1.021Z" transform="translate(-65.832 -7.223)" fill="#043673"/>
        <path id="Path_9368" data-name="Path 9368" d="M233.912,67.784c0-3.043-.062-3.5-2.068-3.649l-.8-.057c-.192-.119-.13-.638.062-.726,1.783.057,2.867.088,4.142.088s2.328-.031,3.919-.088c.192.088.254.607.062.721l-.762.057c-1.877.145-1.944.607-1.944,3.649V77.857c0,1.82.093,2.576.669,3.126.347.316.954.664,3.473.664,2.711,0,3.38-.114,3.888-.378a6.2,6.2,0,0,0,2.1-2.867c.192-.145.8-.026.8.176a21.737,21.737,0,0,1-1.337,4.054c-1.623-.057-4.65-.083-7.931-.083h-2.929c-1.337,0-2.353.031-4.142.083a.519.519,0,0,1-.062-.721l.954-.088c1.845-.176,1.908-.581,1.908-3.624V67.774Z" transform="translate(-68.007 -18.657)" fill="#043673"/>
        <path id="Path_9369" data-name="Path 9369" d="M354.945,67.841c0-3.069-.062-3.561-1.908-3.706l-.783-.057c-.187-.119-.124-.638.062-.726,1.566.057,2.628.088,3.94.088s2.317-.031,3.877-.088c.187.088.249.607.062.721l-.783.057c-1.845.145-1.908.638-1.908,3.706V78.147c0,3.069.062,3.473,1.908,3.681l.783.088c.187.114.124.638-.062.721-1.565-.057-2.628-.083-3.877-.083s-2.374.031-3.94.083a.53.53,0,0,1-.062-.721l.783-.088c1.845-.2,1.908-.612,1.908-3.681V67.836Z" transform="translate(-103.704 -18.657)" fill="#043673"/>
        <path id="Path_9370" data-name="Path 9370" d="M310.233,81.812c-.161-.016-.461-.041-.461-.041a1.224,1.224,0,0,1-.861-.337c-.4-.43-.373-1.659-.373-2.151V66.592c0-.555-.135-1.752.27-2.182a1.5,1.5,0,0,1,1-.285h0c.228-.021.233-.021.435-.031l.8-.057c.192-.119.13-.638-.062-.721-.43.016-.819.005-1.187.021h-3.421c-.373,0-.71,0-.912.4L298.5,78.24l-6.153-14.012c-.2-.492-.238-.892-.876-.892h-3.556c-.368-.01-.778-.01-1.208-.021-.192.083-.259.607-.062.721l.8.057c.166.01.467.036.467.036,1.332.083,1.415.384,1.3,1.788l-1.047,13.613c-.093,1.369-.171,2.089-1.6,2.224l-.472.057-.8.083a.522.522,0,0,0,.067.726c.425-.016,1.177-.036,1.177-.036.726-.036,1.467-.1,2.2-.1.8,0,1.6.078,2.395.109h0c.368.01.757.026,1.187.041a.52.52,0,0,0,.067-.721l-.8-.088c-.213-.016-.446-.041-.446-.041-2.063-.14-2.017-1.6-1.892-3.385l.98-12.659h.238l6.656,15.578c.067.218.171.586.508.586.306,0,.4-.337.508-.555l7.5-15.977h.238V79.287c0,.555.067,1.69-.508,2.12a4.238,4.238,0,0,1-1.275.358c-.135.021-.275.041-.435.057l-.8.088a.52.52,0,0,0,.067.721c.425-.016,1.177-.036,1.177-.036,1.089-.031,2.193-.114,3.3-.114.793,0,2.354.078,2.354.078.368.01.793.052,1.223.067a.526.526,0,0,0,.062-.726l-.8-.088Z" transform="translate(-83.983 -18.646)" fill="#043673"/>
        <path id="Path_9371" data-name="Path 9371" d="M386.326,81.784l-.109-.088c-.161-.016-.3-.036-.436-.062-1.254-.28-1.737-1.788-2.2-2.861l-6.444-15.256c-.067-.181-.192-.575-.446-.575-.352,0-.446.425-.544.669l-6.158,15.225a10.129,10.129,0,0,1-1.213,2.4,1.73,1.73,0,0,1-1.172.43s-.347.031-.513.052l-.757.078a.515.515,0,0,0,.067.721l1.192-.041c.84-.01,1.685-.119,2.53-.119.71,0,1.42.073,2.125.109l1.192.041a.521.521,0,0,0,.062-.726l-.8-.088-.435-.041c-.741-.083-1.664-.213-1.664-1.026a5.041,5.041,0,0,1,.446-1.674L372,76.668c.477-1.094.285-1.213,1.56-1.213H377.9c1.529,0,1.306,0,1.975,1.55l1.021,2.307a4.979,4.979,0,0,1,.451,1.488c0,.762-.835.814-1.612.881,0,0-.259.021-.482.036l-.772.057a.526.526,0,0,0,.062.726c.43-.016,1.192-.047,1.192-.047.907-.036,1.82-.1,2.7-.1,1.12,0,2.234.078,3.354.109h0c.368.01.057.021.477.036a.515.515,0,0,0,.062-.721Zm-8.439-7.169h-3.758c-.13,0-1.177.124-1.177-.187a1.614,1.614,0,0,1,.1-.368l2.26-5.588c.062-.15.3-.923.555-.923.2,0,.456.8.524.923l2.224,5.22c0,.062.228.549.228.674,0,.337-.752.244-.949.244Z" transform="translate(-107.848 -18.536)" fill="#043673"/>
        <path id="Path_9372" data-name="Path 9372" d="M108.022,41.566A55.433,55.433,0,0,0,54.944.059C31.668.059,7.657,16.341,1.327,43.085A52.809,52.809,0,0,0,0,54.956a50.636,50.636,0,0,0,1,9.86H1c.487-.1.689-.15,1.229-.259h0c4.982-.855,12.861-1.882,19.6-1.032,10.7,1.353,17.392,3.157,28.688,5.707S70.133,74.188,82.32,72.84c10.668-1.182,17.978-2.846,25.09-7.527h0c.005,0,.575-.368.575-.368.124-.088.607-.451.762-.56a54.246,54.246,0,0,0,.912-9.284h0a59.872,59.872,0,0,0-1.638-13.52" transform="translate(0 -0.017)" fill="#fff"/>
        <path id="Path_9373" data-name="Path 9373" d="M1.3,59.033A54.612,54.612,0,0,0,0,70.759a50.238,50.238,0,0,0,1,9.86H1c.487-.1.689-.15,1.229-.259h0c4.982-.855,12.866-1.882,19.6-1.032,10.7,1.353,17.387,3.157,28.688,5.707s19.621,4.956,31.808,3.608C93,87.461,100.3,85.8,107.415,81.116h0c.005,0,.57-.368.57-.368.124-.088.607-.451.762-.56a54.245,54.245,0,0,0,.912-9.284h0a60.054,60.054,0,0,0-1.509-12.975L100.6,53.719l-8.735,6.127L85.99,57.555C84,58.566,71.729,66.767,71.729,66.767l-4.712-3.411-5.054-1-6.739-4.909-7.729,5.308s-8.621,5.008-8.916,5.008-10.4-8.014-10.4-8.014l-4.655-4.909c-.793.5-3.96,1.954-3.96,1.954l-.161.047-3.064-.949-3.722-1.975Z" transform="translate(0 -15.82)" fill="#043673"/>
        <path id="Path_9374" data-name="Path 9374" d="M136.292,53.536l-11.093,4.1,3.5,1.2Z" transform="translate(-36.87 -15.766)" fill="#fdb913"/>
        <path id="Path_9375" data-name="Path 9375" d="M11.487,37.91l-6.226-2.3c.073-.192.14-.384.218-.57l6.848,2.395.658-.41,3.271,1.778,4.064,1.483.244-.109L6.054,33.654c.083-.192.166-.384.254-.57L22.29,39.47l.228-.119L6.941,31.7l.264-.544,16.92,7.382L7.89,29.787l.264-.5L30.942,41.352c.327-.607.674-1.2,1.042-1.778L13.416,25.059,33.234,37.775q.731-.972,1.55-1.871L15.717,18.626c.135-.15.28-.3.415-.451L29.983,30.419,17.174,17.086c.145-.15.29-.3.441-.441L32.067,30.517,18.713,15.593c.145-.135.3-.275.446-.41L32.1,28.382,20.3,14.162c.145-.124.285-.244.43-.363L37.3,33.457c.638-.549,1.3-1.078,1.991-1.571L27.469,11.425,41.108,30.678q1.112-.669,2.281-1.229L32.223,6.355c.2-.093.389-.181.581-.27l8.273,16.568L34.182,5.469c.192-.083.378-.166.575-.244l8.211,18.3L36.168,4.66c.187-.073.378-.145.56-.213l7.066,17.107L38.184,3.935c.166-.057.332-.1.5-.161l7.962,24.354c.741-.249,1.493-.467,2.26-.653L45.618,4.085l5.433,22.959a26.757,26.757,0,0,1,2.753-.3L52.1,1.239c.192-.01.384-.026.581-.036l1.757,18.341L54.182,1.151c.213,0,.42-.005.632-.01l.752,19.31.757-19.3.612.016-.166,18.377L58.453,1.229c.192.01.378.021.57.036L57.292,26.754c.886.057,1.757.15,2.618.29L65.332,4.157,62.051,27.475c.8.2,1.591.425,2.369.689L72.356,3.909c.187.062.373.13.56.2L67.354,21.549,74.342,4.624c.192.073.384.14.575.218L68.183,23.519l8.123-18.1c.2.083.389.166.581.254L70.075,22.648l8.17-16.355.524.249L67.665,29.5q1.135.552,2.208,1.2l13.6-19.2L71.693,31.9c.71.508,1.384,1.047,2.037,1.617L90.147,14.028l.451.389L78.924,28.485l12.8-13.053c.15.14.306.28.456.42L78.955,30.626,93.252,16.9c.15.15.3.3.441.451L81.039,30.528l13.68-12.089c.13.14.259.28.384.42L76.223,35.966c.534.6,1.047,1.213,1.529,1.856l19.776-12.69L78.992,39.615c.373.581.715,1.177,1.042,1.788l22.519-11.918.28.529L86.881,38.61l16.625-7.247.264.56L86.109,40.605l18.278-7.325c.088.2.176.389.254.586L88.074,41.29,105.2,35.235c.067.176.135.353.2.534l-3.665,1.348,5.438,4.137,1.508.84h0a63.86,63.86,0,0,0-2.3-7.278A55.492,55.492,0,0,0,55.3,0a54.7,54.7,0,0,0-53.4,42.923h0s-.036.171-.062.306l1.073-.5,8.585-4.811Z" transform="translate(-0.539)" fill="#fdb913"/>
        <path id="Path_9376" data-name="Path 9376" d="M3.284,127.517A4.792,4.792,0,0,1,.9,126.951a7.123,7.123,0,0,1-.415-2.136c.078-.109.306-.135.368-.047a2.779,2.779,0,0,0,2.628,2.276,1.732,1.732,0,0,0,1.908-1.757,2.291,2.291,0,0,0-1.254-2.136L2.683,122.2a3.258,3.258,0,0,1-1.648-2.628c0-1.451,1.13-2.628,3.116-2.628a6.1,6.1,0,0,1,1.42.2,2.024,2.024,0,0,0,.534.093,6.6,6.6,0,0,1,.275,1.861c-.062.093-.306.14-.384.047a2,2,0,0,0-2.079-1.726,1.618,1.618,0,0,0-1.82,1.7,2.389,2.389,0,0,0,1.3,1.877l1.223.762a3.437,3.437,0,0,1,1.908,2.934c0,1.68-1.27,2.825-3.255,2.825Z" transform="translate(-0.143 -34.44)" fill="#043673"/>
        <path id="Path_9377" data-name="Path 9377" d="M12.374,126.728c0,1.052.259,1.757,1.42,1.757a2,2,0,0,0,1.239-.456,1.07,1.07,0,0,0,.306-.886v-2.5c0-.99-.109-1.021-.565-1.208l-.2-.078a.206.206,0,0,1,.016-.337,6.2,6.2,0,0,0,1.788-.275c.078.016.124.047.14.109-.031.29-.047.762-.047,1.327v2.566c0,1.208.047,1.664.472,1.664a2.855,2.855,0,0,0,.6-.078c.093.078.109.384-.016.441a8.006,8.006,0,0,0-2,.565.207.207,0,0,1-.181-.109V128.6c0-.14-.047-.213-.14-.213a3.99,3.99,0,0,1-2.11.793c-1.343,0-1.851-.674-1.851-1.908v-2.55c0-.964,0-1.1-.456-1.3l-.181-.078a.225.225,0,0,1,.031-.337,5.328,5.328,0,0,0,1.633-.275c.093.016.14.047.15.109a11.285,11.285,0,0,0-.047,1.327v2.55Z" transform="translate(-3.106 -36.145)" fill="#043673"/>
        <path id="Path_9378" data-name="Path 9378" d="M22.239,124.473c0-.6,0-.674-.415-.949l-.14-.093a.206.206,0,0,1,.016-.275,9.078,9.078,0,0,0,1.514-.824.169.169,0,0,1,.181.109,6.749,6.749,0,0,0-.062.705c0,.109.031.2.14.2a4.832,4.832,0,0,1,2.136-.715,2.586,2.586,0,0,1,2.535,2.794,3.558,3.558,0,0,1-3.727,3.649,5.7,5.7,0,0,1-.84-.062c-.14.031-.213.109-.213.43v1.6c0,1.083.031,1.223.581,1.3l.6.078a.266.266,0,0,1-.031.384c-.731-.031-1.177-.047-1.711-.047s-1.006.016-1.436.047a.266.266,0,0,1-.031-.384l.321-.047c.565-.078.581-.228.581-1.327v-6.568Zm1.13,2.841a.984.984,0,0,0,.456.918,2.018,2.018,0,0,0,1.1.337c1.254,0,1.985-1.161,1.985-2.747a2.211,2.211,0,0,0-2.063-2.457,1.845,1.845,0,0,0-1.3.43c-.14.166-.181.4-.181.9v2.628Z" transform="translate(-6.262 -36.026)" fill="#043673"/>
        <path id="Path_9379" data-name="Path 9379" d="M33.238,124.473c0-.6,0-.674-.415-.949l-.14-.093a.206.206,0,0,1,.016-.275,9.077,9.077,0,0,0,1.514-.824.169.169,0,0,1,.181.109,6.75,6.75,0,0,0-.062.705c0,.109.031.2.14.2a4.832,4.832,0,0,1,2.136-.715,2.586,2.586,0,0,1,2.535,2.794,3.558,3.558,0,0,1-3.727,3.649,5.7,5.7,0,0,1-.84-.062c-.14.031-.213.109-.213.43v1.6c0,1.083.031,1.223.581,1.3l.6.078a.266.266,0,0,1-.031.384c-.731-.031-1.177-.047-1.711-.047s-1.006.016-1.436.047a.266.266,0,0,1-.031-.384l.321-.047c.565-.078.581-.228.581-1.327v-6.568Zm1.13,2.841a.984.984,0,0,0,.456.918,2.018,2.018,0,0,0,1.1.337c1.255,0,1.985-1.161,1.985-2.747a2.211,2.211,0,0,0-2.063-2.457,1.845,1.845,0,0,0-1.3.43c-.14.166-.181.4-.181.9v2.628Z" transform="translate(-9.501 -36.026)" fill="#043673"/>
        <path id="Path_9380" data-name="Path 9380" d="M49.913,125.906a3.118,3.118,0,0,1-3.224,3.281,3.02,3.02,0,0,1-3.131-3.147,3.219,3.219,0,0,1,3.255-3.3A3,3,0,0,1,49.913,125.906Zm-3.281-2.7c-1.006,0-1.757.964-1.757,2.644,0,1.389.627,2.887,1.97,2.887s1.757-1.4,1.757-2.582C48.6,124.859,48.083,123.205,46.631,123.205Z" transform="translate(-12.827 -36.147)" fill="#043673"/>
        <path id="Path_9381" data-name="Path 9381" d="M55.076,124.506c0-.6,0-.674-.415-.949l-.14-.093a.206.206,0,0,1,.016-.275,12.294,12.294,0,0,0,1.545-.746c.078.016.124.047.124.109v.886c0,.078.016.124.047.135a3.1,3.1,0,0,1,1.68-.918.633.633,0,0,1,.689.612.682.682,0,0,1-.658.705.593.593,0,0,1-.337-.109,1.263,1.263,0,0,0-.674-.244.667.667,0,0,0-.549.306,2.355,2.355,0,0,0-.2,1.177v2.079c0,1.1.031,1.28.612,1.327l.549.047a.266.266,0,0,1-.031.384c-.721-.031-1.161-.047-1.7-.047s-1.006.016-1.4.047a.266.266,0,0,1-.031-.384l.29-.047c.565-.093.581-.228.581-1.327v-2.675Z" transform="translate(-15.943 -36.059)" fill="#043673"/>
        <path id="Path_9382" data-name="Path 9382" d="M63.7,123.243c-.259,0-.275.047-.275.368v2.856c0,.886.109,1.7,1.115,1.7a1.181,1.181,0,0,0,.415-.078c.14-.047.337-.213.384-.213.124,0,.181.166.15.259a2.111,2.111,0,0,1-1.6.705c-1.312,0-1.586-.731-1.586-1.648v-3.5c0-.41-.016-.441-.321-.441h-.43a.252.252,0,0,1-.047-.321,3.23,3.23,0,0,0,.98-.472,3.868,3.868,0,0,0,.643-.9c.078-.031.259-.031.321.078v.689c0,.275.016.29.275.29h1.7a.5.5,0,0,1,.016.643H63.7Z" transform="translate(-18.1 -35.791)" fill="#043673"/>
        <path id="Path_9383" data-name="Path 9383" d="M69.607,125.069c-.4,0-.415.031-.415.415a2.585,2.585,0,0,0,2.535,2.856,1.641,1.641,0,0,0,1.4-.746.2.2,0,0,1,.275.181,2.67,2.67,0,0,1-2.4,1.42,2.726,2.726,0,0,1-2.214-1.006,3.254,3.254,0,0,1-.643-1.985,3.209,3.209,0,0,1,3.069-3.452,2,2,0,0,1,2.167,1.82.949.949,0,0,1-.062.4c-.047.093-.259.109-.9.109H69.6Zm.949-.456c1.13,0,1.467-.062,1.586-.15.047-.031.093-.093.093-.29,0-.43-.29-.964-1.177-.964a1.808,1.808,0,0,0-1.7,1.327c0,.031,0,.078.109.078Z" transform="translate(-20.07 -36.149)" fill="#043673"/>
        <path id="Path_9384" data-name="Path 9384" d="M82.7,124.785c0,1.208.016,1.773.441,1.773a2.715,2.715,0,0,0,.658-.15c.109.031.124.415-.016.487a11.873,11.873,0,0,0-2.017.487c-.093,0-.166-.047-.166-.124V127a1.644,1.644,0,0,0-.031-.472H81.51a3.2,3.2,0,0,1-1.923.705,2.806,2.806,0,0,1-2.825-2.934,3.468,3.468,0,0,1,3.7-3.515,3.254,3.254,0,0,1,1.021.135c.078,0,.093-.093.093-.213V118.4c0-.9-.016-.99-.472-1.27l-.15-.093a.23.23,0,0,1,0-.306,10.992,10.992,0,0,0,1.648-.643.158.158,0,0,1,.15.093c-.016.456-.047,1.223-.047,1.892v6.708Zm-1.13-2.291a.919.919,0,0,0-.166-.6,1.6,1.6,0,0,0-1.286-.643c-1.389,0-2.11,1.208-2.11,2.535a2.453,2.453,0,0,0,2.276,2.7,1.841,1.841,0,0,0,1.177-.43.917.917,0,0,0,.109-.565v-3.007Z" transform="translate(-22.606 -34.187)" fill="#043673"/>
        <path id="Path_9385" data-name="Path 9385" d="M93.818,118.406c0-.9-.016-.99-.472-1.27l-.15-.093a.23.23,0,0,1,0-.306,13.538,13.538,0,0,0,1.664-.643.158.158,0,0,1,.15.093c-.031.534-.062,1.223-.062,1.892v2.887c0,.259.062.321.15.321a3.537,3.537,0,0,1,1.757-.5,2.861,2.861,0,0,1,2.919,3,3.346,3.346,0,0,1-3.515,3.452,4.45,4.45,0,0,1-1.3-.2,3.063,3.063,0,0,0-.643-.2c-.124,0-.244.124-.321.228-.016.016-.031.016-.062.016a.158.158,0,0,1-.15-.093c.016-.213.031-.5.031-1.3v-7.283Zm1.13,6.537a2.113,2.113,0,0,0,.384,1.327,1.454,1.454,0,0,0,1.161.5c1.436,0,2-1.223,2-2.535,0-1.576-.809-2.794-2.322-2.794a2.017,2.017,0,0,0-1.037.244c-.15.109-.181.275-.181.871v2.385Z" transform="translate(-27.429 -34.189)" fill="#043673"/>
        <path id="Path_9386" data-name="Path 9386" d="M103.572,132.187a.571.571,0,0,1,.612-.612h.29a.553.553,0,0,0,.5-.275,10.117,10.117,0,0,0,.886-1.7,2.289,2.289,0,0,0,.15-.658,2.926,2.926,0,0,0-.259-1.052l-1.192-3.271c-.259-.715-.368-1.083-.9-1.192l-.384-.078c-.093-.078-.078-.337.047-.384.487.031.949.047,1.451.047.415,0,.84-.016,1.327-.047.124.047.14.306.031.384l-.384.078c-.213.047-.337.093-.337.2a12.22,12.22,0,0,0,.441,1.436l.487,1.4a9.645,9.645,0,0,0,.441,1.083,7.306,7.306,0,0,0,.565-1.13l.518-1.208a6.953,6.953,0,0,0,.534-1.529c0-.109-.093-.213-.368-.259l-.472-.078c-.109-.078-.093-.337.031-.384.487.031.949.047,1.343.047s.731-.016,1.161-.047a.254.254,0,0,1,.031.384l-.259.047c-.5.093-.778.534-1.3,1.617l-.855,1.757c-.5,1.021-1.757,3.681-2.5,5.345a1.014,1.014,0,0,1-.98.715.617.617,0,0,1-.674-.658Z" transform="translate(-30.397 -36.212)" fill="#043673"/>
        <path id="Path_9387" data-name="Path 9387" d="M121.106,123.243c-.259,0-.275.047-.275.368v2.856c0,.886.109,1.7,1.115,1.7a1.181,1.181,0,0,0,.415-.078c.14-.047.337-.213.384-.213.124,0,.181.166.15.259a2.111,2.111,0,0,1-1.6.705c-1.312,0-1.586-.731-1.586-1.648v-3.5c0-.41-.016-.441-.321-.441h-.43a.252.252,0,0,1-.047-.321,3.23,3.23,0,0,0,.98-.472,3.868,3.868,0,0,0,.643-.9c.078-.031.259-.031.321.078v.689c0,.275.016.29.275.29h1.7a.5.5,0,0,1,.016.643h-1.726Z" transform="translate(-35.006 -35.791)" fill="#043673"/>
        <path id="Path_9388" data-name="Path 9388" d="M126.288,118.406c0-.9-.016-.99-.472-1.27l-.15-.093a.23.23,0,0,1,0-.306,11,11,0,0,0,1.648-.643.158.158,0,0,1,.15.093c-.016.456-.047,1.223-.047,1.892v3.209c0,.135.016.259.062.29a3.458,3.458,0,0,1,2.063-.793,1.781,1.781,0,0,1,1.97,1.97v2.55c0,1.1.031,1.27.581,1.327l.415.047a.266.266,0,0,1-.031.384c-.549-.031-.99-.047-1.529-.047s-1.006.016-1.42.047a.266.266,0,0,1-.031-.384l.306-.047c.565-.093.581-.228.581-1.327v-2.182c0-.98-.472-1.633-1.451-1.633a1.837,1.837,0,0,0-1.192.41c-.275.228-.321.306-.321.84v2.566c0,1.1.031,1.255.581,1.327l.321.047c.109.062.078.337-.031.384-.456-.031-.9-.047-1.436-.047s-1.006.016-1.5.047a.266.266,0,0,1-.031-.384l.384-.047c.565-.062.581-.228.581-1.327v-6.9Z" transform="translate(-36.887 -34.189)" fill="#043673"/>
        <path id="Path_9389" data-name="Path 9389" d="M138.191,125.069c-.4,0-.415.031-.415.415a2.585,2.585,0,0,0,2.535,2.856,1.641,1.641,0,0,0,1.4-.746.2.2,0,0,1,.275.181,2.671,2.671,0,0,1-2.4,1.42,2.726,2.726,0,0,1-2.214-1.006,3.254,3.254,0,0,1-.643-1.985,3.209,3.209,0,0,1,3.069-3.452,2,2,0,0,1,2.167,1.82.95.95,0,0,1-.062.4c-.047.093-.259.109-.9.109H138.18Zm.949-.456c1.13,0,1.467-.062,1.586-.15.047-.031.093-.093.093-.29,0-.43-.29-.964-1.177-.964a1.808,1.808,0,0,0-1.7,1.327c0,.031,0,.078.109.078Z" transform="translate(-40.267 -36.149)" fill="#043673"/>
        <path id="Path_9390" data-name="Path 9390" d="M153.487,125.056c0,1.6.031,1.8,1.006,1.908l.415.047a.3.3,0,0,1-.031.384c-.871-.031-1.374-.047-1.985-.047-.643,0-1.192.016-1.861.047a.3.3,0,0,1-.031-.384l.321-.047c.886-.124.918-.306.918-1.908v-5.635c0-1.3-.031-1.56-.715-1.633l-.549-.062a.254.254,0,0,1,.031-.384,23.638,23.638,0,0,1,3.022-.124,5.507,5.507,0,0,1,2.934.612,2.634,2.634,0,0,1,1.223,2.291,2.579,2.579,0,0,1-1.529,2.426,5.154,5.154,0,0,1-2.11.456c-.109-.047-.109-.275-.016-.306a2.377,2.377,0,0,0,2.245-2.566,2.25,2.25,0,0,0-2.457-2.442c-.809,0-.824.062-.824.549v6.812Z" transform="translate(-44.439 -34.52)" fill="#043673"/>
        <path id="Path_9391" data-name="Path 9391" d="M163.007,124.506c0-.6,0-.674-.415-.949l-.14-.093a.206.206,0,0,1,.016-.275,12.293,12.293,0,0,0,1.545-.746c.078.016.124.047.124.109v.886c0,.078.016.124.047.135a3.1,3.1,0,0,1,1.68-.918.633.633,0,0,1,.689.612.682.682,0,0,1-.658.705.593.593,0,0,1-.337-.109,1.263,1.263,0,0,0-.674-.244.667.667,0,0,0-.549.306,2.355,2.355,0,0,0-.2,1.177v2.079c0,1.1.031,1.28.612,1.327l.549.047a.266.266,0,0,1-.031.384c-.721-.031-1.161-.047-1.7-.047s-1.006.016-1.4.047a.266.266,0,0,1-.031-.384l.29-.047c.565-.093.581-.228.581-1.327v-2.675Z" transform="translate(-47.728 -36.059)" fill="#043673"/>
        <path id="Path_9392" data-name="Path 9392" d="M175.471,125.906a3.118,3.118,0,0,1-3.224,3.281,3.02,3.02,0,0,1-3.131-3.147,3.219,3.219,0,0,1,3.255-3.3A3,3,0,0,1,175.471,125.906Zm-3.281-2.7c-1.006,0-1.757.964-1.757,2.644,0,1.389.627,2.887,1.97,2.887s1.757-1.4,1.757-2.582C174.159,124.859,173.641,123.205,172.19,123.205Z" transform="translate(-49.803 -36.147)" fill="#043673"/>
        <path id="Path_9393" data-name="Path 9393" d="M179.8,124.539c-.228-.565-.368-1.052-.918-1.13l-.306-.047c-.093-.124-.078-.337.047-.384.384.031.918.047,1.436.047.415,0,.715-.016,1.239-.047a.266.266,0,0,1,.016.384l-.181.031c-.472.078-.487.15-.337.612.352,1.052.793,2.125,1.146,2.919a2.624,2.624,0,0,0,.244.487,1.9,1.9,0,0,0,.29-.581c.2-.518.721-1.851.871-2.245a3.471,3.471,0,0,0,.275-.949c0-.135-.093-.2-.275-.228l-.353-.047a.278.278,0,0,1,.031-.384c.472.031.855.047,1.146.047.384,0,.643-.016,1.068-.047a.28.28,0,0,1,.031.384l-.228.031c-.534.078-.674.472-1.115,1.327-.213.415-1.161,2.628-1.4,3.255-.15.384-.306.731-.5,1.254a.176.176,0,0,1-.15.062.273.273,0,0,1-.2-.062c-.124-.43-.352-1.021-.581-1.586l-1.286-3.1Z" transform="translate(-52.572 -36.216)" fill="#043673"/>
        <path id="Path_9394" data-name="Path 9394" d="M189.647,123.218c0-.6,0-.674-.415-.949l-.14-.093a.206.206,0,0,1,.016-.275,10.534,10.534,0,0,0,1.571-.746c.078,0,.14.031.15.093-.031.534-.062,1.27-.062,1.892v2.747c0,1.1.031,1.255.581,1.327l.321.047a.266.266,0,0,1-.031.384c-.456-.031-.9-.047-1.436-.047s-1.006.016-1.436.047a.266.266,0,0,1-.031-.384l.321-.047c.565-.078.581-.228.581-1.327v-2.675Zm1.27-4.354a.793.793,0,0,1-1.586.031.8.8,0,0,1,.824-.824A.764.764,0,0,1,190.918,118.864Z" transform="translate(-55.561 -34.771)" fill="#043673"/>
        <path id="Path_9395" data-name="Path 9395" d="M195.234,124.506c0-.6,0-.674-.415-.949l-.14-.093a.206.206,0,0,1,.016-.275,8.515,8.515,0,0,0,1.529-.746.17.17,0,0,1,.166.109c-.031.352-.031.581-.031.715a.158.158,0,0,0,.166.166,4.167,4.167,0,0,1,2.136-.778,1.694,1.694,0,0,1,1.788,1.892v2.628c0,1.1.031,1.254.581,1.327l.337.047a.266.266,0,0,1-.031.384c-.456-.031-.9-.047-1.436-.047s-1.006.016-1.42.047a.266.266,0,0,1-.031-.384l.29-.047c.565-.093.581-.228.581-1.327V124.9a1.326,1.326,0,0,0-1.436-1.514,1.657,1.657,0,0,0-1.3.534,1.293,1.293,0,0,0-.228.918v2.338c0,1.1.031,1.239.581,1.327l.275.047a.266.266,0,0,1-.031.384c-.415-.031-.855-.047-1.389-.047s-1.006.016-1.436.047a.266.266,0,0,1-.031-.384l.321-.047c.565-.078.581-.228.581-1.327V124.5Z" transform="translate(-57.208 -36.059)" fill="#043673"/>
        <path id="Path_9396" data-name="Path 9396" d="M210.742,123a.862.862,0,0,1,.228.612c0,.275-.15.565-.337.565a.262.262,0,0,1-.213-.109,2.079,2.079,0,0,0-1.529-.809,2.206,2.206,0,0,0-2.11,2.457,2.509,2.509,0,0,0,2.457,2.613,1.866,1.866,0,0,0,1.7-.918.24.24,0,0,1,.275.213,2.779,2.779,0,0,1-2.55,1.555,2.968,2.968,0,0,1-2.094-.778,3.046,3.046,0,0,1-.886-2.26,3.4,3.4,0,0,1,3.7-3.406,3.826,3.826,0,0,1,1.358.259Z" transform="translate(-60.571 -36.145)" fill="#043673"/>
        <path id="Path_9397" data-name="Path 9397" d="M215.807,125.069c-.4,0-.41.031-.41.415a2.585,2.585,0,0,0,2.535,2.856,1.641,1.641,0,0,0,1.4-.746.2.2,0,0,1,.275.181,2.67,2.67,0,0,1-2.4,1.42A2.726,2.726,0,0,1,215,128.189a3.254,3.254,0,0,1-.643-1.985,3.209,3.209,0,0,1,3.069-3.452,2,2,0,0,1,2.167,1.82.95.95,0,0,1-.062.4c-.047.093-.259.109-.9.109H215.8Zm.949-.456c1.13,0,1.467-.062,1.586-.15.047-.031.093-.093.093-.29,0-.43-.29-.964-1.177-.964a1.808,1.808,0,0,0-1.7,1.327c0,.031,0,.078.109.078Z" transform="translate(-63.126 -36.149)" fill="#043673"/>
        <path id="Path_9398" data-name="Path 9398" d="M234.738,125.906a3.118,3.118,0,0,1-3.224,3.281,3.02,3.02,0,0,1-3.131-3.147,3.219,3.219,0,0,1,3.255-3.3A3,3,0,0,1,234.738,125.906Zm-3.281-2.7c-1.011,0-1.757.964-1.757,2.644,0,1.389.627,2.887,1.97,2.887s1.757-1.4,1.757-2.582C233.426,124.859,232.908,123.205,231.456,123.205Z" transform="translate(-67.257 -36.147)" fill="#043673"/>
        <path id="Path_9399" data-name="Path 9399" d="M241.207,121.641c-.259,0-.259.031-.259.441v3.224c0,1.1.031,1.28.581,1.327l.549.047a.266.266,0,0,1-.031.384c-.689-.031-1.13-.047-1.664-.047s-1.011.016-1.467.047a.27.27,0,0,1-.031-.384l.353-.047c.565-.078.581-.228.581-1.327v-3.224c0-.41,0-.441-.306-.441h-.534a.212.212,0,0,1-.047-.29l.658-.321a.341.341,0,0,0,.228-.306,6.922,6.922,0,0,1,.472-2.69,3.006,3.006,0,0,1,2.747-1.939c.809,0,1.5.368,1.5.918a.584.584,0,0,1-.581.549.449.449,0,0,1-.368-.181,1.7,1.7,0,0,0-1.223-.674,1.177,1.177,0,0,0-1.083.84,8.127,8.127,0,0,0-.337,2.582v.441c0,.415,0,.43.259.43h1.742a.472.472,0,0,1-.109.643H241.2Z" transform="translate(-70.331 -34.189)" fill="#043673"/>
        <path id="Path_9400" data-name="Path 9400" d="M252.131,119.256c0-1.13-.062-1.42-.747-1.483l-.487-.047a.243.243,0,0,1,.016-.384c.824-.078,1.861-.124,3.281-.124a5.793,5.793,0,0,1,2.566.43,2,2,0,0,1,1.161,1.908,2.217,2.217,0,0,1-1.555,2.094c0,.15.124.2.29.228a2.527,2.527,0,0,1,2.048,2.55c0,1.773-1.311,2.965-4.064,2.965-.441,0-1.192-.047-1.835-.047s-1.192.031-1.757.047a.3.3,0,0,1-.031-.384l.275-.047c.809-.14.84-.306.84-1.908v-5.806Zm1.254,2.032c0,.43.016.456.793.43,1.56-.062,2.4-.518,2.4-1.954A2.051,2.051,0,0,0,254.3,117.7a1.82,1.82,0,0,0-.7.093c-.15.047-.213.124-.213.4v3.1Zm0,3.546a2.991,2.991,0,0,0,.321,1.664,1.479,1.479,0,0,0,1.208.43c1.358,0,2.4-.612,2.4-2.136,0-1.208-.612-2.613-3.038-2.613-.824,0-.886.093-.886.4v2.26Z" transform="translate(-73.862 -34.52)" fill="#043673"/>
        <path id="Path_9401" data-name="Path 9401" d="M264.5,124.506c0-.6,0-.674-.415-.949l-.135-.093a.206.206,0,0,1,.016-.275,12.3,12.3,0,0,0,1.545-.746c.078.016.124.047.124.109v.886c0,.078.016.124.047.135a3.1,3.1,0,0,1,1.68-.918.633.633,0,0,1,.689.612.682.682,0,0,1-.658.705.593.593,0,0,1-.337-.109,1.263,1.263,0,0,0-.674-.244.667.667,0,0,0-.549.306,2.355,2.355,0,0,0-.2,1.177v2.079c0,1.1.031,1.28.612,1.327l.55.047a.266.266,0,0,1-.031.384c-.715-.031-1.161-.047-1.7-.047s-1.006.016-1.4.047a.27.27,0,0,1-.031-.384l.29-.047c.565-.093.581-.228.581-1.327v-2.675Z" transform="translate(-77.621 -36.059)" fill="#043673"/>
        <path id="Path_9402" data-name="Path 9402" d="M271.7,123.218c0-.6,0-.674-.415-.949l-.135-.093a.206.206,0,0,1,.016-.275,10.832,10.832,0,0,0,1.576-.746.137.137,0,0,1,.15.093c-.031.534-.062,1.27-.062,1.892v2.747c0,1.1.031,1.255.581,1.327l.321.047a.266.266,0,0,1-.031.384c-.456-.031-.9-.047-1.436-.047s-1.006.016-1.436.047a.266.266,0,0,1-.031-.384l.321-.047c.565-.078.581-.228.581-1.327v-2.675Zm1.27-4.354a.793.793,0,0,1-1.586.031.8.8,0,0,1,.824-.824A.764.764,0,0,1,272.974,118.864Z" transform="translate(-79.729 -34.771)" fill="#043673"/>
        <path id="Path_9403" data-name="Path 9403" d="M278.538,123.243c-.259,0-.275.047-.275.368v2.856c0,.886.109,1.7,1.115,1.7a1.18,1.18,0,0,0,.415-.078c.14-.047.337-.213.384-.213.124,0,.181.166.15.259a2.111,2.111,0,0,1-1.6.705c-1.312,0-1.586-.731-1.586-1.648v-3.5c0-.41-.016-.441-.321-.441h-.43a.252.252,0,0,1-.047-.321,3.23,3.23,0,0,0,.98-.472,3.867,3.867,0,0,0,.643-.9c.078-.031.259-.031.321.078v.689c0,.275.016.29.275.29h1.7a.5.5,0,0,1,.016.643h-1.726Z" transform="translate(-81.369 -35.791)" fill="#043673"/>
        <path id="Path_9404" data-name="Path 9404" d="M283.96,123.218c0-.6,0-.674-.415-.949l-.135-.093a.206.206,0,0,1,.016-.275,10.834,10.834,0,0,0,1.576-.746.137.137,0,0,1,.15.093c-.031.534-.062,1.27-.062,1.892v2.747c0,1.1.031,1.255.581,1.327l.321.047a.266.266,0,0,1-.031.384c-.456-.031-.9-.047-1.436-.047s-1.006.016-1.436.047a.266.266,0,0,1-.031-.384l.321-.047c.565-.078.581-.228.581-1.327v-2.675Zm1.27-4.354a.793.793,0,0,1-1.586.031.8.8,0,0,1,.824-.824A.764.764,0,0,1,285.23,118.864Z" transform="translate(-83.339 -34.771)" fill="#043673"/>
        <path id="Path_9405" data-name="Path 9405" d="M292.2,123.021a3.514,3.514,0,0,1,.244,1.239.269.269,0,0,1-.368.047,1.484,1.484,0,0,0-1.343-1.115.89.89,0,0,0-.98.933c0,.627.643.964,1.177,1.27.809.456,1.555.98,1.555,2.063,0,1.161-1.068,1.742-2.2,1.742a2.533,2.533,0,0,1-1.633-.456,4.477,4.477,0,0,1-.181-1.545.258.258,0,0,1,.353-.016c.259.84.746,1.571,1.617,1.571a.94.94,0,0,0,1.021-.98c0-.7-.612-1.083-1.177-1.4-.886-.5-1.514-1.037-1.514-1.877,0-1.115.918-1.742,2.079-1.742a2.659,2.659,0,0,1,1.343.275Z" transform="translate(-84.953 -36.149)" fill="#043673"/>
        <path id="Path_9406" data-name="Path 9406" d="M296.322,118.406c0-.9-.016-.99-.472-1.27l-.15-.093a.23.23,0,0,1,0-.306,10.992,10.992,0,0,0,1.648-.643.158.158,0,0,1,.15.093c-.016.456-.047,1.223-.047,1.892v3.209c0,.135.016.259.062.29a3.445,3.445,0,0,1,2.063-.793,1.781,1.781,0,0,1,1.97,1.97v2.55c0,1.1.031,1.27.581,1.327l.415.047a.266.266,0,0,1-.031.384c-.549-.031-1-.047-1.529-.047s-1.011.016-1.42.047a.266.266,0,0,1-.031-.384l.306-.047c.565-.093.581-.228.581-1.327v-2.182c0-.98-.472-1.633-1.452-1.633a1.837,1.837,0,0,0-1.192.41c-.275.228-.321.306-.321.84v2.566c0,1.1.031,1.255.581,1.327l.321.047c.109.062.078.337-.031.384-.456-.031-.9-.047-1.436-.047s-1.006.016-1.5.047a.266.266,0,0,1-.031-.384l.384-.047c.565-.062.581-.228.581-1.327v-6.9Z" transform="translate(-86.961 -34.189)" fill="#043673"/>
        <path id="Path_9407" data-name="Path 9407" d="M314.334,118.243a6.579,6.579,0,0,1,4.126-1.3,11.553,11.553,0,0,1,2.7.368,1.134,1.134,0,0,0,.43.062c.016.353.093,1.312.213,2.245a.321.321,0,0,1-.415.031c-.228-1.037-.918-2.229-3.131-2.229-2.338,0-4.323,1.483-4.323,4.645s2.032,4.982,4.536,4.982a3.257,3.257,0,0,0,3.193-2.182.32.32,0,0,1,.4.062,5.82,5.82,0,0,1-.731,2.094,3.02,3.02,0,0,0-.534.156,8.912,8.912,0,0,1-2.416.353,6.711,6.711,0,0,1-3.8-1.021,4.917,4.917,0,0,1-2.167-4.2,5.075,5.075,0,0,1,1.923-4.049Z" transform="translate(-92.003 -34.44)" fill="#043673"/>
        <path id="Path_9408" data-name="Path 9408" d="M333.66,125.906a3.118,3.118,0,0,1-3.224,3.281,3.02,3.02,0,0,1-3.131-3.147,3.219,3.219,0,0,1,3.255-3.3A3,3,0,0,1,333.66,125.906Zm-3.281-2.7c-1.011,0-1.757.964-1.757,2.644,0,1.389.627,2.887,1.97,2.887s1.757-1.4,1.757-2.582C332.349,124.859,331.83,123.205,330.379,123.205Z" transform="translate(-96.389 -36.147)" fill="#043673"/>
        <path id="Path_9409" data-name="Path 9409" d="M339.715,125.3c0,1.1.031,1.255.581,1.327l.368.047a.266.266,0,0,1-.031.384c-.5-.031-.949-.047-1.483-.047s-1.006.016-1.467.047a.266.266,0,0,1-.031-.384l.352-.047c.565-.078.581-.228.581-1.327v-6.9c0-.9-.016-.99-.472-1.27l-.15-.093a.23.23,0,0,1,0-.306,11,11,0,0,0,1.648-.643.158.158,0,0,1,.15.093c-.016.456-.047,1.223-.047,1.892V125.3Z" transform="translate(-99.416 -34.187)" fill="#043673"/>
        <path id="Path_9410" data-name="Path 9410" d="M345.148,126.728c0,1.052.259,1.757,1.42,1.757a2,2,0,0,0,1.239-.456,1.07,1.07,0,0,0,.306-.886v-2.5c0-.99-.109-1.021-.565-1.208l-.2-.078a.206.206,0,0,1,.016-.337,6.2,6.2,0,0,0,1.788-.275c.078.016.124.047.14.109-.031.29-.047.762-.047,1.327v2.566c0,1.208.047,1.664.472,1.664a2.854,2.854,0,0,0,.6-.078c.093.078.109.384-.016.441a8.006,8.006,0,0,0-2,.565.207.207,0,0,1-.181-.109V128.6c0-.14-.047-.213-.14-.213a3.99,3.99,0,0,1-2.11.793c-1.343,0-1.845-.674-1.845-1.908v-2.55c0-.964,0-1.1-.456-1.3l-.181-.078a.225.225,0,0,1,.031-.337,5.328,5.328,0,0,0,1.633-.275c.093.016.14.047.15.109a11.293,11.293,0,0,0-.047,1.327v2.55Z" transform="translate(-101.107 -36.145)" fill="#043673"/>
        <path id="Path_9411" data-name="Path 9411" d="M363.362,124.96c0-1.037-.456-1.576-1.42-1.576a1.658,1.658,0,0,0-1.27.534c-.181.228-.228.384-.228.918v2.338c0,1.1.031,1.255.581,1.327l.321.047a.266.266,0,0,1-.031.384c-.456-.031-.9-.047-1.436-.047s-.964.016-1.389.047a.27.27,0,0,1-.031-.384l.275-.047c.565-.093.581-.228.581-1.327V124.96c0-1.021-.456-1.576-1.4-1.576a1.649,1.649,0,0,0-1.286.549,1.2,1.2,0,0,0-.228.871v2.369c0,1.1.031,1.239.581,1.327l.275.047a.266.266,0,0,1-.031.384c-.415-.031-.855-.047-1.389-.047s-1.006.016-1.483.047a.266.266,0,0,1-.031-.384l.368-.047c.565-.078.581-.228.581-1.327V124.5c0-.6,0-.674-.415-.949l-.135-.093a.206.206,0,0,1,.016-.275,8.516,8.516,0,0,0,1.529-.746.17.17,0,0,1,.166.109c-.031.353-.031.581-.031.715a.158.158,0,0,0,.166.166,3.646,3.646,0,0,1,2.032-.778,1.765,1.765,0,0,1,1.617.9.483.483,0,0,0,.384-.124,3.8,3.8,0,0,1,2.079-.778,1.727,1.727,0,0,1,1.82,1.892v2.628c0,1.1.031,1.255.581,1.327l.368.047a.266.266,0,0,1-.031.384c-.5-.031-.949-.047-1.483-.047s-.964.016-1.389.047a.266.266,0,0,1-.031-.384l.275-.047c.565-.093.581-.228.581-1.327v-2.214Z" transform="translate(-104.324 -36.056)" fill="#043673"/>
        <path id="Path_9412" data-name="Path 9412" d="M371.974,118.406c0-.9-.016-.99-.472-1.27l-.15-.093a.23.23,0,0,1,0-.306,13.534,13.534,0,0,0,1.664-.643.158.158,0,0,1,.15.093c-.031.534-.062,1.223-.062,1.892v2.887c0,.259.062.321.15.321a3.554,3.554,0,0,1,1.757-.5,2.861,2.861,0,0,1,2.919,3,3.346,3.346,0,0,1-3.515,3.452,4.481,4.481,0,0,1-1.3-.2,3.062,3.062,0,0,0-.643-.2c-.124,0-.244.124-.321.228-.016.016-.031.016-.062.016a.158.158,0,0,1-.15-.093c.016-.213.031-.5.031-1.3v-7.283Zm1.13,6.537a2.113,2.113,0,0,0,.384,1.327,1.454,1.454,0,0,0,1.161.5c1.436,0,2-1.223,2-2.535,0-1.576-.809-2.794-2.322-2.794a2.016,2.016,0,0,0-1.037.244c-.15.109-.181.275-.181.871v2.385Z" transform="translate(-109.344 -34.189)" fill="#043673"/>
        <path id="Path_9413" data-name="Path 9413" d="M383.207,123.218c0-.6,0-.674-.415-.949l-.135-.093a.206.206,0,0,1,.016-.275,10.83,10.83,0,0,0,1.576-.746.137.137,0,0,1,.15.093c-.031.534-.062,1.27-.062,1.892v2.747c0,1.1.031,1.255.581,1.327l.321.047a.266.266,0,0,1-.031.384c-.456-.031-.9-.047-1.436-.047s-1.006.016-1.436.047a.27.27,0,0,1-.031-.384l.321-.047c.565-.078.581-.228.581-1.327v-2.675Zm1.27-4.354a.793.793,0,0,1-1.586.031.8.8,0,0,1,.824-.824A.764.764,0,0,1,384.477,118.864Z" transform="translate(-112.567 -34.771)" fill="#043673"/>
        <path id="Path_9414" data-name="Path 9414" d="M390.92,125.824c.228-.078.259-.213.259-.441l.016-.7c.016-.565-.166-1.327-1.115-1.327-.43,0-.949.213-.98.689-.016.244-.031.43-.15.518a1.661,1.661,0,0,1-.871.29.191.191,0,0,1-.213-.213c0-.793,1.726-1.877,2.841-1.877s1.633.643,1.586,1.788l-.093,2.659c-.031.705.109,1.327.7,1.327a.888.888,0,0,0,.384-.093c.078-.047.15-.109.2-.109.062,0,.109.093.109.2a1.6,1.6,0,0,1-1.286.674,1.223,1.223,0,0,1-1-.472c-.062-.093-.15-.213-.244-.213a2.223,2.223,0,0,0-.6.306,2.291,2.291,0,0,1-1.1.384,1.615,1.615,0,0,1-1.068-.353,1.428,1.428,0,0,1-.472-1.068c0-.6.29-.949,1.27-1.3l1.82-.658Zm-.949,2.69a1.72,1.72,0,0,0,.933-.384c.181-.181.181-.4.2-.715l.031-.9c0-.166-.062-.2-.15-.2a3.113,3.113,0,0,0-.627.15c-.9.306-1.343.534-1.343,1.13a.921.921,0,0,0,.964.918Z" transform="translate(-114.215 -36.154)" fill="#043673"/>
      </g>
    </g>
  </g>
</svg>
