<svg xmlns="http://www.w3.org/2000/svg" xmlns:xlink="http://www.w3.org/1999/xlink" width="300" height="100" viewBox="0 0 300 100">
  <defs>
    <clipPath id="clip-path">
      <rect id="Rectangle_32243" data-name="Rectangle 32243" width="300" height="100" transform="translate(105 980)" fill="#fff"/>
    </clipPath>
  </defs>
  <g id="Mask_Group_82" data-name="Mask Group 82" transform="translate(-105 -980)" clip-path="url(#clip-path)">
    <g id="Layer_3" transform="translate(114.99 994)">
      <g id="Group_11661" data-name="Group 11661" transform="translate(0.01 0.56)">
        <path id="Path_9415" data-name="Path 9415" d="M258.543,52.539V65.705h8.785v-2.3h-5.907V59.972h4.9V57.651h-4.9V54.839h5.035v-2.3h-7.9ZM243.971,65.705h2.866V54.839h4.5v-2.3H239.513v2.3h4.458Zm-23.237,0h2.91c.251-.567.523-1.144.807-1.766s.556-1.21.807-1.777h4.752l1.613,3.542h2.91L228.69,52.539h-2.125Zm8.273-5.864h-2.779l1.406-3.161L229,59.841Zm-23.521,5.864h2.888V61.051h.7a4.381,4.381,0,0,0,.556-.022l3.4,4.883,2.758-.73-3.433-4.937a4.869,4.869,0,0,0,1.809-1.439,3.6,3.6,0,0,0,.687-2.245A3.835,3.835,0,0,0,214.3,54.4a3.562,3.562,0,0,0-1.439-1.221,6.238,6.238,0,0,0-1.995-.523,22.013,22.013,0,0,0-2.256-.12h-3.139V65.705Zm4.458-10.867a2.222,2.222,0,0,1,1.45.49,1.532,1.532,0,0,1,.6,1.221,1.7,1.7,0,0,1-.272.981,2.107,2.107,0,0,1-.708.676,3.186,3.186,0,0,1-1.025.392,5.557,5.557,0,0,1-1.21.12h-.4V54.828h1.569ZM193.649,65.455a7.535,7.535,0,0,0,2.027-.883,5.871,5.871,0,0,0,1.406-1.264,6.38,6.38,0,0,0,.872-1.471,6.86,6.86,0,0,0,.458-1.515,7.95,7.95,0,0,0,.131-1.362,7.487,7.487,0,0,0-.447-2.616,5.208,5.208,0,0,0-1.4-2.06,6.489,6.489,0,0,0-2.387-1.352,10.633,10.633,0,0,0-3.411-.49,9.268,9.268,0,0,0-3.1.49,7.123,7.123,0,0,0-2.376,1.352,6.05,6.05,0,0,0-1.526,2.06,6.273,6.273,0,0,0-.534,2.616,9.11,9.11,0,0,0,.12,1.362,8.109,8.109,0,0,0,.425,1.515,5.874,5.874,0,0,0,.839,1.471,5.7,5.7,0,0,0,1.373,1.264,7,7,0,0,0,2.016.883,11.333,11.333,0,0,0,5.493,0m-7.106-8.185a3.6,3.6,0,0,1,.861-1.319,3.9,3.9,0,0,1,1.45-.872,6.108,6.108,0,0,1,2.06-.316,6.721,6.721,0,0,1,2.18.316,3.875,3.875,0,0,1,1.482.872,3.3,3.3,0,0,1,.839,1.319,5.18,5.18,0,0,1,.272,1.689,5.748,5.748,0,0,1-.24,1.711,3.572,3.572,0,0,1-.785,1.439,3.655,3.655,0,0,1-1.471.992,6.041,6.041,0,0,1-2.278.371,4.971,4.971,0,0,1-1.995-.371,4.6,4.6,0,0,1-1.471-.992,4.1,4.1,0,0,1-.894-1.439,4.973,4.973,0,0,1-.011-3.4m-18.681,8.425h2.867v-4.6h.338a9.571,9.571,0,0,0,2.234-.272,6.628,6.628,0,0,0,1.962-.839,4.551,4.551,0,0,0,1.4-1.417,3.657,3.657,0,0,0,.545-2.005,3.725,3.725,0,0,0-.556-2.158,3.523,3.523,0,0,0-1.45-1.221,6.383,6.383,0,0,0-2.005-.523,21.754,21.754,0,0,0-2.234-.12h-3.117V65.705Zm4.436-10.867a2.222,2.222,0,0,1,1.45.49,1.542,1.542,0,0,1,.589,1.232,1.7,1.7,0,0,1-.272.981,2.287,2.287,0,0,1-.719.687,3.426,3.426,0,0,1-1.025.414,5.56,5.56,0,0,1-1.21.131h-.381V54.817h1.569ZM151.35,65.694h2.888V61.04h.7a4.651,4.651,0,0,0,.567-.022l3.4,4.883,2.757-.73-3.433-4.937a4.831,4.831,0,0,0,1.8-1.439,3.6,3.6,0,0,0,.687-2.245,3.835,3.835,0,0,0-.545-2.158,3.679,3.679,0,0,0-1.428-1.221,6.238,6.238,0,0,0-1.995-.523,22.013,22.013,0,0,0-2.256-.12H151.35V65.694Zm4.458-10.867a2.172,2.172,0,0,1,1.439.49,1.522,1.522,0,0,1,.589,1.221,1.7,1.7,0,0,1-.272.981,2.213,2.213,0,0,1-.708.676,3.223,3.223,0,0,1-1.014.392,5.557,5.557,0,0,1-1.21.12h-.4V54.817H155.8ZM139.5,65.444a7.535,7.535,0,0,0,2.027-.883,5.613,5.613,0,0,0,1.4-1.264,6.379,6.379,0,0,0,.872-1.471,6.86,6.86,0,0,0,.458-1.515,7.95,7.95,0,0,0,.131-1.362,7.487,7.487,0,0,0-.447-2.616,5.3,5.3,0,0,0-1.384-2.06,6.672,6.672,0,0,0-2.387-1.352,10.633,10.633,0,0,0-3.411-.49,9.268,9.268,0,0,0-3.1.49,7.123,7.123,0,0,0-2.376,1.352,6.05,6.05,0,0,0-1.526,2.06,6.273,6.273,0,0,0-.534,2.616,7.952,7.952,0,0,0,.131,1.362,6.73,6.73,0,0,0,.425,1.515,5.874,5.874,0,0,0,.839,1.471A5.557,5.557,0,0,0,132,64.561a7,7,0,0,0,2.016.883,9.862,9.862,0,0,0,2.747.338,9.727,9.727,0,0,0,2.736-.338M132.4,57.258a3.6,3.6,0,0,1,.861-1.319,3.946,3.946,0,0,1,1.439-.872,6.153,6.153,0,0,1,2.06-.316,6.721,6.721,0,0,1,2.18.316,3.875,3.875,0,0,1,1.482.872,3.3,3.3,0,0,1,.839,1.319,5.18,5.18,0,0,1,.272,1.689,5.748,5.748,0,0,1-.24,1.711A3.572,3.572,0,0,1,140.5,62.1a3.812,3.812,0,0,1-1.471.992,6.062,6.062,0,0,1-2.289.371,5.008,5.008,0,0,1-1.995-.371,4.725,4.725,0,0,1-1.471-.992,4.1,4.1,0,0,1-.894-1.439,4.973,4.973,0,0,1-.011-3.4m-20.97,4.8a6.576,6.576,0,0,0,1.918,2.1,8.131,8.131,0,0,0,2.659,1.221,11.36,11.36,0,0,0,2.932.392,9.574,9.574,0,0,0,1.613-.131,9.314,9.314,0,0,0,1.4-.349,9.662,9.662,0,0,0,1.144-.447,8.935,8.935,0,0,0,.861-.436l-.785-1.995q-.376.147-.85.327c-.316.12-.654.229-1.035.338s-.763.2-1.166.272a7.773,7.773,0,0,1-1.253.109,6.943,6.943,0,0,1-1.962-.283,5.265,5.265,0,0,1-1.689-.861,4.526,4.526,0,0,1-1.2-1.406,3.931,3.931,0,0,1-.458-1.918,3.382,3.382,0,0,1,.48-1.82,4.414,4.414,0,0,1,1.253-1.33,5.545,5.545,0,0,1,1.755-.828,7.376,7.376,0,0,1,2.016-.272,7.658,7.658,0,0,1,.872.044c.283.033.589.087.9.153s.665.163,1.046.283.807.262,1.3.436l.872-1.918a4.837,4.837,0,0,0-.73-.371,10.9,10.9,0,0,0-1.177-.436,10.233,10.233,0,0,0-1.482-.349,8.963,8.963,0,0,0-1.613-.142,9.891,9.891,0,0,0-1.831.174,11.8,11.8,0,0,0-1.886.512,9.726,9.726,0,0,0-1.787.883,7.282,7.282,0,0,0-1.493,1.264,5.687,5.687,0,0,0-1.014,1.657,5.532,5.532,0,0,0-.381,2.082,6,6,0,0,0,.741,3.052" transform="translate(9.937 4.154)" fill="#629ea1"/>
        <path id="Path_9416" data-name="Path 9416" d="M106.743,27.834a8.94,8.94,0,0,0-3.728-.512,10.153,10.153,0,0,0-4.85,1.406c-2.921,1.918-3.629,3.64-4.61,7.15-.719,2.594-1.373,6.714-2.213,11.51a15.151,15.151,0,0,0-7.063-8.621c-.033-5.482-.163-30.256-.207-31.063-.076-1.46-.305-2.845-2.256-3.52a1.833,1.833,0,0,0-1.591.065c-.861.447-.916,1.515-1.014,3.826-.033.763-.381,22.267-.6,29a13.088,13.088,0,0,0-2.474-.142c-.458-7.542-.665-31.444-.73-32.534s.033-2.583-.632-3.379a1.727,1.727,0,0,0-2.1-.305c-2.038.785-2.289,2.932-2.234,5.45.055,2.213-.065,25.57.207,31.248-.229.022-.469.054-.708.1-.643.087-1.275.207-1.907.349,0,0-1.264-27.771-1.319-28.752s-.044-2.2-.7-2.649a1.734,1.734,0,0,0-1.537-.054,3.725,3.725,0,0,0-2.213,3.771c-.044.763.153,29.657.153,29.657-2.616,1.243-2.747-5.417-3.03-10.888-.24-4.687-.523-10.289-.654-11.422-.12-1.057-.436-1.907-1.439-1.842a3.058,3.058,0,0,0-2.332,1.689,6.458,6.458,0,0,0-.5,2.856c-.011.73-.109,11.946-.109,11.946.1,1.8.044,3.935.1,6.125.065,2.932.163,9.035.305,11.956.283,5.809,2.3,11.085,5.3,14.256a17.691,17.691,0,0,0,10.561,5.678,25.033,25.033,0,0,0,13.253-1.166,19.174,19.174,0,0,0,7.924-5.755,22.6,22.6,0,0,0,4.381-8.109c.883-2.5,1.657-8.273,2.082-11.292a74.515,74.515,0,0,1,2.082-9.384,6.729,6.729,0,0,1,5.929-4.97c.251,0,.785-.022.785-.022V27.954s-.2-.087-.305-.131M82.492,62.7a18.035,18.035,0,0,1-12.741.436c-8.458-3.03-8.883-9.352-8.839-11.488.109-5.014,5.319-9.591,13.559-10.016.338-.022.654-.033.959-.044,1.918-.033,6.3.207,9.144,2.758,6.4,5.766,4.349,13.722.5,16.828a9.371,9.371,0,0,1-2.583,1.537" transform="translate(4.876 -0.514)" fill="#629ea1"/>
        <path id="Path_9417" data-name="Path 9417" d="M.3,27.834a8.94,8.94,0,0,1,3.728-.512,10.153,10.153,0,0,1,4.85,1.406c2.921,1.918,3.629,3.64,4.61,7.15.719,2.594,1.373,6.714,2.213,11.51a15.151,15.151,0,0,1,7.063-8.621c.033-5.482.163-30.256.207-31.063.076-1.46.305-2.845,2.267-3.52a1.838,1.838,0,0,1,1.591.065c.861.447.916,1.515,1.014,3.826.033.763.381,22.267.6,29a13.088,13.088,0,0,1,2.474-.142c.458-7.542.665-31.444.73-32.534s-.022-2.583.632-3.379a1.727,1.727,0,0,1,2.1-.305c2.038.785,2.289,2.932,2.234,5.45-.044,2.213.076,25.57-.2,31.248.229.022.469.054.708.1.643.087,1.275.207,1.907.349,0,0,1.264-27.771,1.319-28.752s.044-2.2.687-2.649a1.737,1.737,0,0,1,1.537-.054c2.191.839,2.169,3.008,2.213,3.771s-.153,29.657-.153,29.657c2.616,1.243,2.747-5.417,3.03-10.888.24-4.687.523-10.289.654-11.422.12-1.057.436-1.907,1.439-1.842A3.058,3.058,0,0,1,52.1,17.371a6.458,6.458,0,0,1,.5,2.856c.022.73.109,11.946.109,11.946-.1,1.8-.044,3.935-.1,6.125-.065,2.932-.174,9.035-.305,11.956-.283,5.809-2.289,11.085-5.3,14.256a17.663,17.663,0,0,1-10.561,5.678A24.992,24.992,0,0,1,23.2,69.022a19.174,19.174,0,0,1-7.924-5.755A22.436,22.436,0,0,1,10.9,55.158c-.894-2.5-1.668-8.273-2.093-11.292a72.652,72.652,0,0,0-2.082-9.384,6.729,6.729,0,0,0-5.929-4.97c-.251,0-.785-.022-.785-.022V27.954s.2-.087.305-.131M24.566,62.7a18.035,18.035,0,0,0,12.741.436c8.469-3.03,8.883-9.352,8.839-11.488-.109-5.014-5.319-9.591-13.559-10.016-.338-.022-.654-.033-.959-.044-1.918-.033-6.3.207-9.144,2.758-6.409,5.766-4.349,13.722-.5,16.828a9.371,9.371,0,0,0,2.583,1.537" transform="translate(-0.01 -0.514)" fill="#629ea1"/>
      </g>
      <g id="Group_11665" data-name="Group 11665" transform="translate(117.144 0)">
        <rect id="Rectangle_32219" data-name="Rectangle 32219" width="4.534" height="22.507" transform="translate(1.21 0.305)" fill="#414042"/>
        <path id="Path_9418" data-name="Path 9418" d="M131.966,22.787h-4.534L120.794,8.029V22.787H116.26V.28h4.534l6.649,14.779V.28h4.523Z" transform="translate(-106.69 0.025)" fill="#414042"/>
        <path id="Path_9419" data-name="Path 9419" d="M138.544,4.072V19.026h1.362a3.812,3.812,0,0,0,3.193-1.2,7.177,7.177,0,0,0,.97-4.131V9.783a8.069,8.069,0,0,0-.872-4.392,3.559,3.559,0,0,0-3-1.308h-1.657ZM134.01,22.786V.29h5.94A8.185,8.185,0,0,1,146.228,2.8a9.83,9.83,0,0,1,2.387,6.867v3.651a9.925,9.925,0,0,1-2.332,6.965,8.326,8.326,0,0,1-6.441,2.529h-5.82Z" transform="translate(-105.094 0.026)" fill="#414042"/>
        <rect id="Rectangle_32220" data-name="Rectangle 32220" width="4.534" height="22.507" transform="translate(46.976 0.305)" fill="#414042"/>
        <path id="Path_9420" data-name="Path 9420" d="M173.549,20.262a8.289,8.289,0,0,1-3.215,2.136,11.739,11.739,0,0,1-4.174.719,7.636,7.636,0,0,1-6.016-2.4q-2.142-2.4-2.213-7V9.668c0-3.1.676-5.493,2.027-7.161A7.175,7.175,0,0,1,165.876,0a7.592,7.592,0,0,1,5.515,1.809c1.243,1.21,1.951,3.1,2.158,5.678h-4.414a5.265,5.265,0,0,0-.894-2.932,2.844,2.844,0,0,0-2.223-.785,2.887,2.887,0,0,0-2.67,1.352,8.468,8.468,0,0,0-.861,4.283v4.076a8.37,8.37,0,0,0,.916,4.469,3.332,3.332,0,0,0,3.019,1.4,3.963,3.963,0,0,0,2.18-.534l.4-.283V14.4h-3.183V10.965h7.728v9.3Z" transform="translate(-102.943 0)" fill="#414042"/>
        <path id="Path_9421" data-name="Path 9421" d="M186.808,13.054h-7.074v5.962H188.1v3.771H175.2V.28h12.872V4.073h-8.338V9.392h7.074Z" transform="translate(-101.39 0.025)" fill="#414042"/>
        <path id="Path_9422" data-name="Path 9422" d="M205.147,22.787H200.6L193.964,8.029V22.787H189.43V.28h4.534l6.649,14.779V.28h4.534Z" transform="translate(-100.111 0.025)" fill="#414042"/>
        <g id="Group_11662" data-name="Group 11662" transform="translate(108.284 0)">
          <path id="Path_9423" data-name="Path 9423" d="M218.481,9.82A9.2,9.2,0,0,0,217.62,5.3a3.188,3.188,0,0,0-5.352-.054,8.818,8.818,0,0,0-.894,4.349v4a8.319,8.319,0,0,0,.883,4.349,3,3,0,0,0,2.714,1.4,2.863,2.863,0,0,0,2.638-1.373,8.17,8.17,0,0,0,.883-4.24V9.809Zm4.556,3.771q0,4.529-2.136,7.03a8.329,8.329,0,0,1-11.88.011,10.365,10.365,0,0,1-2.191-6.943V9.842A11.084,11.084,0,0,1,208.977,2.6a8.1,8.1,0,0,1,11.858-.044q2.158,2.55,2.191,7.183v3.847Z" transform="translate(-206.83 0)" fill="#414042"/>
          <path id="Path_9424" data-name="Path 9424" d="M239.321.28V15.866a7.3,7.3,0,0,1-1.929,5.373,7.459,7.459,0,0,1-5.45,1.864,7.541,7.541,0,0,1-5.515-1.886,7.352,7.352,0,0,1-1.907-5.45V.28h4.567V15.768a4.622,4.622,0,0,0,.621,2.736,2.645,2.645,0,0,0,2.234.817,2.607,2.607,0,0,0,2.223-.817,4.532,4.532,0,0,0,.61-2.659V.28Z" transform="translate(-205.239 0.025)" fill="#414042"/>
          <path id="Path_9425" data-name="Path 9425" d="M250.8,16.916a2.831,2.831,0,0,0-.708-2.082,8.032,8.032,0,0,0-2.55-1.46,11.788,11.788,0,0,1-4.861-3.008,6.022,6.022,0,0,1-1.482-4.076,5.713,5.713,0,0,1,2.016-4.567A7.567,7.567,0,0,1,248.334,0a7.7,7.7,0,0,1,3.684.872,6.105,6.105,0,0,1,2.5,2.463,7.436,7.436,0,0,1,.872,3.619h-4.523a3.72,3.72,0,0,0-.676-2.4,2.349,2.349,0,0,0-1.94-.828,2.424,2.424,0,0,0-1.853.7,2.679,2.679,0,0,0-.665,1.9A2.348,2.348,0,0,0,246.47,8,8.662,8.662,0,0,0,249.1,9.559a11.352,11.352,0,0,1,4.785,2.921,6.511,6.511,0,0,1,1.493,4.4,5.842,5.842,0,0,1-1.864,4.589,7.4,7.4,0,0,1-5.079,1.657,8.732,8.732,0,0,1-3.967-.894,6.725,6.725,0,0,1-2.8-2.572,7.458,7.458,0,0,1-1.014-3.946h4.556a4.343,4.343,0,0,0,.752,2.834,3.093,3.093,0,0,0,2.474.883c1.58,0,2.376-.839,2.376-2.518" transform="translate(-203.789 0)" fill="#414042"/>
        </g>
        <path id="Path_9426" data-name="Path 9426" d="M123.044,30.663H117.5V49.377h-4.556V30.663H107.48V26.87h15.564Z" transform="translate(-107.48 2.416)" fill="#414042"/>
        <g id="Group_11663" data-name="Group 11663" transform="translate(17.373 28.97)">
          <path id="Path_9427" data-name="Path 9427" d="M135.06,36.4a9.2,9.2,0,0,0-.861-4.523,3.188,3.188,0,0,0-5.352-.054,8.818,8.818,0,0,0-.894,4.349v4a8.319,8.319,0,0,0,.883,4.349,2.981,2.981,0,0,0,2.714,1.406,2.863,2.863,0,0,0,2.638-1.373,8.225,8.225,0,0,0,.883-4.24V36.4Zm4.556,3.771q0,4.529-2.136,7.03a8.3,8.3,0,0,1-11.869.022,10.365,10.365,0,0,1-2.191-6.943V36.433a11.116,11.116,0,0,1,2.147-7.248,8.109,8.109,0,0,1,11.869-.044q2.158,2.55,2.191,7.183v3.847Z" transform="translate(-123.42 -26.58)" fill="#414042"/>
          <path id="Path_9428" data-name="Path 9428" d="M155.891,26.87V42.456a7.3,7.3,0,0,1-1.929,5.373,7.442,7.442,0,0,1-5.45,1.864A7.586,7.586,0,0,1,143,47.807a7.308,7.308,0,0,1-1.907-5.45V26.881h4.567V42.369a4.716,4.716,0,0,0,.61,2.736,3.465,3.465,0,0,0,4.458.011,4.6,4.6,0,0,0,.621-2.67V26.881h4.534Z" transform="translate(-121.831 -26.554)" fill="#414042"/>
          <path id="Path_9429" data-name="Path 9429" d="M162.374,37.366h2.583a2.375,2.375,0,0,0,2.038-.9,3.959,3.959,0,0,0,.676-2.42c0-2.256-.883-3.39-2.638-3.39h-2.659v6.7Zm2.256,3.782h-2.256v8.218H157.84V26.87h7.237a7.366,7.366,0,0,1,5.275,1.766,6.621,6.621,0,0,1,1.864,5.035q0,4.48-3.259,6.278l3.935,9.21v.218H168.02l-3.379-8.218Z" transform="translate(-120.325 -26.554)" fill="#414042"/>
        </g>
        <rect id="Rectangle_32221" data-name="Rectangle 32221" width="4.534" height="22.507" transform="translate(72.578 29.286)" fill="#414042"/>
        <path id="Path_9430" data-name="Path 9430" d="M191.28,43.495a2.831,2.831,0,0,0-.708-2.082,8.032,8.032,0,0,0-2.55-1.46,11.787,11.787,0,0,1-4.861-3.008,6.014,6.014,0,0,1-1.482-4.065,5.713,5.713,0,0,1,2.016-4.567,8.353,8.353,0,0,1,8.8-.85,6.04,6.04,0,0,1,2.5,2.463,7.466,7.466,0,0,1,.872,3.619h-4.523a3.753,3.753,0,0,0-.676-2.409,2.335,2.335,0,0,0-1.94-.828,2.465,2.465,0,0,0-1.853.7,2.679,2.679,0,0,0-.665,1.9,2.367,2.367,0,0,0,.741,1.678,8.6,8.6,0,0,0,2.627,1.548,11.235,11.235,0,0,1,4.774,2.921,6.524,6.524,0,0,1,1.482,4.4,5.807,5.807,0,0,1-1.864,4.589,7.33,7.33,0,0,1-5.079,1.657,8.875,8.875,0,0,1-3.967-.894,6.705,6.705,0,0,1-2.8-2.561A7.458,7.458,0,0,1,181.1,42.3h4.556a4.343,4.343,0,0,0,.752,2.834,3.093,3.093,0,0,0,2.474.883c1.58,0,2.376-.839,2.376-2.518" transform="translate(-100.86 2.391)" fill="#414042"/>
        <path id="Path_9431" data-name="Path 9431" d="M203.308,26.87l4.251,16.273,4.229-16.273h5.918V49.377h-4.545V43.3l.414-9.384-4.49,15.466H206l-4.49-15.466.414,9.384v6.082H197.39V26.87Z" transform="translate(-99.395 2.416)" fill="#414042"/>
        <g id="Group_11664" data-name="Group 11664" transform="translate(129.243 28.992)">
          <path id="Path_9432" data-name="Path 9432" d="M230.594,39.589v6.016h2.9a2.3,2.3,0,0,0,1.853-.752,3.235,3.235,0,0,0,.632-2.147q0-3.025-2.191-3.106h-3.193Zm0-3.3h2.365c1.777,0,2.67-.916,2.67-2.768a3.132,3.132,0,0,0-.621-2.191A2.617,2.617,0,0,0,233,30.663h-2.409v5.624Zm-4.534,13.09V26.87H233a8.02,8.02,0,0,1,5.352,1.569,5.714,5.714,0,0,1,1.831,4.6,5.493,5.493,0,0,1-.763,2.954,4.4,4.4,0,0,1-2.071,1.809,3.943,3.943,0,0,1,2.332,1.744,5.958,5.958,0,0,1,.817,3.226,6.433,6.433,0,0,1-1.8,4.948,7.388,7.388,0,0,1-5.21,1.668H226.06Z" transform="translate(-226.06 -26.576)" fill="#414042"/>
          <path id="Path_9433" data-name="Path 9433" d="M257.6,41.9a8.491,8.491,0,0,1-2.158,5.831,7.644,7.644,0,0,1-5.624,1.984,7.092,7.092,0,0,1-5.842-2.507q-2.027-2.518-2.027-7.161V36.257c0-3.1.7-5.471,2.1-7.15a8.292,8.292,0,0,1,11.411-.447,9.329,9.329,0,0,1,2.169,5.907h-4.556a6.139,6.139,0,0,0-.73-3.292,2.91,2.91,0,0,0-2.463-.9,2.767,2.767,0,0,0-2.572,1.275,8.853,8.853,0,0,0-.8,4.2v4.251a9.819,9.819,0,0,0,.752,4.61,2.741,2.741,0,0,0,2.572,1.253,2.925,2.925,0,0,0,2.463-.872,5.758,5.758,0,0,0,.774-3.161h4.534Z" transform="translate(-224.631 -26.6)" fill="#414042"/>
        </g>
      </g>
    </g>
  </g>
</svg>
