<svg xmlns="http://www.w3.org/2000/svg" width="350" height="23.487" viewBox="0 0 350 23.487">
  <g id="Justice_Canada_Logo" transform="translate(-0.5 -0.8)">
    <g id="XMLID_1_" transform="translate(0.5 0.8)">
      <rect id="XMLID_3_" width="11.5" height="22.487" fill="#e73137"/>
      <rect id="XMLID_4_" width="11.5" height="22.487" transform="translate(37.1)" fill="#e73137"/>
      <path id="XMLID_5_" d="M23.2,5.532,24.8,2.3l1.6,3.042c.2.285.4.285.7.1l1.4-.665-.9,4.278c-.2.856.3,1.046.9.475l2-2L31,8.669c.2.38.4.285.8.19l2.1-.38-.7,2.471v.1c-.1.285-.2.57.1.76l.7.38-4.3,3.422c-.4.38-.3.57-.1,1.046l.4,1.141-4-.665c-.5-.1-.8-.1-.8.285l.2,4.373H24.2l.2-4.373c0-.38-.3-.38-1.1-.285l-3.7.665.5-1.141c.2-.475.2-.76-.2-1.046l-4.4-3.422.8-.475c.2-.19.2-.38.1-.76l-.8-2.567,2.1.38c.6.1.7,0,.9-.285l.6-1.141,2.1,2.186c.4.38.9.1.7-.475L21,4.391l1.5.856c.3.475.6.475.7.285" transform="translate(-0.5 -0.8)" fill="#e73137"/>
      <path id="XMLID_6_" d="M68.2,2.3h1.9l2.8,8.2,2.8-8.2h1.9V12H76.3V3.8L73.5,12H72.2L69.4,3.8V12H68.1l.1-9.7h0Z" transform="translate(-3.371 -0.8)"/>
      <path id="XMLID_9_" d="M79.7,2.3h1.2V3.6H79.7Zm0,2.7h1.2v7H79.7Z" transform="translate(-3.786 -0.8)"/>
      <path id="XMLID_10_" d="M83,4.9h1.1v1A3.126,3.126,0,0,1,85.2,5a2.663,2.663,0,0,1,1.2-.3,1.993,1.993,0,0,1,2,1.1,3.506,3.506,0,0,1,.3,1.6v4.5H87.5V7.4a2.509,2.509,0,0,0-.2-1,1.273,1.273,0,0,0-1.2-.7,1.483,1.483,0,0,0-.7.1,2.361,2.361,0,0,0-.9.6,2.507,2.507,0,0,0-.4.7A3.11,3.11,0,0,0,84,8.2v3.7H83v-7Z" transform="translate(-3.966 -1.028)"/>
      <path id="XMLID_13_" d="M90.9,2.3h1.2V3.6H90.9Zm0,2.7h1.2v7H90.9Z" transform="translate(-4.251 -0.8)"/>
      <path id="XMLID_14_" d="M95,9.8a1.222,1.222,0,0,0,.3.9,1.84,1.84,0,0,0,1.6.6,2.663,2.663,0,0,0,1.2-.3,1.05,1.05,0,0,0,.5-.9.755.755,0,0,0-.4-.7,4.053,4.053,0,0,0-1-.3l-1-.2a7.172,7.172,0,0,1-1.4-.5A1.561,1.561,0,0,1,94,7.1a1.865,1.865,0,0,1,.7-1.6,2.986,2.986,0,0,1,2-.6,2.613,2.613,0,0,1,2.3.9,2.01,2.01,0,0,1,.4,1.3H98.3a.908.908,0,0,0-.3-.7,2.07,2.07,0,0,0-1.5-.5,1.327,1.327,0,0,0-1,.3,1.012,1.012,0,0,0-.4.7.752.752,0,0,0,.5.7,3.385,3.385,0,0,0,.8.3l.8.2a6.044,6.044,0,0,1,1.8.6,1.513,1.513,0,0,1,.7,1.4,1.99,1.99,0,0,1-.7,1.6,2.918,2.918,0,0,1-2.2.7,3.024,3.024,0,0,1-2.3-.7,2.875,2.875,0,0,1-.7-1.8H95Z" transform="translate(-4.422 -1.044)"/>
      <path id="XMLID_15_" d="M101.6,3h1.2V5h1.1V6h-1.1v4.6a.55.55,0,0,0,.3.5,2.034,2.034,0,0,0,.5.1h.4v.9c-.1,0-.3.1-.4.1h-.5c-.6,0-.9-.1-1.1-.4a2.016,2.016,0,0,1-.3-1.1V6h-1V5h1l-.1-2h0Z" transform="translate(-4.682 -0.8)"/>
      <path id="XMLID_19_" d="M109.9,5.1A2.445,2.445,0,0,1,111,6a6.117,6.117,0,0,1,.5,1.2,6.22,6.22,0,0,1,.1,1.6h-5.1a2.86,2.86,0,0,0,.5,1.7,1.806,1.806,0,0,0,1.5.7,2.035,2.035,0,0,0,1.5-.6,1.235,1.235,0,0,0,.4-.8h1.2a1.9,1.9,0,0,1-.3.9,5.547,5.547,0,0,1-.6.8,2.389,2.389,0,0,1-1.3.7,3.083,3.083,0,0,1-1,.1,2.7,2.7,0,0,1-2.2-1,3.667,3.667,0,0,1-.9-2.7,4.277,4.277,0,0,1,.9-2.8,3.043,3.043,0,0,1,2.4-1.1c.3.1.8.2,1.3.4Zm.4,2.8a3.5,3.5,0,0,0-.3-1.2,1.7,1.7,0,0,0-1.6-.9,1.974,1.974,0,0,0-1.4.6,2.035,2.035,0,0,0-.6,1.5ZM109.2,4h-.9l-1.8-1.9H108L109.2,4Z" transform="translate(-4.91 -0.8)"/>
      <path id="XMLID_20_" d="M113.4,4.9h1.1V6.1a3.632,3.632,0,0,1,.7-.9,2.078,2.078,0,0,1,1.2-.5h.4V6h-.4a1.678,1.678,0,0,0-1.4.6,2.106,2.106,0,0,0-.5,1.3V12h-1.2l.1-7.1Z" transform="translate(-5.21 -1.03)"/>
      <path id="XMLID_23_" d="M122.6,5.1a2.445,2.445,0,0,1,1.1.9,6.117,6.117,0,0,1,.5,1.2,6.22,6.22,0,0,1,.1,1.6h-5.1a2.86,2.86,0,0,0,.5,1.7,1.806,1.806,0,0,0,1.5.7,2.035,2.035,0,0,0,1.5-.6,1.235,1.235,0,0,0,.4-.8h1.2a1.9,1.9,0,0,1-.3.9,5.547,5.547,0,0,1-.6.8,2.389,2.389,0,0,1-1.3.7,3.083,3.083,0,0,1-1,.1,2.7,2.7,0,0,1-2.2-1,3.667,3.667,0,0,1-.9-2.7,4.277,4.277,0,0,1,.9-2.8,3.043,3.043,0,0,1,2.4-1.1,6.468,6.468,0,0,1,1.3.4Zm.4,2.8a3.5,3.5,0,0,0-.3-1.2,1.7,1.7,0,0,0-1.6-.9,1.974,1.974,0,0,0-1.4.6,2.035,2.035,0,0,0-.6,1.5Z" transform="translate(-5.445 -1.034)"/>
      <path id="XMLID_26_" d="M134.1,5.2a4.515,4.515,0,0,1,.7.7V2.3h1.1V12h-1.1V11a2.126,2.126,0,0,1-1,.9,2.768,2.768,0,0,1-1.3.3,2.334,2.334,0,0,1-2-1,3.739,3.739,0,0,1-.9-2.6,5.029,5.029,0,0,1,.8-2.7,2.422,2.422,0,0,1,2.2-1.1,2.076,2.076,0,0,1,1.5.4Zm-2.6,5.3a1.645,1.645,0,0,0,1.5.8,1.746,1.746,0,0,0,1.4-.7,3.146,3.146,0,0,0,.5-2,3.439,3.439,0,0,0-.5-2,1.76,1.76,0,0,0-1.3-.6,1.513,1.513,0,0,0-1.4.7,2.986,2.986,0,0,0-.6,2,2.827,2.827,0,0,0,.4,1.8Z" transform="translate(-5.933 -0.8)"/>
      <path id="XMLID_29_" d="M142.5,5.1a2.445,2.445,0,0,1,1.1.9,6.118,6.118,0,0,1,.5,1.2,6.219,6.219,0,0,1,.1,1.6H139a2.86,2.86,0,0,0,.5,1.7,1.806,1.806,0,0,0,1.5.7,2.035,2.035,0,0,0,1.5-.6,1.235,1.235,0,0,0,.4-.8h1.2a1.9,1.9,0,0,1-.3.9,5.546,5.546,0,0,1-.6.8,2.389,2.389,0,0,1-1.3.7,3.083,3.083,0,0,1-1,.1,2.7,2.7,0,0,1-2.2-1,3.667,3.667,0,0,1-.9-2.7,4.277,4.277,0,0,1,.9-2.8,3.043,3.043,0,0,1,2.4-1.1,10.261,10.261,0,0,1,1.4.4Zm.4,2.8a3.5,3.5,0,0,0-.3-1.2,1.7,1.7,0,0,0-1.6-.9,1.974,1.974,0,0,0-1.4.6,2.035,2.035,0,0,0-.6,1.5h3.9Z" transform="translate(-6.28 -1.034)"/>
      <rect id="XMLID_30_" width="1.2" height="9.7" transform="translate(143.392 1.5)"/>
      <path id="XMLID_33_" d="M157.3,7.7c.3,0,.5-.1.5-.3a.749.749,0,0,0,.1-.5.975.975,0,0,0-.4-.9,2.133,2.133,0,0,0-1.2-.3,1.578,1.578,0,0,0-1.3.5,6.89,6.89,0,0,0-.3.8h-1.1a1.95,1.95,0,0,1,.8-1.8,3.83,3.83,0,0,1,1.9-.5,3.939,3.939,0,0,1,2,.5,1.645,1.645,0,0,1,.8,1.5v4.1a.354.354,0,0,0,.4.4h.4v.9a.756.756,0,0,1-.4.1h-.4a.975.975,0,0,1-.9-.4,1.445,1.445,0,0,1-.2-.7,2.723,2.723,0,0,1-1,.8,4.191,4.191,0,0,1-1.5.4,2.111,2.111,0,0,1-1.6-.6,2.035,2.035,0,0,1-.6-1.5,1.755,1.755,0,0,1,.6-1.5,2.637,2.637,0,0,1,1.6-.7l1.8-.3ZM154.8,11a1.4,1.4,0,0,0,.9.3,2.663,2.663,0,0,0,1.2-.3,1.543,1.543,0,0,0,1-1.6v-1a.845.845,0,0,1-.6.2,1.7,1.7,0,0,1-.7.1l-.7.1c-.4.1-.8.1-1,.3a1,1,0,0,0-.6,1,1.346,1.346,0,0,0,.5.9Z" transform="translate(-6.936 -1.034)"/>
      <path id="XMLID_34_" d="M170.4,9.1A3.361,3.361,0,0,1,170,11a2.651,2.651,0,0,1-2.6,1.2,3.292,3.292,0,0,1-1.9-.6,2.294,2.294,0,0,1-.8-2.1V8.8h1.2v.7a1.594,1.594,0,0,0,.4,1.2,1.246,1.246,0,0,0,1.1.4c.7,0,1.2-.2,1.4-.7a5.944,5.944,0,0,0,.2-1.7V2.2h1.3l.1,6.9Z" transform="translate(-7.399 -0.8)"/>
      <path id="XMLID_35_" d="M173.8,4.9V9.6a2,2,0,0,0,.2.9,1.209,1.209,0,0,0,1.2.6,1.541,1.541,0,0,0,1.6-1.1,3.664,3.664,0,0,0,.2-1.6V4.9h1.2V12H177V11a2.036,2.036,0,0,1-.6.7,2.271,2.271,0,0,1-1.6.6c-1,0-1.7-.3-2-1a2.9,2.9,0,0,1-.3-1.4V5.1h1.3V4.9Z" transform="translate(-7.726 -1.043)"/>
      <path id="XMLID_36_" d="M181.2,9.8a1.222,1.222,0,0,0,.3.9,1.84,1.84,0,0,0,1.6.6,2.663,2.663,0,0,0,1.2-.3,1.05,1.05,0,0,0,.5-.9.755.755,0,0,0-.4-.7,4.053,4.053,0,0,0-1-.3l-1-.2a7.172,7.172,0,0,1-1.4-.5,1.561,1.561,0,0,1-.8-1.3,1.865,1.865,0,0,1,.7-1.6,2.986,2.986,0,0,1,2-.6,2.613,2.613,0,0,1,2.3.9,2.01,2.01,0,0,1,.4,1.3h-1.1a.908.908,0,0,0-.3-.7,2.07,2.07,0,0,0-1.5-.5,1.327,1.327,0,0,0-1,.3,1.012,1.012,0,0,0-.4.7.752.752,0,0,0,.5.7,3.385,3.385,0,0,0,.8.3l.8.2a6.044,6.044,0,0,1,1.8.6,1.513,1.513,0,0,1,.7,1.4,1.99,1.99,0,0,1-.7,1.6,2.918,2.918,0,0,1-2.2.7,3.024,3.024,0,0,1-2.3-.7,2.875,2.875,0,0,1-.7-1.8h1.2V9.8Z" transform="translate(-8.046 -1.044)"/>
      <path id="XMLID_37_" d="M187.8,3H189V5h1.1V6H189v4.6a.55.55,0,0,0,.3.5,2.034,2.034,0,0,0,.5.1h.4v.9c-.1,0-.3.1-.4.1h-.5c-.6,0-.9-.1-1.1-.4a2.016,2.016,0,0,1-.3-1.1V6h-1V5h1l-.1-2h0Z" transform="translate(-8.28 -0.8)"/>
      <path id="XMLID_40_" d="M191.7,2.3h1.2V3.6h-1.2Zm0,2.7h1.2v7h-1.2Z" transform="translate(-8.434 -0.8)"/>
      <path id="XMLID_41_" d="M199.7,5.3a2.894,2.894,0,0,1,.9,2h-1.2a2.22,2.22,0,0,0-.5-1.1,1.594,1.594,0,0,0-1.2-.4,1.622,1.622,0,0,0-1.6,1.1,4.844,4.844,0,0,0-.3,1.8,3.425,3.425,0,0,0,.4,1.8,1.513,1.513,0,0,0,1.4.7,1.346,1.346,0,0,0,1.2-.5,2.725,2.725,0,0,0,.6-1.2h1.2a3.471,3.471,0,0,1-1,2.1,3.221,3.221,0,0,1-2,.7,2.574,2.574,0,0,1-2.2-1,3.586,3.586,0,0,1-.8-2.5,4.375,4.375,0,0,1,.9-2.9,2.9,2.9,0,0,1,2.3-1,2.051,2.051,0,0,1,1.9.4Z" transform="translate(-8.662 -1.039)"/>
      <path id="XMLID_44_" d="M206.5,5.1a2.445,2.445,0,0,1,1.1.9,6.118,6.118,0,0,1,.5,1.2,6.219,6.219,0,0,1,.1,1.6H203a2.86,2.86,0,0,0,.5,1.7,1.806,1.806,0,0,0,1.5.7,2.035,2.035,0,0,0,1.5-.6,1.235,1.235,0,0,0,.4-.8h1.2a1.9,1.9,0,0,1-.3.9,2.761,2.761,0,0,1-.6.8,2.389,2.389,0,0,1-1.3.7,3.083,3.083,0,0,1-1,.1,2.7,2.7,0,0,1-2.2-1,3.667,3.667,0,0,1-.9-2.7,4.277,4.277,0,0,1,.9-2.8,3.043,3.043,0,0,1,2.4-1.1,5.732,5.732,0,0,1,1.4.4Zm.5,2.8a3.5,3.5,0,0,0-.3-1.2,1.7,1.7,0,0,0-1.6-.9,1.974,1.974,0,0,0-1.4.6,2.035,2.035,0,0,0-.6,1.5H207Z" transform="translate(-8.974 -1.034)"/>
      <path id="XMLID_45_" d="M75.1,15.4a3.336,3.336,0,0,1,1.1,2.2H74.9a2.371,2.371,0,0,0-.9-1.5,2.427,2.427,0,0,0-1.8-.5,2.9,2.9,0,0,0-2.3,1,4.589,4.589,0,0,0-.9,3.1,4.878,4.878,0,0,0,.8,2.8,2.712,2.712,0,0,0,2.3,1.1,2.529,2.529,0,0,0,2.2-1.1,3.386,3.386,0,0,0,.6-1.5h1.3a4.707,4.707,0,0,1-1.1,2.6A4.143,4.143,0,0,1,72,24.8a3.857,3.857,0,0,1-2.8-1,5.378,5.378,0,0,1-1.5-4.2,5.625,5.625,0,0,1,1.1-3.5,4.061,4.061,0,0,1,3.4-1.5,3.74,3.74,0,0,1,2.9.8Z" transform="translate(-3.346 -1.813)"/>
      <path id="XMLID_48_" d="M82,20.1c.3,0,.5-.1.5-.3a.749.749,0,0,0,.1-.5.975.975,0,0,0-.4-.9,2.133,2.133,0,0,0-1.2-.3,1.578,1.578,0,0,0-1.3.5,6.891,6.891,0,0,0-.3.8H78.3a1.95,1.95,0,0,1,.8-1.8,3.83,3.83,0,0,1,1.9-.5,3.939,3.939,0,0,1,2,.5,1.645,1.645,0,0,1,.8,1.5v4.1a.354.354,0,0,0,.4.4h.4v.9a.756.756,0,0,1-.4.1h-.4a.975.975,0,0,1-.9-.4,1.445,1.445,0,0,1-.2-.7,2.723,2.723,0,0,1-1,.8,4.191,4.191,0,0,1-1.5.4,2.111,2.111,0,0,1-1.6-.6,2.035,2.035,0,0,1-.6-1.5,1.755,1.755,0,0,1,.6-1.5,2.637,2.637,0,0,1,1.6-.7Zm-2.5,3.3a1.4,1.4,0,0,0,.9.3,2.663,2.663,0,0,0,1.2-.3,1.543,1.543,0,0,0,1-1.6v-1a.845.845,0,0,1-.6.2,1.7,1.7,0,0,1-.7.1l-.7.1c-.4.1-.8.1-1,.3a1,1,0,0,0-.6,1,1.346,1.346,0,0,0,.5.9Z" transform="translate(-3.764 -1.813)"/>
      <path id="XMLID_49_" d="M86.1,17.4h1.1v1a3.126,3.126,0,0,1,1.1-.9,2.663,2.663,0,0,1,1.2-.3,1.993,1.993,0,0,1,2,1.1,3.506,3.506,0,0,1,.3,1.6v4.5H90.6V20a2.509,2.509,0,0,0-.2-1,1.273,1.273,0,0,0-1.2-.7,1.483,1.483,0,0,0-.7.1,2.361,2.361,0,0,0-.9.6,2.507,2.507,0,0,0-.4.7,3.11,3.11,0,0,0-.1,1.1v3.7H85.9l.2-7.1h0Z" transform="translate(-4.09 -1.813)"/>
      <path id="XMLID_52_" d="M97.7,20.1c.3,0,.5-.1.5-.3a.749.749,0,0,0,.1-.5.975.975,0,0,0-.4-.9,2.133,2.133,0,0,0-1.2-.3,1.578,1.578,0,0,0-1.3.5,6.891,6.891,0,0,0-.3.8H94a1.95,1.95,0,0,1,.8-1.8,3.83,3.83,0,0,1,1.9-.5,3.939,3.939,0,0,1,2,.5,1.645,1.645,0,0,1,.8,1.5v4.1a.354.354,0,0,0,.4.4h.4v.9a.756.756,0,0,1-.4.1h-.4a.975.975,0,0,1-.9-.4,1.445,1.445,0,0,1-.2-.7,2.723,2.723,0,0,1-1,.8,4.191,4.191,0,0,1-1.5.4,2.111,2.111,0,0,1-1.6-.6,2.035,2.035,0,0,1-.6-1.5,1.755,1.755,0,0,1,.6-1.5,2.637,2.637,0,0,1,1.6-.7Zm-2.5,3.3a1.4,1.4,0,0,0,.9.3,2.663,2.663,0,0,0,1.2-.3,1.543,1.543,0,0,0,1-1.6v-1a.845.845,0,0,1-.6.2,1.7,1.7,0,0,1-.7.1l-.7.1c-.4.1-.8.1-1,.3a1,1,0,0,0-.6,1,3.6,3.6,0,0,0,.5.9Z" transform="translate(-4.426 -1.813)"/>
      <path id="XMLID_55_" d="M105.7,17.6a4.514,4.514,0,0,1,.7.7V14.7h1.1v9.7h-1.1v-1a2.126,2.126,0,0,1-1,.9,2.768,2.768,0,0,1-1.3.3,2.334,2.334,0,0,1-2-1,3.739,3.739,0,0,1-.9-2.6,5.029,5.029,0,0,1,.8-2.7,2.422,2.422,0,0,1,2.2-1.1,2.235,2.235,0,0,1,1.5.4Zm-2.6,5.3a1.645,1.645,0,0,0,1.5.8A1.746,1.746,0,0,0,106,23a3.146,3.146,0,0,0,.5-2,3.439,3.439,0,0,0-.5-2,1.76,1.76,0,0,0-1.3-.6,1.513,1.513,0,0,0-1.4.7,2.986,2.986,0,0,0-.6,2,2.319,2.319,0,0,0,.4,1.8Z" transform="translate(-4.738 -1.813)"/>
      <path id="XMLID_58_" d="M113.5,20.1c.3,0,.5-.1.5-.3a.749.749,0,0,0,.1-.5.975.975,0,0,0-.4-.9,2.133,2.133,0,0,0-1.2-.3,1.578,1.578,0,0,0-1.3.5,6.891,6.891,0,0,0-.3.8h-1.1a1.95,1.95,0,0,1,.8-1.8,3.83,3.83,0,0,1,1.9-.5,3.939,3.939,0,0,1,2,.5,1.645,1.645,0,0,1,.8,1.5v4.1a.354.354,0,0,0,.4.4h.4v.9a.756.756,0,0,1-.4.1h-.4a.975.975,0,0,1-.9-.4,1.445,1.445,0,0,1-.2-.7,2.723,2.723,0,0,1-1,.8,4.191,4.191,0,0,1-1.5.4,2.111,2.111,0,0,1-1.6-.6,2.035,2.035,0,0,1-.6-1.5,1.755,1.755,0,0,1,.6-1.5,2.637,2.637,0,0,1,1.6-.7ZM111,23.4a1.4,1.4,0,0,0,.9.3,2.663,2.663,0,0,0,1.2-.3,1.543,1.543,0,0,0,1-1.6v-1a.845.845,0,0,1-.6.2,1.7,1.7,0,0,1-.7.1l-.7.1c-.4.1-.8.1-1,.3a1,1,0,0,0-.6,1,1.346,1.346,0,0,0,.5.9Z" transform="translate(-5.091 -1.813)"/>
      <path id="XMLID_61_" d="M228.6,2.8h3.9a3.95,3.95,0,0,1,3.1,1.4,5.622,5.622,0,0,1,1,3.3,6.388,6.388,0,0,1-.6,2.8,3.5,3.5,0,0,1-3.5,2.2h-3.9V2.8h0Zm3.6,8.6a3.75,3.75,0,0,0,1.1-.1,2.335,2.335,0,0,0,1.2-1,3.33,3.33,0,0,0,.5-1.5,3.751,3.751,0,0,0,.1-1,4.654,4.654,0,0,0-.7-2.8,2.531,2.531,0,0,0-2.3-1h-2.3v7.5h2.4v-.1Z" transform="translate(-10.145 -0.8)"/>
      <path id="XMLID_64_" d="M242.8,5.7a2.445,2.445,0,0,1,1.1.9,6.118,6.118,0,0,1,.5,1.2,6.219,6.219,0,0,1,.1,1.6h-5.1a2.86,2.86,0,0,0,.5,1.7,1.806,1.806,0,0,0,1.5.7,2.035,2.035,0,0,0,1.5-.6,1.235,1.235,0,0,0,.4-.8h1.2a1.9,1.9,0,0,1-.3.9,5.546,5.546,0,0,1-.6.8,2.389,2.389,0,0,1-1.3.7,3.083,3.083,0,0,1-1,.1,2.7,2.7,0,0,1-2.2-1,3.667,3.667,0,0,1-.9-2.7,4.277,4.277,0,0,1,.9-2.8,3.043,3.043,0,0,1,2.4-1.1,2.2,2.2,0,0,1,1.3.4Zm.5,2.7a3.5,3.5,0,0,0-.3-1.2,1.7,1.7,0,0,0-1.6-.9,1.974,1.974,0,0,0-1.4.6,2.035,2.035,0,0,0-.6,1.5h3.9Z" transform="translate(-10.504 -1.07)"/>
      <path id="XMLID_67_" d="M246.2,5.5h1.2v.9a1.779,1.779,0,0,1,.8-.7,2.3,2.3,0,0,1,1.4-.4,2.518,2.518,0,0,1,2,.9,3.537,3.537,0,0,1,.8,2.6,4.163,4.163,0,0,1-1.2,3.3,2.792,2.792,0,0,1-1.8.6,1.844,1.844,0,0,1-1.3-.4,4.515,4.515,0,0,1-.7-.7v3.6h-1.2V5.5h0Zm4.5,5.5a3.281,3.281,0,0,0,.6-2.1,6.8,6.8,0,0,0-.2-1.5,1.8,1.8,0,0,0-3.4,0,4.164,4.164,0,0,0-.2,1.7,5.9,5.9,0,0,0,.2,1.4,1.751,1.751,0,0,0,1.7,1.1,1.2,1.2,0,0,0,1.3-.6Z" transform="translate(-10.837 -1.112)"/>
      <path id="XMLID_70_" d="M258,8.3c.3,0,.5-.1.5-.3a.749.749,0,0,0,.1-.5.975.975,0,0,0-.4-.9,2.133,2.133,0,0,0-1.2-.3,1.578,1.578,0,0,0-1.3.5,6.89,6.89,0,0,0-.3.8h-1.1a1.95,1.95,0,0,1,.8-1.8,3.83,3.83,0,0,1,1.9-.5,3.939,3.939,0,0,1,2,.5,1.645,1.645,0,0,1,.8,1.5v4.1a.354.354,0,0,0,.4.4h.4v.9a.756.756,0,0,1-.4.1h-.4a.975.975,0,0,1-.9-.4,1.445,1.445,0,0,1-.2-.7,2.723,2.723,0,0,1-1,.8,4.191,4.191,0,0,1-1.5.4,2.111,2.111,0,0,1-1.6-.6,2.035,2.035,0,0,1-.6-1.5,1.755,1.755,0,0,1,.6-1.5,2.637,2.637,0,0,1,1.6-.7Zm-2.5,3.2a1.4,1.4,0,0,0,.9.3,2.663,2.663,0,0,0,1.2-.3,1.543,1.543,0,0,0,1-1.6v-1a.845.845,0,0,1-.6.2,1.7,1.7,0,0,1-.7.1l-.7.1c-.4.1-.8.1-1,.3a1,1,0,0,0-.6,1,1.934,1.934,0,0,0,.5.9Z" transform="translate(-11.177 -1.07)"/>
      <path id="XMLID_71_" d="M262.1,5.5h1.1V6.7a3.632,3.632,0,0,1,.7-.9,2.078,2.078,0,0,1,1.2-.5h.4V6.6h-.4a1.678,1.678,0,0,0-1.4.6,2.106,2.106,0,0,0-.5,1.3v4.1H262l.1-7.1h0Z" transform="translate(-11.42 -1.065)"/>
      <path id="XMLID_72_" d="M267.2,3.5h1.2v2h1.1v1h-1.1v4.6a.55.55,0,0,0,.3.5,2.035,2.035,0,0,0,.5.1h.4v.9c-.1,0-.3.1-.4.1h-.5c-.6,0-.9-.1-1.1-.4a2.016,2.016,0,0,1-.3-1.1V6.5h-1v-1h1l-.1-2h0Z" transform="translate(-11.593 -0.8)"/>
      <path id="XMLID_73_" d="M271.1,5.5h1.2v1a6.034,6.034,0,0,1,.8-.8,2.01,2.01,0,0,1,1.3-.4,2.116,2.116,0,0,1,1.4.4,1.794,1.794,0,0,1,.5.7,2.166,2.166,0,0,1,.9-.8,2.663,2.663,0,0,1,1.2-.3c1,0,1.6.3,1.9,1a3.339,3.339,0,0,1,.3,1.5v4.7h-1.2V7.6a1.053,1.053,0,0,0-.4-1,1.222,1.222,0,0,0-.9-.3,1.656,1.656,0,0,0-1.2.5,2.173,2.173,0,0,0-.5,1.6v4.1h-1.2V7.9a3.087,3.087,0,0,0-.2-1.1,1.1,1.1,0,0,0-1-.5,1.845,1.845,0,0,0-1.2.5,2.4,2.4,0,0,0-.6,1.9v3.8H271l.1-7h0Z" transform="translate(-11.99 -1.064)"/>
      <path id="XMLID_76_" d="M287.1,5.7a2.445,2.445,0,0,1,1.1.9,6.117,6.117,0,0,1,.5,1.2,6.219,6.219,0,0,1,.1,1.6h-5.1a2.86,2.86,0,0,0,.5,1.7,1.806,1.806,0,0,0,1.5.7,2.035,2.035,0,0,0,1.5-.6,1.234,1.234,0,0,0,.4-.8h1.2a1.9,1.9,0,0,1-.3.9,5.547,5.547,0,0,1-.6.8,2.389,2.389,0,0,1-1.3.7,3.083,3.083,0,0,1-1,.1,2.7,2.7,0,0,1-2.2-1,3.667,3.667,0,0,1-.9-2.7,4.277,4.277,0,0,1,.9-2.8,3.043,3.043,0,0,1,2.4-1.1A2.686,2.686,0,0,1,287.1,5.7Zm.4,2.7a3.5,3.5,0,0,0-.3-1.2,1.7,1.7,0,0,0-1.6-.9,1.974,1.974,0,0,0-1.4.6,2.035,2.035,0,0,0-.6,1.5Z" transform="translate(-12.368 -1.07)"/>
      <path id="XMLID_77_" d="M290.6,5.5h1.1v1a3.126,3.126,0,0,1,1.1-.9,2.663,2.663,0,0,1,1.2-.3,1.993,1.993,0,0,1,2,1.1,3.506,3.506,0,0,1,.3,1.6v4.5h-1.2V8a2.509,2.509,0,0,0-.2-1,1.273,1.273,0,0,0-1.2-.7,1.483,1.483,0,0,0-.7.1,2.361,2.361,0,0,0-.9.6,2.506,2.506,0,0,0-.4.7,3.11,3.11,0,0,0-.1,1.1v3.7h-1.2l.2-7h0Z" transform="translate(-12.687 -1.064)"/>
      <path id="XMLID_78_" d="M298.7,3.5h1.2v2H301v1h-1.1v4.6a.55.55,0,0,0,.3.5,2.035,2.035,0,0,0,.5.1h.4v.9c-.1,0-.3.1-.4.1h-.5c-.6,0-.9-.1-1.1-.4a2.016,2.016,0,0,1-.3-1.1V6.5h-1v-1h1l-.1-2h0Z" transform="translate(-15.6 -0.8)"/>
      <path id="XMLID_81_" d="M311.8,6.2a3.667,3.667,0,0,1,.9,2.7,4.878,4.878,0,0,1-.8,2.8,3.174,3.174,0,0,1-2.6,1.1,2.765,2.765,0,0,1-2.3-1,3.829,3.829,0,0,1-.9-2.7,4.1,4.1,0,0,1,.9-2.8,3.043,3.043,0,0,1,2.4-1.1,3.768,3.768,0,0,1,2.4,1Zm-.7,4.7a4.477,4.477,0,0,0,.4-2,3.506,3.506,0,0,0-.3-1.6,1.673,1.673,0,0,0-1.7-1,1.943,1.943,0,0,0-1.6.8,4.228,4.228,0,0,0-.5,2,3.557,3.557,0,0,0,.5,1.9,1.933,1.933,0,0,0,3.2-.1Z" transform="translate(-15.6 -1.064)"/>
      <path id="XMLID_82_" d="M315.1,3.3a1.84,1.84,0,0,1,1.6-.6h.5V3.8h-.5c-.4,0-.6.1-.7.3a4.545,4.545,0,0,0-.1,1.4h1.2v.9H316v6.1h-1.2V6.4h-1V5.5h1V4.4a5.309,5.309,0,0,1,.3-1.1Z" transform="translate(-15.6 -0.8)"/>
      <path id="XMLID_83_" d="M327.7,9.6a3.361,3.361,0,0,1-.4,1.9,2.751,2.751,0,0,1-2.6,1.2,3.292,3.292,0,0,1-1.9-.6A2.564,2.564,0,0,1,322,10V9.3h1.2V10a1.594,1.594,0,0,0,.4,1.2,1.246,1.246,0,0,0,1.1.4c.7,0,1.2-.2,1.4-.7a5.944,5.944,0,0,0,.2-1.7V2.7h1.3l.1,6.9h0Z" transform="translate(-15.6 -0.8)"/>
      <path id="XMLID_84_" d="M331.1,5.5v4.7a2,2,0,0,0,.2.9,1.209,1.209,0,0,0,1.2.6,1.541,1.541,0,0,0,1.6-1.1,3.664,3.664,0,0,0,.2-1.6V5.5h1.2v7.1h-1.1v-1a2.036,2.036,0,0,1-.6.7,2.271,2.271,0,0,1-1.6.6c-1,0-1.7-.3-2-1a2.9,2.9,0,0,1-.3-1.4V5.7h1.2V5.5Z" transform="translate(-15.6 -1.079)"/>
      <path id="XMLID_85_" d="M338.5,10.3a1.222,1.222,0,0,0,.3.9,1.84,1.84,0,0,0,1.6.6,2.663,2.663,0,0,0,1.2-.3,1.05,1.05,0,0,0,.5-.9.755.755,0,0,0-.4-.7,4.053,4.053,0,0,0-1-.3l-1-.2a3.754,3.754,0,0,1-1.4-.5,1.561,1.561,0,0,1-.8-1.3,1.865,1.865,0,0,1,.7-1.6,2.986,2.986,0,0,1,2-.6,2.613,2.613,0,0,1,2.3.9,2.01,2.01,0,0,1,.4,1.3h-1.1a.908.908,0,0,0-.3-.7,2.07,2.07,0,0,0-1.5-.5,1.327,1.327,0,0,0-1,.3,1.012,1.012,0,0,0-.4.7.752.752,0,0,0,.5.7,3.386,3.386,0,0,0,.8.3l.8.2a6.044,6.044,0,0,1,1.8.6,1.513,1.513,0,0,1,.7,1.4,1.99,1.99,0,0,1-.7,1.6,2.918,2.918,0,0,1-2.2.7,3.024,3.024,0,0,1-2.3-.7,2.41,2.41,0,0,1-.7-1.8h1.2Z" transform="translate(-15.6 -1.074)"/>
      <path id="XMLID_86_" d="M345.1,3.5h1.2v2h1.1v1h-1.1v4.6a.55.55,0,0,0,.3.5,2.035,2.035,0,0,0,.5.1h.4v.9c-.1,0-.3.1-.4.1h-.5c-.6,0-.9-.1-1.1-.4a2.016,2.016,0,0,1-.3-1.1V6.5h-1v-1h1l-.1-2h0Z" transform="translate(-15.6 -0.8)"/>
      <path id="XMLID_89_" d="M349,2.8h1.2V4.1H349Zm0,2.7h1.2v7H349Z" transform="translate(-15.6 -0.8)"/>
      <path id="XMLID_90_" d="M357,5.8a2.894,2.894,0,0,1,.9,2h-1.2a2.22,2.22,0,0,0-.5-1.1,1.594,1.594,0,0,0-1.2-.4,1.622,1.622,0,0,0-1.6,1.1,4.844,4.844,0,0,0-.3,1.8,3.425,3.425,0,0,0,.4,1.8,1.513,1.513,0,0,0,1.4.7,1.346,1.346,0,0,0,1.2-.5,2.281,2.281,0,0,0,.6-1.2h1.2a3.471,3.471,0,0,1-1,2.1,2.724,2.724,0,0,1-2,.7,2.574,2.574,0,0,1-2.2-1,3.586,3.586,0,0,1-.8-2.5,4.374,4.374,0,0,1,.9-2.9,2.9,2.9,0,0,1,2.3-1,2.84,2.84,0,0,1,1.9.4Z" transform="translate(-15.6 -1.071)"/>
      <path id="XMLID_93_" d="M363.9,5.7a2.445,2.445,0,0,1,1.1.9,6.117,6.117,0,0,1,.5,1.2,6.219,6.219,0,0,1,.1,1.6h-5.1a2.86,2.86,0,0,0,.5,1.7,1.806,1.806,0,0,0,1.5.7,2.035,2.035,0,0,0,1.5-.6,1.234,1.234,0,0,0,.4-.8h1.2a1.9,1.9,0,0,1-.3.9,5.547,5.547,0,0,1-.6.8,2.389,2.389,0,0,1-1.3.7,3.083,3.083,0,0,1-1,.1,2.7,2.7,0,0,1-2.2-1,3.667,3.667,0,0,1-.9-2.7,4.277,4.277,0,0,1,.9-2.8,3.043,3.043,0,0,1,2.4-1.1A2.686,2.686,0,0,1,363.9,5.7Zm.4,2.7a3.5,3.5,0,0,0-.3-1.2,1.7,1.7,0,0,0-1.6-.9,1.974,1.974,0,0,0-1.4.6,2.035,2.035,0,0,0-.6,1.5Z" transform="translate(-15.6 -1.07)"/>
      <path id="XMLID_94_" d="M235.4,15.9a3.336,3.336,0,0,1,1.1,2.2h-1.3a2.371,2.371,0,0,0-.9-1.5,2.573,2.573,0,0,0-1.8-.5,2.9,2.9,0,0,0-2.3,1,4.589,4.589,0,0,0-.9,3.1,4.878,4.878,0,0,0,.8,2.8,2.712,2.712,0,0,0,2.3,1.1,2.529,2.529,0,0,0,2.2-1.1,3.387,3.387,0,0,0,.6-1.5h1.3a4.707,4.707,0,0,1-1.1,2.6,4.143,4.143,0,0,1-3.1,1.2,3.857,3.857,0,0,1-2.8-1,5.378,5.378,0,0,1-1.5-4.2,5.625,5.625,0,0,1,1.1-3.5,4.061,4.061,0,0,1,3.4-1.5,3.74,3.74,0,0,1,2.9.8Z" transform="translate(-10.133 -1.813)"/>
      <path id="XMLID_97_" d="M242.3,20.7c.3,0,.5-.1.5-.3a.749.749,0,0,0,.1-.5.975.975,0,0,0-.4-.9,2.133,2.133,0,0,0-1.2-.3,1.578,1.578,0,0,0-1.3.5,6.89,6.89,0,0,0-.3.8h-1.1a1.95,1.95,0,0,1,.8-1.8,3.83,3.83,0,0,1,1.9-.5,3.939,3.939,0,0,1,2,.5,1.645,1.645,0,0,1,.8,1.5v4.1a.354.354,0,0,0,.4.4h.4v.9a.756.756,0,0,1-.4.1h-.4a.975.975,0,0,1-.9-.4,1.445,1.445,0,0,1-.2-.7,2.723,2.723,0,0,1-1,.8,4.191,4.191,0,0,1-1.5.4,2.111,2.111,0,0,1-1.6-.6,2.035,2.035,0,0,1-.6-1.5,1.755,1.755,0,0,1,.6-1.5,2.637,2.637,0,0,1,1.6-.7l1.8-.3Zm-2.5,3.2a1.4,1.4,0,0,0,.9.3,2.663,2.663,0,0,0,1.2-.3,1.543,1.543,0,0,0,1-1.6v-1a.845.845,0,0,1-.6.2,1.7,1.7,0,0,1-.7.1l-.7.1c-.4.1-.8.1-1,.3a1,1,0,0,0-.6,1,1.346,1.346,0,0,0,.5.9Z" transform="translate(-10.516 -1.813)"/>
      <path id="XMLID_98_" d="M246.3,17.9h1.1v1a3.126,3.126,0,0,1,1.1-.9,2.663,2.663,0,0,1,1.2-.3,1.993,1.993,0,0,1,2,1.1,3.506,3.506,0,0,1,.3,1.6v4.5h-1.2V20.4a2.509,2.509,0,0,0-.2-1,1.273,1.273,0,0,0-1.2-.7,1.483,1.483,0,0,0-.7.1,2.361,2.361,0,0,0-.9.6,2.506,2.506,0,0,0-.4.7,3.11,3.11,0,0,0-.1,1.1v3.7h-1.2l.2-7h0Z" transform="translate(-10.825 -1.813)"/>
      <path id="XMLID_101_" d="M258,20.7c.3,0,.5-.1.5-.3a.749.749,0,0,0,.1-.5.975.975,0,0,0-.4-.9,2.133,2.133,0,0,0-1.2-.3,1.578,1.578,0,0,0-1.3.5,6.89,6.89,0,0,0-.3.8h-1.1a1.95,1.95,0,0,1,.8-1.8,3.83,3.83,0,0,1,1.9-.5,3.939,3.939,0,0,1,2,.5,1.645,1.645,0,0,1,.8,1.5v4.1a.354.354,0,0,0,.4.4h.4v.9a.756.756,0,0,1-.4.1h-.4a.975.975,0,0,1-.9-.4,1.445,1.445,0,0,1-.2-.7,2.723,2.723,0,0,1-1,.8,4.191,4.191,0,0,1-1.5.4,2.111,2.111,0,0,1-1.6-.6,2.035,2.035,0,0,1-.6-1.5,1.755,1.755,0,0,1,.6-1.5,2.637,2.637,0,0,1,1.6-.7Zm-2.5,3.2a1.4,1.4,0,0,0,.9.3,2.663,2.663,0,0,0,1.2-.3,1.543,1.543,0,0,0,1-1.6v-1a.845.845,0,0,1-.6.2,1.7,1.7,0,0,1-.7.1l-.7.1c-.4.1-.8.1-1,.3a1,1,0,0,0-.6,1,1.934,1.934,0,0,0,.5.9Z" transform="translate(-11.177 -1.813)"/>
      <path id="XMLID_104_" d="M266,18.1a4.515,4.515,0,0,1,.7.7V15.2h1.1v9.7h-1.1v-1a2.126,2.126,0,0,1-1,.9,2.768,2.768,0,0,1-1.3.3,2.334,2.334,0,0,1-2-1,3.739,3.739,0,0,1-.9-2.6,5.029,5.029,0,0,1,.8-2.7,2.422,2.422,0,0,1,2.2-1.1,2.982,2.982,0,0,1,1.5.4Zm-2.7,5.3a1.645,1.645,0,0,0,1.5.8,1.746,1.746,0,0,0,1.4-.7,3.146,3.146,0,0,0,.5-2,3.439,3.439,0,0,0-.5-2,1.76,1.76,0,0,0-1.3-.6,1.513,1.513,0,0,0-1.4.7,2.986,2.986,0,0,0-.6,2,3.662,3.662,0,0,0,.4,1.8Z" transform="translate(-11.484 -1.813)"/>
      <path id="XMLID_108_" d="M273.8,20.7c.3,0,.5-.1.5-.3a.749.749,0,0,0,.1-.5.975.975,0,0,0-.4-.9,2.133,2.133,0,0,0-1.2-.3,1.578,1.578,0,0,0-1.3.5,6.885,6.885,0,0,0-.3.8H270a1.95,1.95,0,0,1,.8-1.8,3.83,3.83,0,0,1,1.9-.5,3.939,3.939,0,0,1,2,.5,1.645,1.645,0,0,1,.8,1.5v4.1a.354.354,0,0,0,.4.4h.4v.9a.756.756,0,0,1-.4.1h-.4a.975.975,0,0,1-.9-.4,1.445,1.445,0,0,1-.2-.7,2.723,2.723,0,0,1-1,.8,4.191,4.191,0,0,1-1.5.4,2.111,2.111,0,0,1-1.6-.6,2.035,2.035,0,0,1-.6-1.5,1.755,1.755,0,0,1,.6-1.5,3.384,3.384,0,0,1,1.6-.7Zm-2.5,3.2a1.4,1.4,0,0,0,.9.3,2.663,2.663,0,0,0,1.2-.3,1.543,1.543,0,0,0,1-1.6v-1a.845.845,0,0,1-.6.2,1.7,1.7,0,0,1-.7.1l-.7.1c-.4.1-.8.1-1,.3a1,1,0,0,0-.6,1,1.346,1.346,0,0,0,.5.9Z" transform="translate(-11.839 -1.813)"/>
    </g>
  </g>
</svg>
