<svg xmlns="http://www.w3.org/2000/svg" xmlns:xlink="http://www.w3.org/1999/xlink" width="93.405" height="68.392" viewBox="0 0 93.405 68.392">
  <defs>
    <clipPath id="clip-path">
      <rect id="Rectangle_32417" data-name="Rectangle 32417" width="56.805" height="68.392" fill="none"/>
    </clipPath>
  </defs>
  <g id="Group_11966" data-name="Group 11966" transform="translate(-351 -935.304)">
    <g id="Union_2" data-name="Union 2" transform="translate(-8486 1095.629)" fill="none" stroke-linecap="round">
      <path d="M8854.993-121.007H8837v-11.245h17.993V-139l21.367,12.37-21.367,12.37Z" stroke="none"/>
      <path d="M 8857.4931640625 -118.5956802368164 L 8871.37109375 -126.6298675537109 L 8857.4931640625 -134.6640625 L 8857.4931640625 -129.7525177001953 L 8839.5 -129.7525177001953 L 8839.5 -123.5072174072266 L 8857.4931640625 -123.5072174072266 L 8857.4931640625 -118.5956802368164 M 8854.9931640625 -114.2595977783203 L 8854.9931640625 -121.0072174072266 L 8837 -121.0072174072266 L 8837 -132.2525177001953 L 8854.9931640625 -132.2525177001953 L 8854.9931640625 -139.0001373291016 L 8876.3603515625 -126.6298675537109 L 8854.9931640625 -114.2595977783203 Z" stroke="none" fill="#002d72"/>
    </g>
    <g id="Group_11965" data-name="Group 11965" transform="translate(387.6 935.304)">
      <g id="Group_11964" data-name="Group 11964" transform="translate(0 0)" clip-path="url(#clip-path)">
        <path id="Path_9569" data-name="Path 9569" d="M41.531,13.759A5.341,5.341,0,1,1,36.19,8.418a5.342,5.342,0,0,1,5.341,5.341" transform="translate(-8.113 -2.214)" fill="#002d72"/>
        <path id="Path_9570" data-name="Path 9570" d="M27.774,25.3H11.654a1.858,1.858,0,0,0-1.71,1.132L7.563,32.035a2.018,2.018,0,0,0,3.713,1.583l1.881-4.391,5.539-.01L16.1,35.16a28.5,28.5,0,0,0-1.54,4.541l-2.439,9.85-9.572.436a2.552,2.552,0,0,0-.074,5.1l11.576.337a2.7,2.7,0,0,0,2.562-1.644l3.9-9.208L24.228,51.8l1.781,10.777a1.963,1.963,0,0,0,3.9-.35l-.159-10.639a12.028,12.028,0,0,0-1.1-3.219l-3.387-6.64L28.4,31.708l3.84,5.719h7.047a2.022,2.022,0,0,0,0-4.044H35.2l-4.38-6.472A3.675,3.675,0,0,0,27.774,25.3" transform="translate(0 -6.652)" fill="#002d72"/>
        <path id="Path_9571" data-name="Path 9571" d="M27.713,5.613V1.5H62.986V61.656H27.713V57.979" transform="translate(-7.288 -0.395)" fill="none" stroke="#002d72" stroke-linecap="round" stroke-width="3.002"/>
        <path id="Path_9572" data-name="Path 9572" d="M73.632,62.374,64.009,68.4V6.052L73.632.027Z" transform="translate(-16.834 -0.007)" fill="#002d72"/>
      </g>
    </g>
  </g>
</svg>
