<svg xmlns="http://www.w3.org/2000/svg" xmlns:xlink="http://www.w3.org/1999/xlink" width="77.832" height="70" viewBox="0 0 77.832 70">
  <defs>
    <clipPath id="clip-path">
      <rect id="Rectangle_32321" data-name="Rectangle 32321" width="77.832" height="70" fill="#fff"/>
    </clipPath>
  </defs>
  <g id="Group_11870" data-name="Group 11870" transform="translate(0 0)">
    <g id="Group_11869" data-name="Group 11869" transform="translate(0 0)" clip-path="url(#clip-path)">
      <path id="Path_9489" data-name="Path 9489" d="M76.507,55.33,61.947,30.11,47.386,4.89a9.78,9.78,0,0,0-16.94,0L15.885,30.11,1.324,55.33A9.78,9.78,0,0,0,9.795,70H68.037a9.78,9.78,0,0,0,8.469-14.67M35.273,21.959l.053-.333a4.932,4.932,0,0,1,1.39-2.083,3.129,3.129,0,0,1,1.86-.8,2.948,2.948,0,0,1,1.886.583,4.318,4.318,0,0,1,1.472,2.026q.11,2.888.2,5.442t.111,4.942q.024,2.389-.03,4.72t-.167,4.775a3.252,3.252,0,0,1-1.137,2.584,3.421,3.421,0,0,1-2.332.8,3.654,3.654,0,0,1-2.277-.944,3.184,3.184,0,0,1-1.027-2.554Zm6.662,33.291a4.252,4.252,0,0,1-2.72,1.138,4.449,4.449,0,0,1-2.858-.944,4.232,4.232,0,0,1-1.583-3.166,4.947,4.947,0,0,1,.8-2.249,4.033,4.033,0,0,1,1.558-1.361,4.646,4.646,0,0,1,1.915-.472,3.923,3.923,0,0,1,1.889.417,3.807,3.807,0,0,1,1.472,1.333,4.312,4.312,0,0,1,.638,2.221,3.618,3.618,0,0,1-1.113,3.082" transform="translate(0 0)" fill="#fff"/>
    </g>
  </g>
</svg>
