<svg id="go2HR_logo" data-name="go2HR logo" xmlns="http://www.w3.org/2000/svg" xmlns:xlink="http://www.w3.org/1999/xlink" width="160.002" height="84.035" viewBox="0 0 160.002 84.035">
  <defs>
    <clipPath id="clip-path">
      <rect id="Rectangle_2372" data-name="Rectangle 2372" width="160.002" height="84.035" fill="none"/>
    </clipPath>
  </defs>
  <g id="Group_3559" data-name="Group 3559" clip-path="url(#clip-path)">
    <path id="Path_2123" data-name="Path 2123" d="M21.036,129.506v-4.732q-.587-4.91-6.137-5.755-7.3.261-7.886,7.273.288,8.182,7.886,8.472,5.549-.876,6.137-5.257m8.178-16.361v26A14.9,14.9,0,0,1,25.564,149.4a12.523,12.523,0,0,1-9.2,4.353l-1.751.175q-8.473-.174-13.147-4.849l3.8-4.381a14.529,14.529,0,0,0,7.8,2.629q4.672,0,6.325-2.191a7.842,7.842,0,0,0,1.652-4.82v-1.461a11.8,11.8,0,0,1-7.6,2.63q-6.716,0-10.076-3.946T0,126.877a15.2,15.2,0,0,1,3.651-10.517q3.655-4.091,10.371-4.089,4.965.289,7.013,2.658V112.27Z" transform="translate(0 -69.891)" fill="#0d285b"/>
    <path id="Path_2124" data-name="Path 2124" d="M103.254,134.222a7.038,7.038,0,0,0,5.406-2.234,8.525,8.525,0,0,0,0-11.147,7.048,7.048,0,0,0-5.435-2.247,6.977,6.977,0,0,0-5.376,2.247,8.524,8.524,0,0,0,0,11.147,7.035,7.035,0,0,0,5.4,2.234m-10.605,2.791a15.369,15.369,0,1,1,10.635,4.28,14.452,14.452,0,0,1-10.635-4.28" transform="translate(-55.022 -69.408)" fill="#0d285b"/>
    <path id="Path_2125" data-name="Path 2125" d="M181.062,119.809c.809-2.257,3.472-4.062,6.477-6.1,4.781-3.24,10.2-6.913,10.2-13.965,0-6.767-5.136-11.491-12.492-11.491a13.93,13.93,0,0,0-12.358,7.462l-.5,1.057,5.837,3.912.72-1.275c.023-.038,2.192-3.8,5.956-3.8,2.983,0,4.985,1.8,4.985,4.483,0,3-3.111,5.165-6.713,7.671-4.708,3.271-10.562,7.343-10.562,15a18.2,18.2,0,0,0,.265,2.909l.178,1.144h25.237v-7.007Z" transform="translate(-107.313 -54.941)" fill="#0d285b"/>
    <path id="Path_2126" data-name="Path 2126" d="M286.18,57.6s8.6-9.689,17.984-9.67,17.121-.06,22.325-3.885,6.294-8.175,6.294-8.175S336.8,46.882,331.4,50.7c-5.3,3.734-16.486.97-22.47.564s-15.127-.923-22.752,6.342" transform="translate(-178.155 -22.331)" fill="#37a591"/>
    <path id="Path_2127" data-name="Path 2127" d="M290.31,44.308s5.785-9.365,13.645-10.718,14.329-2.548,18.124-6.508,4.08-7.763,4.08-7.763,4.975,8.634,1,12.614c-3.891,3.9-13.658,3.217-18.728,3.749s-12.8,1.433-18.125,8.627" transform="translate(-180.726 -12.026)" fill="#52a971"/>
    <path id="Path_2128" data-name="Path 2128" d="M291.887,34.355s3.523-8.583,9.871-10.789,11.56-4.091,14.171-7.907a11.668,11.668,0,0,0,2.325-7.014s5.322,6.494,2.569,10.348c-2.7,3.778-10.914,4.553-15.055,5.695s-10.445,2.953-13.882,9.667" transform="translate(-181.708 -5.382)" fill="#63ae59"/>
    <path id="Path_2129" data-name="Path 2129" d="M292.353,25.456s1.686-7.719,6.686-10.507,9.09-5.138,10.718-8.725A9.935,9.935,0,0,0,310.671,0s5.422,4.66,3.683,8.3c-1.705,3.566-8.48,5.43-11.784,7s-8.324,4.019-10.216,10.157" transform="translate(-181.998)" fill="#75b030"/>
    <path id="Path_2130" data-name="Path 2130" d="M367.773,127.538l-4.648-10.384c-1.66-3.923-3.557-4.548-6.655-4.548h-.918v14.932h-7.975V89.271h9.811c5.106,0,9.581-.172,13.081,3.328a10.5,10.5,0,0,1,3.1,7.63,9.355,9.355,0,0,1-8.433,9.753c4.073.4,5.737,5.279,7.057,8.205l4.188,9.351Zm-3.607-30.522c-1.435-1.434-3.386-1.377-6.368-1.377h-2.352v10.5h3.213c2.7,0,4.016-.4,5.22-1.607a5.993,5.993,0,0,0,1.492-3.9,5.339,5.339,0,0,0-1.2-3.615" transform="translate(-216.377 -55.573)" fill="#0d285b"/>
    <path id="Path_2131" data-name="Path 2131" d="M276.125,127.578v-15.91H263.517v15.91h-8.043V89.332h8.043V104.6h12.608V89.332h8.043v38.245Z" transform="translate(-159.04 -55.612)" fill="#0d285b"/>
  </g>
</svg>
