<?xml version="1.0" standalone="no"?>
<!DOCTYPE svg PUBLIC "-//W3C//DTD SVG 20010904//EN"
 "http://www.w3.org/TR/2001/REC-SVG-20010904/DTD/svg10.dtd">
<svg version="1.0" xmlns="http://www.w3.org/2000/svg"
 width="225.000000pt" height="225.000000pt" viewBox="0 0 225.000000 225.000000"
 preserveAspectRatio="xMidYMid meet">

<g transform="translate(0.000000,225.000000) scale(0.100000,-0.100000)"
fill="#000000" stroke="none">
<path d="M1620 1935 c0 -151 -3 -275 -7 -275 -4 0 -57 50 -118 110 l-110 110
-60 -60 -60 -60 220 -220 220 -220 220 220 220 220 -60 60 -60 60 -110 -110
c-61 -60 -114 -110 -118 -110 -4 0 -7 124 -7 275 l0 275 -85 0 -85 0 0 -275z"/>
<path d="M213 1675 c-2 -7 -2 -299 -1 -651 3 -581 5 -643 21 -685 24 -62 69
-113 120 -138 43 -21 55 -21 673 -21 590 0 632 2 670 19 60 27 96 79 160 230
31 75 113 269 182 431 68 162 126 303 129 313 5 16 -30 17 -648 17 l-654 0
-179 -406 c-110 -248 -188 -411 -200 -420 -29 -20 -60 -17 -82 7 -18 20 -19
47 -22 580 l-2 559 211 -2 211 -3 32 -80 32 -80 309 -3 310 -2 -85 85 -85 85
-166 0 -166 0 -33 85 c-18 47 -36 86 -39 86 -3 1 -161 2 -350 3 -244 1 -345
-2 -348 -9z m1671 -737 c-20 -46 -74 -175 -121 -288 -47 -113 -96 -226 -109
-252 l-24 -48 -476 0 c-261 0 -473 3 -471 8 3 4 69 151 147 326 77 176 143
323 146 328 3 4 216 8 474 8 l469 0 -35 -82z"/>
</g>
</svg>
