<?xml version="1.0" standalone="no"?>
<!DOCTYPE svg PUBLIC "-//W3C//DTD SVG 20010904//EN"
 "http://www.w3.org/TR/2001/REC-SVG-20010904/DTD/svg10.dtd">
<svg version="1.0" xmlns="http://www.w3.org/2000/svg"
 width="225.000000pt" height="225.000000pt" viewBox="0 0 225.000000 225.000000"
 preserveAspectRatio="xMidYMid meet">

<g transform="translate(0.000000,225.000000) scale(0.100000,-0.100000)"
fill="#000000" stroke="none">
<path d="M332 2234 c-14 -10 -22 -25 -22 -45 0 -29 0 -29 -59 -29 -71 0 -106
-12 -144 -48 -66 -62 -62 5 -65 -996 -2 -638 1 -926 8 -963 14 -67 66 -126
125 -142 28 -7 286 -11 835 -11 l795 0 203 203 203 203 -3 809 c-3 891 1 835
-65 897 -38 36 -73 48 -144 48 -59 0 -59 0 -59 29 0 31 -30 61 -61 61 -25 0
-58 -32 -62 -60 l-4 -25 -123 0 c-123 0 -123 0 -125 24 -2 28 -38 61 -66 61
-27 0 -59 -35 -59 -65 l0 -25 -125 0 -125 0 0 25 c0 29 -36 65 -65 65 -29 0
-65 -36 -65 -65 l0 -25 -125 0 -125 0 0 25 c0 30 -32 65 -59 65 -28 0 -64 -33
-66 -61 -2 -24 -2 -24 -125 -24 l-123 0 -4 25 c-4 28 -37 60 -62 60 -9 0 -27
-7 -39 -16z m1775 -1054 c2 -445 -1 -731 -7 -740 -7 -11 -37 -16 -124 -20
-113 -5 -116 -6 -146 -36 -38 -37 -49 -82 -50 -190 0 -65 -3 -83 -16 -88 -9
-3 -360 -6 -780 -6 -854 0 -814 -3 -833 68 -12 41 -16 1724 -4 1735 3 4 446 6
982 5 l976 -3 2 -725z"/>
<path d="M952 1640 c-115 -30 -206 -84 -298 -175 -91 -89 -140 -169 -176 -285
-30 -98 -32 -282 -4 -375 69 -224 230 -390 451 -462 68 -22 97 -26 200 -26
103 0 132 4 200 26 189 62 330 187 415 369 87 185 76 419 -27 608 -49 89 -177
214 -270 263 -144 76 -333 98 -491 57z m290 -91 c29 -6 91 -29 136 -51 227
-108 357 -364 311 -614 -27 -149 -139 -309 -270 -387 -99 -58 -177 -79 -294
-79 -117 0 -195 21 -294 79 -131 78 -243 238 -270 387 -54 295 139 591 431
662 67 16 181 17 250 3z"/>
<path d="M865 1240 l-59 -60 92 -93 c50 -51 92 -96 92 -100 0 -4 -40 -48 -90
-97 -49 -49 -90 -93 -90 -97 0 -5 27 -35 60 -68 l60 -60 98 98 97 97 97 -97
98 -97 60 59 c33 33 60 63 60 68 0 4 -40 48 -90 97 -49 49 -90 93 -90 97 0 4
42 49 92 100 l92 93 -59 60 c-33 33 -63 60 -68 60 -4 0 -47 -40 -95 -90 -49
-49 -93 -90 -98 -90 -5 0 -49 41 -97 90 -48 50 -90 90 -95 90 -4 0 -34 -27
-67 -60z"/>
</g>
</svg>
