<svg xmlns="http://www.w3.org/2000/svg" xmlns:xlink="http://www.w3.org/1999/xlink" width="14.442" height="9.023" viewBox="0 0 14.442 9.023">
  <defs>
    <clipPath id="clip-path">
      <rect id="Rectangle_32830" data-name="Rectangle 32830" width="14.442" height="9.023" fill="#707070"/>
    </clipPath>
  </defs>
  <g id="Group_12886" data-name="Group 12886" opacity="0.62">
    <g id="Group_12885" data-name="Group 12885" clip-path="url(#clip-path)">
      <path id="Path_10181" data-name="Path 10181" d="M7.221,9.023a7.766,7.766,0,0,0,2.4-.357,8.8,8.8,0,0,0,2-.918,8.86,8.86,0,0,0,1.522-1.185,6.347,6.347,0,0,0,.968-1.178,1.875,1.875,0,0,0,.337-.874,1.859,1.859,0,0,0-.337-.878,6.414,6.414,0,0,0-.968-1.175,8.951,8.951,0,0,0-3.52-2.1A7.77,7.77,0,0,0,7.221,0,7.64,7.64,0,0,0,4.852.357a8.923,8.923,0,0,0-2,.918A9.047,9.047,0,0,0,1.325,2.459,6.548,6.548,0,0,0,.344,3.634,1.835,1.835,0,0,0,0,4.512a1.85,1.85,0,0,0,.344.874,6.478,6.478,0,0,0,.981,1.178A9.047,9.047,0,0,0,2.856,7.748a8.911,8.911,0,0,0,2,.918,7.636,7.636,0,0,0,2.369.357m0-.934a6.28,6.28,0,0,1-1.932-.3,8.354,8.354,0,0,1-1.7-.754A9.033,9.033,0,0,1,2.242,6.08a6.119,6.119,0,0,1-.891-.928,1.3,1.3,0,0,1-.317-.641,1.276,1.276,0,0,1,.317-.587A6.814,6.814,0,0,1,2.242,3a9.416,9.416,0,0,1,1.348-.978,8.416,8.416,0,0,1,1.7-.781,6.171,6.171,0,0,1,3.864,0,8.416,8.416,0,0,1,1.7.781A9.416,9.416,0,0,1,12.2,3a6.625,6.625,0,0,1,.888.921,1.281,1.281,0,0,1,.314.587,1.309,1.309,0,0,1-.314.641,5.967,5.967,0,0,1-.888.928,9.033,9.033,0,0,1-1.348.958,8.354,8.354,0,0,1-1.7.754,6.28,6.28,0,0,1-1.932.3m0-.647a2.818,2.818,0,0,0,1.485-.4A3.021,3.021,0,0,0,9.764,5.973a2.825,2.825,0,0,0,.394-1.462,2.857,2.857,0,0,0-.394-1.485A2.948,2.948,0,0,0,8.706,1.972a2.874,2.874,0,0,0-1.485-.39,2.892,2.892,0,0,0-1.488.39A2.939,2.939,0,0,0,4.672,3.026a2.932,2.932,0,0,0,.007,2.947A3.021,3.021,0,0,0,5.736,7.041a2.818,2.818,0,0,0,1.485.4m0-1.935a.975.975,0,0,1-.711-.294.983.983,0,0,1,0-1.408.975.975,0,0,1,.711-.294,1,1,0,0,1,1,1,1,1,0,0,1-1,.994" transform="translate(0 0)" fill="#707070"/>
    </g>
  </g>
</svg>
