<svg xmlns="http://www.w3.org/2000/svg" width="10" height="11" viewBox="0 0 10 11">
  <g id="Group_13001" data-name="Group 13001" transform="translate(-289 -116)">
    <g id="Ellipse_241" data-name="Ellipse 241" transform="translate(291.5 116)" fill="none" stroke="#014f9a" stroke-linejoin="round" stroke-width="1">
      <circle cx="2.5" cy="2.5" r="2.5" stroke="none"/>
      <circle cx="2.5" cy="2.5" r="2" fill="none"/>
    </g>
    <g id="Union_4" data-name="Union 4" transform="translate(289 122)" fill="#fff" stroke-linejoin="round">
      <path d="M 9.5 4.5 L 0.5 4.5 L 0.5 1.904809951782227 C 0.5 1.683609962463379 0.8532699942588806 1.325839996337891 1.642490029335022 1.025169968605042 C 2.531440019607544 0.6865100264549255 3.723829984664917 0.5 5 0.5 C 6.276169776916504 0.5 7.468560218811035 0.6865100264549255 8.357509613037109 1.025169968605042 C 9.146730422973633 1.325839996337891 9.5 1.683609962463379 9.5 1.904809951782227 L 9.5 4.5 Z" stroke="none"/>
      <path d="M 9 4 L 9 1.968969583511353 C 8.918008804321289 1.867309927940369 8.603862762451172 1.615776419639587 7.87624979019165 1.387609958648682 C 7.079170227050781 1.137660026550293 6.057690143585205 1 5 1 C 3.942310094833374 1 2.920830011367798 1.137660026550293 2.123749971389771 1.387609958648682 C 1.39613676071167 1.615776419639587 1.081991672515869 1.867309927940369 1 1.968969583511353 L 1 4 L 9 4 M 10 5 L 0 5 L 0 1.904809951782227 C 0 0.852869987487793 2.238640069961548 0 5 0 C 7.761360168457031 0 10 0.852869987487793 10 1.904809951782227 L 10 5 Z" stroke="none" fill="#014f9a"/>
    </g>
  </g>
</svg>
