<svg xmlns="http://www.w3.org/2000/svg" width="22.951" height="27.343" viewBox="0 0 22.951 27.343">
  <g id="Group_13012" data-name="Group 13012" transform="translate(-4789.366 -8158.497)">
    <path id="Path_10203" data-name="Path 10203" d="M4783,8158.748h22.951" transform="translate(6.367 5.85)" fill="none" stroke="#014f9a" stroke-width="2"/>
    <g id="Path_10204" data-name="Path 10204" transform="translate(4792.777 8163.669)" fill="none">
      <path d="M-1,0H17.683l-.6,17.378a4.808,4.808,0,0,1-4.821,4.794H4.424A4.808,4.808,0,0,1-.4,17.378Z" stroke="none"/>
      <path d="M 1.070563316345215 1.999996185302734 L 1.602685928344727 17.37771606445312 C 1.602685928344727 18.91825675964355 2.868395805358887 20.17157745361328 4.424155235290527 20.17157745361328 L 12.25903511047363 20.17157745361328 C 13.81479549407959 20.17157745361328 15.08050537109375 18.91825675964355 15.08050537109375 17.37771606445312 L 15.08170604705811 17.30839729309082 L 15.61262798309326 1.999996185302734 L 1.070563316345215 1.999996185302734 M -1.000003814697266 -3.814697265625e-06 L 17.68319511413574 -3.814697265625e-06 L 17.08050537109375 17.37771606445312 C 17.08050537109375 20.02529716491699 14.92186546325684 22.17157745361328 12.25903511047363 22.17157745361328 L 4.424155235290527 22.17157745361328 C 1.761325836181641 22.17157745361328 -0.3973140716552734 20.02529716491699 -0.3973140716552734 17.37771606445312 L -1.000003814697266 -3.814697265625e-06 Z" stroke="none" fill="#014f9a"/>
    </g>
    <line id="Line_12851" data-name="Line 12851" y2="14.464" transform="translate(4801.119 8167.459)" fill="none" stroke="#014f9a" stroke-width="2"/>
    <line id="Line_12852" data-name="Line 12852" y1="13.862" x2="0.603" transform="translate(4804.735 8167.459)" fill="none" stroke="#014f9a" stroke-width="2"/>
    <line id="Line_12853" data-name="Line 12853" x1="0.603" y1="13.862" transform="translate(4796.9 8167.459)" fill="none" stroke="#014f9a" stroke-width="2"/>
    <g id="Rectangle_32882" data-name="Rectangle 32882" transform="translate(4796 8158.497)" fill="none" stroke="#014f9a" stroke-width="2">
      <path d="M4,0H5A4,4,0,0,1,9,4V7A0,0,0,0,1,9,7H0A0,0,0,0,1,0,7V4A4,4,0,0,1,4,0Z" stroke="none"/>
      <path d="M4,1H5A3,3,0,0,1,8,4V5A1,1,0,0,1,7,6H2A1,1,0,0,1,1,5V4A3,3,0,0,1,4,1Z" fill="none"/>
    </g>
  </g>
</svg>
