<svg xmlns="http://www.w3.org/2000/svg" width="12" height="12" viewBox="0 0 12 12">
  <path id="Path_10202" data-name="Path 10202" d="M11.5,6.944V5.055H10.457a4.557,4.557,0,0,0-.638-1.538l.738-.738L9.221,1.443l-.738.738a4.537,4.537,0,0,0-1.538-.638V.5H5.055V1.543a4.537,4.537,0,0,0-1.538.638l-.738-.738L1.443,2.779l.738.738a4.557,4.557,0,0,0-.638,1.538H.5V6.944H1.543a4.54,4.54,0,0,0,.638,1.538l-.738.739,1.336,1.336.738-.739a4.517,4.517,0,0,0,1.538.638V11.5h1.89V10.456a4.517,4.517,0,0,0,1.538-.638l.738.739,1.336-1.336-.738-.739a4.54,4.54,0,0,0,.638-1.538ZM6,7.9A1.9,1.9,0,1,1,7.9,6,1.9,1.9,0,0,1,6,7.9Z" fill="none" stroke="#014f9a" stroke-linejoin="round" stroke-width="1"/>
</svg>
