<svg xmlns="http://www.w3.org/2000/svg" width="12.092" height="11.64" viewBox="0 0 12.092 11.64">
  <g id="Polygon_22" data-name="Polygon 22" fill="none" stroke-linejoin="round">
    <path d="M6.046,0,7.557,4.329l4.534.117-3.6,2.793,1.291,4.4-3.737-2.6-3.737,2.6L3.6,7.239,0,4.446l4.534-.117Z" stroke="none"/>
    <path d="M 6.045904636383057 3.033563613891602 L 5.478538513183594 4.658507823944092 C 5.341488361358643 5.051008224487305 4.975898265838623 5.31777811050415 4.560298442840576 5.328537940979004 L 2.826828956604004 5.37339973449707 L 4.213198661804199 6.448808193206787 C 4.53803825378418 6.700788021087646 4.675558567047119 7.125907897949219 4.559858322143555 7.520408153533936 L 4.068286895751953 9.196386337280273 L 5.474318504333496 8.216958045959473 C 5.817808151245117 7.977677822113037 6.273988723754883 7.977677822113037 6.617478370666504 8.216958045959473 L 8.023509979248047 9.196386337280273 L 7.531938552856445 7.520408153533936 C 7.416238307952881 7.125907897949219 7.55375862121582 6.700788021087646 7.878598213195801 6.448808193206787 L 9.264968872070312 5.37339973449707 L 7.531508445739746 5.328537940979004 C 7.115908622741699 5.31777811050415 6.75031852722168 5.051008224487305 6.613278388977051 4.658517837524414 L 6.045904636383057 3.033563613891602 M 6.0458984375 -1.9073486328125e-06 L 7.55737829208374 4.32886791229248 L 12.09179878234863 4.446218013763428 L 8.491518020629883 7.23895788192749 L 9.782468795776367 11.64035797119141 L 6.0458984375 9.037498474121094 L 2.309328079223633 11.64035797119141 L 3.600278854370117 7.23895788192749 L -1.9073486328125e-06 4.446218013763428 L 4.534428596496582 4.32886791229248 L 6.0458984375 -1.9073486328125e-06 Z" stroke="none" fill="#014f9a"/>
  </g>
</svg>
