<svg xmlns="http://www.w3.org/2000/svg" width="69.929" height="59" viewBox="0 0 69.929 59">
  <g id="Group_11525" data-name="Group 11525" transform="translate(-561.691 -69.118)">
    <circle id="Ellipse_176" data-name="Ellipse 176" cx="9.396" cy="9.396" r="9.396" transform="translate(587.26 69.118)" fill="#002d72"/>
    <path id="Path_9337" data-name="Path 9337" d="M714.67,258.537v4.781h-40.7v-4.781c0-5.975,9.112-10.817,20.35-10.817S714.67,252.562,714.67,258.537Z" transform="translate(-97.664 -155.354)" fill="#002d72"/>
    <path id="Path_9338" data-name="Path 9338" d="M569.944,401.786l2.55,5.168,5.7.829-4.127,4.022.974,5.68-5.1-2.682-5.1,2.682.974-5.68-4.127-4.022,5.7-.829Z" transform="translate(0 -289.366)" fill="#002d72"/>
    <path id="Path_9339" data-name="Path 9339" d="M980.371,401.786l2.55,5.168,5.7.829L984.5,411.8l.974,5.68-5.1-2.682-5.1,2.682.974-5.68-4.127-4.022,5.7-.829Z" transform="translate(-357.004 -289.366)" fill="#002d72"/>
    <path id="Path_9340" data-name="Path 9340" d="M775.158,401.786l2.55,5.168,5.7.829-4.127,4.022.974,5.68-5.1-2.682-5.1,2.682.974-5.68-4.127-4.022,5.7-.829Z" transform="translate(-178.502 -289.366)" fill="#002d72"/>
  </g>
</svg>
