<svg id="Group_12044" data-name="Group 12044" xmlns="http://www.w3.org/2000/svg" xmlns:xlink="http://www.w3.org/1999/xlink" width="135.134" height="105.552" viewBox="0 0 135.134 105.552">
  <defs>
    <clipPath id="clip-path">
      <rect id="Rectangle_32483" data-name="Rectangle 32483" width="135.134" height="105.552" fill="none"/>
    </clipPath>
  </defs>
  <g id="Group_12042" data-name="Group 12042" transform="translate(0 0)" clip-path="url(#clip-path)">
    <path id="Path_9617" data-name="Path 9617" d="M7.542,13.272h-.8q-.655,2.183-1.312,4.374c-.591,1.979-1.158,3.966-1.788,5.932a2.588,2.588,0,0,1-.77,1.2A1.579,1.579,0,0,1,.357,23.693,3.2,3.2,0,0,1,.48,22.444q1.66-5.536,3.362-11.062A5.179,5.179,0,0,1,8.891,7.649q2.62,0,5.238,0a5.245,5.245,0,0,1,5,3.621c1.182,3.787,2.325,7.589,3.456,11.392a2.673,2.673,0,0,1,.02,1.249,1.571,1.571,0,0,1-1.4,1.188,1.553,1.553,0,0,1-1.634-1c-.324-.832-.558-1.7-.814-2.555q-1.181-3.952-2.351-7.9c-.036-.123-.083-.243-.125-.364h-.871c1.789,6.132,3.57,12.233,5.371,18.4h-4.98v.626q0,6.414,0,12.828a4.356,4.356,0,0,1-.057.778,1.753,1.753,0,0,1-1.858,1.516,1.761,1.761,0,0,1-1.807-1.577,5.53,5.53,0,0,1-.056-.779q-.005-6.365,0-12.729V31.73H11.016c-.009.188-.028.375-.028.563q0,6.414-.006,12.828a3.878,3.878,0,0,1-.123,1.061,1.826,1.826,0,0,1-1.987,1.242A1.811,1.811,0,0,1,7.21,45.775c-.02-.21-.013-.424-.013-.635V31.714H2.221C4,25.533,5.764,19.433,7.542,13.272" transform="translate(0.064 1.431)" fill="#f8b13a"/>
    <path id="Path_9618" data-name="Path 9618" d="M10.37,7.929A3.965,3.965,0,1,1,14.381,4a3.95,3.95,0,0,1-4.01,3.93" transform="translate(1.202 0)" fill="#f8b13a"/>
    <path id="Path_9619" data-name="Path 9619" d="M30.932,13.272h-.8q-.655,2.183-1.312,4.374c-.591,1.979-1.158,3.966-1.788,5.932a2.588,2.588,0,0,1-.77,1.2,1.579,1.579,0,0,1-2.514-1.084,3.2,3.2,0,0,1,.123-1.249q1.66-5.536,3.362-11.062a5.179,5.179,0,0,1,5.049-3.733q2.62,0,5.238,0a5.245,5.245,0,0,1,5,3.621c1.182,3.787,2.325,7.589,3.456,11.392A2.673,2.673,0,0,1,46,23.913,1.571,1.571,0,0,1,44.6,25.1a1.553,1.553,0,0,1-1.634-1c-.324-.832-.558-1.7-.814-2.555q-1.181-3.952-2.351-7.9c-.036-.123-.083-.243-.125-.364H38.8c1.789,6.132,3.57,12.233,5.371,18.4H39.2v.626q0,6.414,0,12.828a4.357,4.357,0,0,1-.057.778,1.859,1.859,0,0,1-3.665-.061,5.53,5.53,0,0,1-.056-.779q-.005-6.365,0-12.729V31.73H34.406c-.009.188-.028.375-.028.563q0,6.414-.006,12.828a3.877,3.877,0,0,1-.123,1.061,1.885,1.885,0,0,1-3.648-.407c-.02-.21-.013-.424-.013-.635V31.714H25.611c1.783-6.181,3.544-12.28,5.321-18.442" transform="translate(4.442 1.431)" fill="#122555"/>
    <path id="Path_9620" data-name="Path 9620" d="M33.76,7.929A3.965,3.965,0,1,1,37.771,4a3.95,3.95,0,0,1-4.01,3.93" transform="translate(5.581 0)" fill="#122555"/>
    <path id="Path_9621" data-name="Path 9621" d="M54.511,13.272h-.8q-.655,2.183-1.312,4.374c-.591,1.979-1.158,3.966-1.788,5.932a2.588,2.588,0,0,1-.77,1.2,1.579,1.579,0,0,1-2.514-1.084,3.2,3.2,0,0,1,.123-1.249q1.66-5.536,3.362-11.062A5.179,5.179,0,0,1,55.86,7.649q2.62,0,5.238,0a5.245,5.245,0,0,1,5,3.621c1.182,3.787,2.325,7.589,3.456,11.392a2.673,2.673,0,0,1,.02,1.249,1.571,1.571,0,0,1-1.4,1.188,1.553,1.553,0,0,1-1.634-1c-.324-.832-.558-1.7-.814-2.555q-1.181-3.952-2.351-7.9c-.036-.123-.083-.243-.125-.364h-.871c1.789,6.132,3.57,12.233,5.371,18.4h-4.98v.626q0,6.414,0,12.828a4.355,4.355,0,0,1-.057.778,1.859,1.859,0,0,1-3.665-.061,5.53,5.53,0,0,1-.056-.779q-.005-6.365,0-12.729V31.73H57.985c-.009.188-.028.375-.028.563q0,6.414-.006,12.828a3.878,3.878,0,0,1-.123,1.061,1.885,1.885,0,0,1-3.648-.407c-.02-.21-.013-.424-.013-.635V31.714H49.19c1.783-6.181,3.544-12.28,5.321-18.442" transform="translate(8.856 1.431)" fill="#122555"/>
    <path id="Path_9622" data-name="Path 9622" d="M57.339,7.929A3.965,3.965,0,1,1,61.35,4a3.95,3.95,0,0,1-4.01,3.93" transform="translate(9.994 0)" fill="#122555"/>
    <path id="Path_9623" data-name="Path 9623" d="M78.639,13.272h-.8q-.655,2.183-1.312,4.374c-.591,1.979-1.158,3.966-1.788,5.932a2.588,2.588,0,0,1-.77,1.2,1.579,1.579,0,0,1-2.514-1.084,3.2,3.2,0,0,1,.123-1.249q1.66-5.536,3.362-11.062a5.179,5.179,0,0,1,5.049-3.733q2.62,0,5.238,0a5.245,5.245,0,0,1,5,3.621c1.182,3.787,2.325,7.589,3.456,11.392a2.673,2.673,0,0,1,.02,1.249,1.571,1.571,0,0,1-1.4,1.188,1.553,1.553,0,0,1-1.634-1c-.324-.832-.558-1.7-.814-2.555q-1.181-3.952-2.351-7.9c-.036-.123-.083-.243-.125-.364h-.871c1.789,6.132,3.57,12.233,5.371,18.4H86.9v.626q0,6.414,0,12.828a4.355,4.355,0,0,1-.057.778,1.859,1.859,0,0,1-3.665-.061,5.527,5.527,0,0,1-.056-.779q-.005-6.365,0-12.729V31.73H82.113c-.01.188-.029.375-.029.563q0,6.414-.006,12.828a3.877,3.877,0,0,1-.123,1.061,1.885,1.885,0,0,1-3.648-.407c-.02-.21-.013-.424-.013-.635V31.714H73.318c1.783-6.181,3.544-12.28,5.321-18.442" transform="translate(13.372 1.431)" fill="#122555"/>
    <path id="Path_9624" data-name="Path 9624" d="M81.467,7.929A3.965,3.965,0,1,1,85.478,4a3.95,3.95,0,0,1-4.01,3.93" transform="translate(14.511 0)" fill="#122555"/>
    <path id="Path_9625" data-name="Path 9625" d="M102.218,13.272h-.8q-.655,2.183-1.312,4.374c-.591,1.979-1.157,3.966-1.788,5.932a2.588,2.588,0,0,1-.77,1.2,1.579,1.579,0,0,1-2.514-1.084,3.2,3.2,0,0,1,.123-1.249q1.66-5.536,3.362-11.062a5.179,5.179,0,0,1,5.049-3.733q2.62,0,5.238,0a5.245,5.245,0,0,1,5,3.621c1.182,3.787,2.324,7.589,3.456,11.392a2.673,2.673,0,0,1,.02,1.249,1.571,1.571,0,0,1-1.4,1.188,1.553,1.553,0,0,1-1.634-1c-.324-.832-.558-1.7-.814-2.555q-1.181-3.952-2.351-7.9c-.036-.123-.083-.243-.125-.364h-.871c1.789,6.132,3.57,12.233,5.371,18.4h-4.98v.626q0,6.414,0,12.828a4.355,4.355,0,0,1-.057.778,1.859,1.859,0,0,1-3.665-.061,5.532,5.532,0,0,1-.056-.779q-.005-6.365,0-12.729V31.73h-1.007c-.01.188-.028.375-.028.563q0,6.414-.006,12.828a3.877,3.877,0,0,1-.123,1.061,1.885,1.885,0,0,1-3.648-.407c-.02-.21-.013-.424-.013-.635V31.714H96.9c1.783-6.181,3.544-12.28,5.321-18.442" transform="translate(17.786 1.431)" fill="#122555"/>
    <path id="Path_9626" data-name="Path 9626" d="M105.046,7.929A3.965,3.965,0,1,1,109.057,4a3.95,3.95,0,0,1-4.01,3.93" transform="translate(18.925 0)" fill="#122555"/>
    <path id="Path_9627" data-name="Path 9627" d="M7.2,61.021H6.4Q5.746,63.2,5.09,65.394C4.5,67.373,3.932,69.361,3.3,71.327a2.588,2.588,0,0,1-.77,1.2A1.579,1.579,0,0,1,.017,71.442,3.2,3.2,0,0,1,.14,70.193Q1.8,64.657,3.5,59.131A5.179,5.179,0,0,1,8.551,55.4q2.62,0,5.238,0a5.245,5.245,0,0,1,5,3.621c1.182,3.787,2.325,7.589,3.456,11.392a2.673,2.673,0,0,1,.02,1.249,1.571,1.571,0,0,1-1.4,1.188,1.553,1.553,0,0,1-1.634-1c-.324-.832-.558-1.7-.814-2.555q-1.181-3.952-2.351-7.9c-.036-.123-.083-.243-.125-.364h-.871c1.789,6.132,3.57,12.233,5.371,18.4h-4.98v.626q0,6.414,0,12.828a4.356,4.356,0,0,1-.057.778,1.753,1.753,0,0,1-1.858,1.516A1.761,1.761,0,0,1,11.741,93.6a5.53,5.53,0,0,1-.056-.779q-.005-6.365,0-12.729v-.614H10.676c-.009.188-.028.375-.028.563q0,6.414-.006,12.828a3.877,3.877,0,0,1-.123,1.061,1.826,1.826,0,0,1-1.987,1.242A1.811,1.811,0,0,1,6.87,93.524c-.02-.21-.013-.424-.013-.635V79.463H1.881C3.664,73.282,5.424,67.182,7.2,61.021" transform="translate(0 10.369)" fill="#122555"/>
    <path id="Path_9628" data-name="Path 9628" d="M10.03,55.678a3.965,3.965,0,1,1,4.01-3.93,3.95,3.95,0,0,1-4.01,3.93" transform="translate(1.139 8.938)" fill="#122555"/>
    <path id="Path_9629" data-name="Path 9629" d="M30.592,61.021h-.8q-.655,2.183-1.312,4.374c-.591,1.979-1.158,3.966-1.788,5.932a2.588,2.588,0,0,1-.77,1.2,1.579,1.579,0,0,1-2.514-1.084,3.2,3.2,0,0,1,.123-1.249q1.66-5.536,3.362-11.062A5.179,5.179,0,0,1,31.941,55.4q2.62,0,5.238,0a5.245,5.245,0,0,1,5,3.621c1.182,3.787,2.325,7.589,3.456,11.392a2.673,2.673,0,0,1,.02,1.249,1.571,1.571,0,0,1-1.4,1.188,1.553,1.553,0,0,1-1.634-1c-.324-.832-.558-1.7-.814-2.555q-1.181-3.952-2.351-7.9c-.036-.123-.083-.243-.125-.364h-.871c1.789,6.132,3.57,12.233,5.371,18.4h-4.98v.626q0,6.414,0,12.828a4.357,4.357,0,0,1-.057.778,1.859,1.859,0,0,1-3.665-.061,5.529,5.529,0,0,1-.056-.779q-.005-6.365,0-12.729v-.614H34.066c-.009.188-.028.375-.028.563q0,6.414-.006,12.828a3.877,3.877,0,0,1-.123,1.061,1.885,1.885,0,0,1-3.648-.407c-.02-.21-.013-.424-.013-.635V79.463H25.271c1.783-6.181,3.544-12.28,5.321-18.442" transform="translate(4.378 10.369)" fill="#122555"/>
    <path id="Path_9630" data-name="Path 9630" d="M33.42,55.678a3.965,3.965,0,1,1,4.01-3.93,3.95,3.95,0,0,1-4.01,3.93" transform="translate(5.517 8.938)" fill="#122555"/>
    <path id="Path_9631" data-name="Path 9631" d="M54.171,61.021h-.8q-.655,2.183-1.312,4.374c-.591,1.979-1.158,3.966-1.788,5.932a2.588,2.588,0,0,1-.77,1.2,1.579,1.579,0,0,1-2.514-1.084,3.2,3.2,0,0,1,.123-1.249q1.66-5.536,3.362-11.062A5.179,5.179,0,0,1,55.52,55.4q2.62,0,5.238,0a5.245,5.245,0,0,1,5,3.621c1.182,3.787,2.325,7.589,3.456,11.392a2.673,2.673,0,0,1,.02,1.249,1.571,1.571,0,0,1-1.4,1.188,1.553,1.553,0,0,1-1.634-1c-.324-.832-.558-1.7-.814-2.555q-1.181-3.952-2.351-7.9c-.036-.123-.083-.243-.125-.364h-.871c1.789,6.132,3.57,12.233,5.371,18.4h-4.98v.626q0,6.414,0,12.828a4.356,4.356,0,0,1-.057.778A1.859,1.859,0,0,1,58.71,93.6a5.53,5.53,0,0,1-.056-.779q-.005-6.365,0-12.729v-.614H57.645c-.01.188-.028.375-.028.563q0,6.414-.006,12.828a3.877,3.877,0,0,1-.123,1.061,1.885,1.885,0,0,1-3.648-.407c-.02-.21-.013-.424-.013-.635V79.463H48.85c1.783-6.181,3.544-12.28,5.321-18.442" transform="translate(8.792 10.369)" fill="#122555"/>
    <path id="Path_9632" data-name="Path 9632" d="M57,55.678a3.965,3.965,0,1,1,4.01-3.93A3.95,3.95,0,0,1,57,55.678" transform="translate(9.931 8.938)" fill="#122555"/>
    <path id="Path_9633" data-name="Path 9633" d="M78.3,61.021h-.8q-.655,2.183-1.312,4.374c-.591,1.979-1.158,3.966-1.788,5.932a2.588,2.588,0,0,1-.77,1.2,1.579,1.579,0,0,1-2.514-1.084,3.2,3.2,0,0,1,.123-1.249Q72.9,64.657,74.6,59.131A5.179,5.179,0,0,1,79.648,55.4q2.62,0,5.238,0a5.245,5.245,0,0,1,5,3.621c1.182,3.787,2.325,7.589,3.456,11.392a2.673,2.673,0,0,1,.02,1.249,1.571,1.571,0,0,1-1.4,1.188,1.553,1.553,0,0,1-1.634-1c-.324-.832-.558-1.7-.814-2.555q-1.181-3.952-2.351-7.9c-.036-.123-.083-.243-.125-.364h-.871c1.789,6.132,3.57,12.233,5.371,18.4h-4.98v.626q0,6.414,0,12.828a4.355,4.355,0,0,1-.057.778,1.859,1.859,0,0,1-3.665-.061,5.529,5.529,0,0,1-.056-.779q-.005-6.365,0-12.729v-.614H81.773c-.009.188-.028.375-.028.563q0,6.414-.006,12.828a3.878,3.878,0,0,1-.123,1.061,1.885,1.885,0,0,1-3.648-.407c-.02-.21-.013-.424-.013-.635V79.463H72.978c1.783-6.181,3.544-12.28,5.321-18.442" transform="translate(13.308 10.369)" fill="#122555"/>
    <path id="Path_9634" data-name="Path 9634" d="M81.127,55.678a3.965,3.965,0,1,1,4.01-3.93,3.95,3.95,0,0,1-4.01,3.93" transform="translate(14.447 8.938)" fill="#122555"/>
    <path id="Path_9635" data-name="Path 9635" d="M101.878,61.021h-.8q-.655,2.183-1.312,4.374c-.591,1.979-1.158,3.966-1.788,5.932a2.588,2.588,0,0,1-.77,1.2,1.579,1.579,0,0,1-2.514-1.084,3.2,3.2,0,0,1,.123-1.249q1.66-5.536,3.362-11.062a5.179,5.179,0,0,1,5.049-3.733q2.62,0,5.238,0a5.245,5.245,0,0,1,5,3.621c1.182,3.787,2.325,7.589,3.456,11.392a2.673,2.673,0,0,1,.02,1.249,1.571,1.571,0,0,1-1.4,1.188,1.553,1.553,0,0,1-1.634-1c-.324-.832-.558-1.7-.814-2.555q-1.181-3.952-2.351-7.9c-.036-.123-.083-.243-.125-.364h-.871c1.789,6.132,3.57,12.233,5.371,18.4h-4.98v.626q0,6.414,0,12.828a4.357,4.357,0,0,1-.057.778,1.859,1.859,0,0,1-3.665-.061,5.529,5.529,0,0,1-.056-.779q-.005-6.365,0-12.729v-.614h-1.007c-.009.188-.028.375-.028.563q0,6.414-.006,12.828a3.878,3.878,0,0,1-.123,1.061,1.885,1.885,0,0,1-3.648-.407c-.02-.21-.013-.424-.013-.635V79.463H96.557c1.783-6.181,3.544-12.28,5.321-18.442" transform="translate(17.722 10.369)" fill="#122555"/>
    <path id="Path_9636" data-name="Path 9636" d="M104.706,55.678a3.965,3.965,0,1,1,4.01-3.93,3.95,3.95,0,0,1-4.01,3.93" transform="translate(18.861 8.938)" fill="#122555"/>
  </g>
</svg>
