<svg xmlns="http://www.w3.org/2000/svg" width="69" height="53" viewBox="0 0 69 53">
  <g id="Group_12711" data-name="Group 12711" transform="translate(-268 -1853)">
    <g id="Group_12705" data-name="Group 12705" transform="translate(3.515 4.042)">
      <path id="Path_10078" data-name="Path 10078" d="M15.664,4.145A4.146,4.146,0,1,1,11.517,0a4.147,4.147,0,0,1,4.147,4.145" transform="translate(281.983 1852.494)" fill="#014f9a"/>
      <path id="Path_10079" data-name="Path 10079" d="M27.094,10.754l-4.778-.8L18.5,5.8a2.089,2.089,0,0,0-1.544-.678h-4.3a2.113,2.113,0,0,0-1,.253l-5.167,2.8a2.1,2.1,0,0,0-.9.956L2.833,15a2.1,2.1,0,1,0,3.8,1.779l2.453-5.241,1.1-.6-1.3,4.841a4.2,4.2,0,0,0,3.133,5.039c.07.017.138.012.208.025L9.257,33.5a2.1,2.1,0,0,0,1.564,2.521,2.051,2.051,0,0,0,.482.056,2.1,2.1,0,0,0,2.04-1.618l3.168-13.51,2.506.66.272,7.2a2.1,2.1,0,1,0,4.192-.157L23.165,20.3a2.1,2.1,0,0,0-1.039-1.733l-4.835-1.752,1.274-4.738,1.15,1.251a2.1,2.1,0,0,0,1.2.651l5.491.915a2.1,2.1,0,0,0,.69-4.139" transform="translate(277.518 1857.326)" fill="#014f9a"/>
      <path id="Path_10080" data-name="Path 10080" d="M46.03,25.463V1.248a.972.972,0,1,0-1.944,0v.932L34.638,5.368a.972.972,0,0,0,0,1.841L44.086,10.4V25.463H35.9V30.2H26.7v4.738H17.494v4.738H8.288v4.74H0v1.944H47.052v-20.9Z" transform="translate(275.035 1852.754)" fill="#014f9a"/>
    </g>
    <rect id="Rectangle_32642" data-name="Rectangle 32642" width="69" height="53" transform="translate(268 1853)" fill="none"/>
  </g>
</svg>
