<svg xmlns="http://www.w3.org/2000/svg" width="69" height="53" viewBox="0 0 69 53">
  <g id="Group_12712" data-name="Group 12712" transform="translate(-268 -1924)">
    <g id="Group_12709" data-name="Group 12709" transform="translate(0.29 -0.387)">
      <g id="Group_12708" data-name="Group 12708" transform="translate(0.78 -3.163)">
        <path id="Path_10091" data-name="Path 10091" d="M15.826,13.566,1.418,7.068,15.826.569l14.408,6.5Z" transform="translate(285.894 1928.979)" fill="none" stroke="#014f9a" stroke-linecap="round" stroke-linejoin="round" stroke-width="2"/>
        <line id="Line_12770" data-name="Line 12770" y2="7.532" transform="translate(316.127 1936.047)" fill="none" stroke="#014f9a" stroke-linecap="round" stroke-linejoin="round" stroke-width="2"/>
        <path id="Path_10093" data-name="Path 10093" d="M8.029,9.954A24.467,24.467,0,0,1,.662,11.165V21.536C.662,28.07,4.4,34.16,10.6,37.72l5.851,3.362L22.3,37.72c6.2-3.559,9.938-9.649,9.938-16.183V11.165A24.428,24.428,0,0,1,24.712,9.9" transform="translate(285.268 1936.697)" fill="#014f9a" stroke="#014f9a" stroke-linecap="round" stroke-linejoin="round" stroke-width="2"/>
        <path id="Path_10092" data-name="Path 10092" d="M13.188,9.427l8.586-3.866v6.36c0,5.052-17.17,5.052-17.17,0V5.561Z" transform="translate(288.529 1933.108)" fill="#fff" stroke="#014f9a" stroke-linecap="round" stroke-linejoin="round" stroke-width="2"/>
        <line id="Line_12768" data-name="Line 12768" y2="11.972" transform="translate(301.719 1954.208)" fill="none" stroke="#fff" stroke-linecap="square" stroke-linejoin="round" stroke-width="4"/>
        <line id="Line_12769" data-name="Line 12769" x2="11.972" transform="translate(295.734 1960.196)" fill="none" stroke="#fff" stroke-linecap="square" stroke-linejoin="round" stroke-width="4"/>
      </g>
    </g>
    <rect id="Rectangle_32643" data-name="Rectangle 32643" width="69" height="53" transform="translate(268 1924)" fill="none"/>
  </g>
</svg>
