<svg xmlns="http://www.w3.org/2000/svg" width="69" height="53" viewBox="0 0 69 53">
  <g id="Group_12713" data-name="Group 12713" transform="translate(-268 -1994)">
    <g id="Group_12704" data-name="Group 12704" transform="translate(72.583 -0.036)">
      <path id="Path_10088" data-name="Path 10088" d="M.5,8.911l20.05,9.652L40.6,8.911V25.305H.5Z" transform="translate(211.1 2014.986)" fill="#014f9a" stroke="#014f9a" stroke-linejoin="round" stroke-width="2"/>
      <line id="Line_12763" data-name="Line 12763" x2="5.313" y2="2.559" transform="translate(246.388 2021.34)" fill="none" stroke="#014f9a" stroke-linejoin="round" stroke-width="2"/>
      <line id="Line_12764" data-name="Line 12764" x1="5.313" y2="2.559" transform="translate(211.6 2021.34)" fill="none" stroke="#014f9a" stroke-linejoin="round" stroke-width="2"/>
      <path id="Path_10089" data-name="Path 10089" d="M2.433,26.175V.5H31.907V26.175" transform="translate(214.48 2000.28)" fill="none" stroke="#014f9a" stroke-linejoin="round" stroke-width="2"/>
      <line id="Line_12765" data-name="Line 12765" x2="9.806" transform="translate(221.844 2010.72)" fill="none" stroke="#014f9a" stroke-linejoin="round" stroke-width="2"/>
      <line id="Line_12766" data-name="Line 12766" x2="19.25" transform="translate(221.844 2016.089)" fill="none" stroke="#014f9a" stroke-linejoin="round" stroke-width="2"/>
      <line id="Line_12767" data-name="Line 12767" x2="19.25" transform="translate(221.844 2021.402)" fill="none" stroke="#014f9a" stroke-linejoin="round" stroke-width="2"/>
      <path id="Path_10090" data-name="Path 10090" d="M12.292,6.324,10.535,4.568c-1.358-1.358.4-3.114,1.756-1.756,1.363-1.363,3.119.393,1.756,1.756Z" transform="translate(227.791 2003.461)" fill="#014f9a"/>
    </g>
    <rect id="Rectangle_32645" data-name="Rectangle 32645" width="69" height="53" transform="translate(268 1994)" fill="none"/>
  </g>
</svg>
