<svg xmlns="http://www.w3.org/2000/svg" width="69" height="53" viewBox="0 0 69 53">
  <g id="Group_12714" data-name="Group 12714" transform="translate(-268 -2065)">
    <g id="Group_12707" data-name="Group 12707" transform="translate(-7.651 -3.039)">
      <g id="Group_12706" data-name="Group 12706" transform="translate(280.186 2068.039)">
        <path id="Path_10094" data-name="Path 10094" d="M27.37,6.725,24.35,3.7A2.136,2.136,0,0,1,27.37.683,2.136,2.136,0,1,1,30.39,3.7Z" transform="translate(27.883 0)" fill="#014f9a"/>
        <path id="Path_10095" data-name="Path 10095" d="M22.676,8.623,19.656,5.6a2.136,2.136,0,0,1,3.02-3.022A2.136,2.136,0,1,1,25.7,5.6Z" transform="translate(22.169 2.311)" fill="#014f9a"/>
        <path id="Path_10096" data-name="Path 10096" d="M26.125,17.512l-5.084-5.084c-3.388-3.388,1.7-8.472,5.084-5.084,3.45-3.45,8.534,1.634,5.084,5.084Z" transform="translate(23.304 7.539)" fill="#014f9a"/>
        <path id="Path_10097" data-name="Path 10097" d="M27.857,9.56,25.9,7.607a1.38,1.38,0,0,1,1.953-1.951A1.381,1.381,0,1,1,29.81,7.607Z" transform="translate(30.059 6.347)" fill="#014f9a"/>
        <path id="Path_10098" data-name="Path 10098" d="M23.307,18.094l-2.439-2.439a1.724,1.724,0,0,1,2.439-2.437,1.724,1.724,0,1,1,2.439,2.437Z" transform="translate(23.801 15.419)" fill="#014f9a"/>
        <path id="Path_10099" data-name="Path 10099" d="M27.38,19.408,24.941,16.97a1.724,1.724,0,0,1,2.439-2.437,1.724,1.724,0,1,1,2.439,2.437Z" transform="translate(28.758 17.019)" fill="#014f9a"/>
        <path id="Path_10100" data-name="Path 10100" d="M22.925,16.242c1.871,6.986,1.958,13.035.188,13.507s-4.716-4.8-6.59-11.793S14.568,4.924,16.335,4.449,21.054,9.256,22.925,16.242Z" transform="translate(17.387 5.38)" fill="none" stroke="#014f9a" stroke-width="2"/>
        <path id="Path_10101" data-name="Path 10101" d="M34.338,17.838C32.6,11.342,32.4,5.663,33.806,4.517c-5.006,2.816-10.144,5.3-15.365,7.629-5.3,2.255-10.51,4.989-16.334,5.485C.34,18.106-.1,22.184,1.118,26.74s3.643,7.864,5.41,7.392l0,0c8.035-3.412,17.015-3.253,25.587-4.164q4.181-.279,8.421-.326C38.75,29.347,36.079,24.334,34.338,17.838Z" transform="translate(-0.428 5.498)" fill="none" stroke="#014f9a" stroke-width="2"/>
        <path id="Path_10102" data-name="Path 10102" d="M4.962,9.588a23.484,23.484,0,0,0,.851,8.272,23.5,23.5,0,0,0,3.4,7.589" transform="translate(4.985 11.671)" fill="none" stroke="#014f9a" stroke-width="2"/>
        <path id="Path_10103" data-name="Path 10103" d="M15.262,8.881A3.945,3.945,0,1,1,17.3,16.5" transform="translate(17.629 10.646)" fill="#014f9a"/>
        <path id="Path_10104" data-name="Path 10104" d="M11.247,16.631l3.075,11.474A3.077,3.077,0,0,1,8.378,29.7L5.2,17.846" transform="translate(5.385 20.243)" fill="#014f9a"/>
      </g>
    </g>
    <rect id="Rectangle_32644" data-name="Rectangle 32644" width="69" height="53" transform="translate(268 2065)" fill="none"/>
  </g>
</svg>
