<svg id="Group_12045" data-name="Group 12045" xmlns="http://www.w3.org/2000/svg" xmlns:xlink="http://www.w3.org/1999/xlink" width="85.548" height="117.278" viewBox="0 0 85.548 117.278">
  <defs>
    <clipPath id="clip-path">
      <rect id="Rectangle_32482" data-name="Rectangle 32482" width="85.548" height="117.278" fill="none"/>
    </clipPath>
  </defs>
  <g id="Group_12040" data-name="Group 12040" transform="translate(0 0)" clip-path="url(#clip-path)">
    <path id="Path_9612" data-name="Path 9612" d="M50.459,73.706c-1.2-2.657-3.55-3.706-6.59-3.541-.763.042-1.533.033-2.3,0-2.991-.127-5.325.89-6.5,3.566a23.007,23.007,0,0,0-4.052.042c-2.651.494-7.262,5.351-7.612,7.972a19.1,19.1,0,0,0,.179,3.5c-2.435,1.118-3.719,3.165-3.633,6.271-2.664-.591-5.194-1.079-7.683-1.724a25.76,25.76,0,0,1-8.206-3.45A8.482,8.482,0,0,1,.458,76.239C1.9,71.389,3.868,66.813,7.5,63.133a14.49,14.49,0,0,1,8.2-4.266,2.737,2.737,0,0,0,2.056-1.442,17.127,17.127,0,0,0,2.031-7.691,78.966,78.966,0,0,0-1.073-18.406,9.866,9.866,0,0,1-.009-1.421h4.547a39.064,39.064,0,0,0,.391,4.927c.514,2.535,1.407,3.444,2.9,3.407a27.517,27.517,0,0,0,4.97,9.2,26.77,26.77,0,0,0,5.029,4.644c4.569,3.077,9.743,2.536,14.289-1.257A27.222,27.222,0,0,0,58.59,39.358c.138-.355.256-.718.4-1.136,1.095.264,1.7-.392,2.136-1.243a9.26,9.26,0,0,0,.8-7.066h5.01c-.106.962-.186,1.924-.321,2.879a76.226,76.226,0,0,0-.843,17.163A18.263,18.263,0,0,0,67.5,56.921a3.288,3.288,0,0,0,2.563,2.006A15.067,15.067,0,0,1,80,65.379a31.011,31.011,0,0,1,5.311,11.848,8.1,8.1,0,0,1-3.527,8.913c-3.061,2.156-6.583,3.2-10.149,4.09-1.92.48-3.877.8-6,1.232.032-2.958-1.158-5.1-3.6-6.181a23.679,23.679,0,0,0-.044-4.205c-.437-2.294-5.275-6.941-7.577-7.336a25.026,25.026,0,0,0-3.955-.036m3.933-21.1C46.6,59.812,38.917,59.8,31.17,52.625c-.283,2.755-2.152,3.963-4.529,5.075a19.373,19.373,0,0,0,2.084,2.663,20.325,20.325,0,0,0,17.167,5.271,19.86,19.86,0,0,0,10.732-5.067,23.293,23.293,0,0,0,2.287-2.874c-2.384-1.12-4.225-2.307-4.517-5.087" transform="translate(0 5.598)" fill="#122555"/>
    <path id="Path_9613" data-name="Path 9613" d="M17.464,24.581C17.917,15.546,21.968,8.805,30,4.294c.537,3.021,1.035,5.829,1.535,8.636.12.677.2,1.364.37,2.027a1.72,1.72,0,1,0,3.363-.7c-.629-3.767-1.312-7.524-1.9-11.3a1.855,1.855,0,0,1,.5-1.548,7.474,7.474,0,0,1,3.067-1.3A59.251,59.251,0,0,1,43.593.075a4.826,4.826,0,0,1,1.87.45c1.708.8,1.975,1.446,1.635,3.343q-.912,5.075-1.778,10.16c-.234,1.388.254,2.194,1.323,2.354,1.147.171,1.873-.469,2.117-1.87q.832-4.8,1.664-9.594a5.314,5.314,0,0,1,.2-.6c7.945,4.492,12.025,11.215,12.439,19.99A13.633,13.633,0,0,1,66,25.4a3.046,3.046,0,0,1,1.1,3.492,3.378,3.378,0,0,1-2.939,2.389,7.547,7.547,0,0,1-.8.017q-23.141,0-46.283-.006c-2.226,0-3.646-1.224-3.734-3.184a3.227,3.227,0,0,1,3.179-3.474c.3-.015.592-.033.939-.052" transform="translate(2.497 0)" fill="#f8b13a"/>
    <path id="Path_9614" data-name="Path 9614" d="M28.685,70.491c.76.49,1.473.914,2.146,1.395a2.377,2.377,0,0,0,3.874-1.467c.462-3.245.907-3.115,3.756-3.1.881.006,1.761.026,2.641.02a1.758,1.758,0,0,1,1.883,1.629c.052.262.084.529.122.794.262,1.835.729,2.354,2.547,2.765a1.054,1.054,0,0,0,.622-.093A4.344,4.344,0,0,0,46.944,72c2.631-1.824,2.632-1.825,4.927.47.541.541,1.083,1.084,1.611,1.637,1,1.049,1.052,1.653.256,2.826a2.1,2.1,0,0,1-.328.468c-1.414,1.168-.955,2.465-.205,3.722a1.548,1.548,0,0,0,1,.544c3.41.57,3.412.559,3.411,4.04,0,.843.014,1.686,0,2.528a1.623,1.623,0,0,1-1.493,1.73,3.364,3.364,0,0,1-.9.172c-1.91-.236-2.333,1.177-2.767,2.516a1.358,1.358,0,0,0,.3.987c2.032,2.841,2.228,2.836-.48,5.461-2.669,2.587-2.647,2.608-5.729.61-.9-.584-3.05.349-3.233,1.421-.614,3.586-.473,3.6-4.306,3.538-.573-.009-1.148,0-1.723,0-1.636-.007-2.162-.463-2.419-2.1-.036-.227-.042-.458-.08-.685a2.863,2.863,0,0,0-2.6-2.449,1.831,1.831,0,0,0-1,.443c-2.792,1.941-2.789,1.946-5.2-.467-.569-.569-1.143-1.131-1.706-1.7a1.719,1.719,0,0,1-.25-2.38,4.516,4.516,0,0,1,.528-.749,2.342,2.342,0,0,0,.437-3.222c-.336-.572-.571-1.016-1.28-1.046a7.876,7.876,0,0,1-1.019-.154c-2.122-.369-2.368-.668-2.368-2.861,0-1.11-.014-2.22.007-3.33a1.78,1.78,0,0,1,1.745-2.012,1.747,1.747,0,0,1,.342-.033,2.609,2.609,0,0,0,2.964-2.3,3.46,3.46,0,0,0-.087-1.124c-.023-.135-.165-.252-.254-.378-1.9-2.706-1.9-2.706.493-5.091.57-.567,1.109-1.172,1.72-1.689a9.844,9.844,0,0,1,1.431-.838M38.919,93.427a7.409,7.409,0,0,0,7.507-7.362,7.465,7.465,0,1,0-7.507,7.362" transform="translate(3.804 12.601)" fill="#f8b13a"/>
    <path id="Path_9615" data-name="Path 9615" d="M50.192,49.027c.292,2.78,2.133,3.968,4.517,5.087a23.292,23.292,0,0,1-2.287,2.874A19.86,19.86,0,0,1,41.69,62.055a20.325,20.325,0,0,1-17.167-5.271,19.374,19.374,0,0,1-2.084-2.663c2.377-1.112,4.247-2.32,4.529-5.075,7.748,7.174,15.435,7.187,23.223-.019" transform="translate(4.2 9.177)" fill="#fff"/>
    <path id="Path_9616" data-name="Path 9616" d="M37.156,91.664a7.442,7.442,0,0,1-7.421-7.346A7.465,7.465,0,1,1,44.663,84.3a7.409,7.409,0,0,1-7.507,7.362" transform="translate(5.566 14.364)" fill="#fff"/>
  </g>
</svg>
