<svg id="Group_12046" data-name="Group 12046" xmlns="http://www.w3.org/2000/svg" xmlns:xlink="http://www.w3.org/1999/xlink" width="116.268" height="116.268" viewBox="0 0 116.268 116.268">
  <defs>
    <clipPath id="clip-path">
      <rect id="Rectangle_32481" data-name="Rectangle 32481" width="116.268" height="116.268" transform="translate(0 0)" fill="none"/>
    </clipPath>
  </defs>
  <g id="Group_12038" data-name="Group 12038" transform="translate(0 0)" clip-path="url(#clip-path)">
    <path id="Path_9610" data-name="Path 9610" d="M44.395,25.848c1.014,2.062,1.8,3.718,2.633,5.355,5.437,10.653,12.734,19.412,24.1,24.219,3.616,1.528,7.023,3.547,10.516,5.36,2.3,1.194,3.068,2.6,2.136,4.112-1.211,1.954-2.782,1.375-4.415.524-5.612-2.922-11.25-5.8-16.876-8.7l-3.615-1.862C56.846,58.809,54.95,62.491,53,66.278c-9.8-2.665-19.472-1.794-29.456.1,7.038-13.68,13.84-26.9,20.849-40.529m32.74,25.027c-4.866-2.814-11.209-4.895-15.653-10.108-5.795-6.794-9.774-14.562-12.9-22.836-.165-.435-.189-1.008-.491-1.286-1.01-.925-2.061-2.319-3.207-2.43a4.25,4.25,0,0,0-3.182,2.04c-2.713,4.846-5.193,9.824-7.68,14.794a4.341,4.341,0,0,1-2.987,2.5c-7.692,2.174-11.569,9.947-9.065,17.587a5.3,5.3,0,0,1-.226,3.6c-2.264,4.732-4.718,9.373-7.154,14.023-.857,1.636-1.625,3.249-.274,4.941s3.076,1.276,4.866.782c8.677-2.393,17.491-4.041,26.5-2.751a37.78,37.78,0,0,1,10.3,3.159c6.228,2.879,12.152,6.408,18.357,9.353,4.049,1.926,4.99-1.067,6.638-2.381a2.5,2.5,0,0,1,1.863-.063c5.823,1.546,9.162,1.416,12.166-4.47,2.9-5.685.585-8.257-4.027-11.966-.426-.343-.985-.92-.96-1.361.129-2.272,2.653-4.994-1.793-7.434-3.385-1.856-6.869-3.518-11.093-5.691" transform="translate(2.542 2.66)" fill="#112455"/>
    <path id="Path_9611" data-name="Path 9611" d="M65.277,74.653c-5.126-2.636-9.839-5.244-14.72-7.479-1.859-.852-3.5.9-3.9,2.393-1.074,4.011-3.653,5.742-7.5,6.283a5.513,5.513,0,0,0-2.225,1.171c-3.7,2.688-3.493,4.99.552,7.046,3.021,1.535,5.957,3.258,9.053,4.612a4.033,4.033,0,0,0,3.5-.2c5.051-4.365,9.918-8.943,15.245-13.821" transform="translate(6.419 12.533)" fill="#112455"/>
    <circle id="Ellipse_183" data-name="Ellipse 183" cx="55.869" cy="55.869" r="55.869" transform="translate(2.265 2.265)" fill="none" stroke="#f8b13a" stroke-width="3.816"/>
    <line id="Line_372" data-name="Line 372" x2="77.771" y2="80.196" transform="translate(18.776 18.485)" fill="none" stroke="#f8b13a" stroke-width="3.816"/>
  </g>
</svg>
