<svg id="Group_12047" data-name="Group 12047" xmlns="http://www.w3.org/2000/svg" xmlns:xlink="http://www.w3.org/1999/xlink" width="123.34" height="110.768" viewBox="0 0 123.34 110.768">
  <defs>
    <clipPath id="clip-path">
      <rect id="Rectangle_32480" data-name="Rectangle 32480" width="123.34" height="110.768" transform="translate(0 0)" fill="none"/>
    </clipPath>
  </defs>
  <g id="Group_12036" data-name="Group 12036" transform="translate(0 0)" clip-path="url(#clip-path)">
    <path id="Path_9606" data-name="Path 9606" d="M119.071,58.624c-.393-.014-.787-.046-1.18-.046H22.808V50.15h96.263Z" transform="translate(4.269 9.387)" fill="#f8b13a"/>
    <path id="Path_9607" data-name="Path 9607" d="M0,67.512q4.258-.723,8.52-1.45c2.428-.421,4.845-.851,7.268-1.273a4.608,4.608,0,0,1,.678,0c1.814,9.863,3.624,19.722,5.472,29.758Q10.924,96.6,0,98.643Z" transform="translate(0 12.125)" fill="#122555"/>
    <path id="Path_9608" data-name="Path 9608" d="M42.448,56.943c.77-8.516,2.137-16.676,6.019-24.248,3.9-7.613,10.053-13.112,16.836-18.056-.065-.089-.126-.178-.192-.262-1.884.8-3.806,1.539-5.644,2.433A38.5,38.5,0,0,0,47.975,25.3a38.024,38.024,0,0,0-5.592,8.049,52.862,52.862,0,0,0-5.431,18.182c-.2,1.459-.326,2.932-.438,4.406-.051.706-.259,1.048-1.061,1.02-1.806-.061-3.61-.038-5.416-.009-.64.014-.931-.131-.963-.851a43.324,43.324,0,0,1,4.531-21.924A40.961,40.961,0,0,1,49.42,17.075a39.155,39.155,0,0,1,14.624-5.209c.224-.033.454-.07.676-.122.056-.013.1-.08.205-.167-2.647-3.714-2.8-7.3,1.015-10.317A6.449,6.449,0,0,1,73.9,1.5a6.412,6.412,0,0,1,2.475,4.942,6.911,6.911,0,0,1-2.054,5.192c.52.107.794.186,1.076.224a38.617,38.617,0,0,1,13.53,4.546A40.1,40.1,0,0,1,101.741,27.57a43.17,43.17,0,0,1,8.657,28.5c-.042,1-.6.889-1.235.884q-21.768-.007-43.538,0-10.932-.007-21.869,0Z" transform="translate(5.432 0)" fill="#f8b13a"/>
    <path id="Path_9609" data-name="Path 9609" d="M19.994,89.426c-1.235-7.8-2.465-15.591-3.714-23.491.912-.345,1.815-.71,2.727-1.038,3.582-1.286,7.131-2.666,10.756-3.793a18.507,18.507,0,0,1,4.761-.528c6.524-.267,13.057-.472,19.586-.7a2.905,2.905,0,0,1,3.072,2.586,2.762,2.762,0,0,1-1.989,3.195c-1.463.472-2.974.8-4.465,1.2q-5.417,1.432-10.837,2.867a9.376,9.376,0,0,0-.963.383c2.347.169,4.415.332,6.487.468,4.19.262,8.385.524,12.579.753a3.773,3.773,0,0,0,1.534-.22q10.592-4.1,21.157-8.255c2.114-.837,3.709-.668,4.8.763a3.288,3.288,0,0,1-.665,4.592C77.777,72.7,70.81,77.313,63.79,81.849a22.368,22.368,0,0,1-4.046,2.222,12.042,12.042,0,0,1-4.18.9c-8.732.019-17.462-.094-26.194-.126-1.749-.009-3.647-.533-5.182.589a29.9,29.9,0,0,0-3.362,3.26,7.208,7.208,0,0,0-.579.767c-.084-.009-.169-.024-.253-.033" transform="translate(3.047 11.207)" fill="#122555"/>
  </g>
</svg>
