<svg id="Group_12050" data-name="Group 12050" xmlns="http://www.w3.org/2000/svg" xmlns:xlink="http://www.w3.org/1999/xlink" width="94.784" height="94.776" viewBox="0 0 94.784 94.776">
  <defs>
    <clipPath id="clip-path">
      <rect id="Rectangle_32479" data-name="Rectangle 32479" width="94.784" height="94.776" fill="none"/>
    </clipPath>
  </defs>
  <g id="Group_12034" data-name="Group 12034" transform="translate(0 0)" clip-path="url(#clip-path)">
    <path id="Path_9605" data-name="Path 9605" d="M80.979,71.541V60.112H49.67V71.541c2.066,0,4.1,0,6.143,0,2.528,0,3.191.641,3.195,3.113q.011,8.542,0,17.085c0,2.442-.609,3.03-3.08,3.032q-8.612.005-17.224,0c-2.277,0-2.917-.629-2.922-2.905q-.02-8.681,0-17.364c0-2.234.718-2.944,2.923-2.957,2.1-.012,4.193,0,6.4,0V60.114H13.851V71.541c2.1,0,4.187-.006,6.271,0,2.4.007,3.1.7,3.107,3.082q.009,8.612,0,17.224c0,2.239-.686,2.918-2.928,2.922q-8.753.011-17.5,0c-2.124,0-2.783-.646-2.788-2.726q-.016-8.891,0-17.784c0-1.971.73-2.691,2.712-2.712,2.187-.023,4.374-.006,6.727-.006V69.9c0-3.781-.015-7.562.007-11.342.012-2.076.723-2.76,2.79-2.761q15.544-.005,31.088,0h1.778V44.274H43.088c-3.968,0-7.935.007-11.9,0-2.011-.006-2.772-.788-2.8-2.8-.123-8.36,3.31-14.656,10.786-18.61a2.412,2.412,0,0,0,.323-.248c-7-6.273-5.354-14.829-.883-19.07a12.687,12.687,0,1,1,16.647,19.11,19.765,19.765,0,0,1,7.8,6.636,20.234,20.234,0,0,1,3.335,12.749c-.07,1.476-.992,2.225-2.656,2.231-4.154.015-8.309.006-12.463.006h-1.61V55.8h1.667q15.543,0,31.086,0c2.247,0,2.913.653,2.923,2.915.015,3.735,0,7.469,0,11.2v1.628c2.271,0,4.365-.007,6.459,0,2.321.011,2.979.671,2.981,3.012q.009,8.681,0,17.363c0,2.208-.632,2.848-2.8,2.852q-8.822.014-17.644,0c-2.055,0-2.766-.719-2.771-2.793q-.02-8.822,0-17.644c.006-2,.8-2.767,2.834-2.784,2.144-.019,4.287,0,6.585,0" transform="translate(0 0)" fill="#122555"/>
    <rect id="Rectangle_32476" data-name="Rectangle 32476" width="17.012" height="17.012" transform="translate(3.113 74.593)" fill="#f8b13a"/>
    <rect id="Rectangle_32477" data-name="Rectangle 32477" width="17.897" height="17.897" transform="translate(38.444 74.137)" fill="#122555"/>
    <rect id="Rectangle_32478" data-name="Rectangle 32478" width="17.897" height="17.897" transform="translate(74.371 74.137)" fill="#122555"/>
  </g>
</svg>
