<svg id="Group_12048" data-name="Group 12048" xmlns="http://www.w3.org/2000/svg" xmlns:xlink="http://www.w3.org/1999/xlink" width="76.353" height="96.896" viewBox="0 0 76.353 96.896">
  <defs>
    <clipPath id="clip-path">
      <rect id="Rectangle_32474" data-name="Rectangle 32474" width="76.353" height="96.896" fill="none"/>
    </clipPath>
  </defs>
  <g id="Group_12029" data-name="Group 12029" transform="translate(0 0)" clip-path="url(#clip-path)">
    <path id="Path_9598" data-name="Path 9598" d="M.057,48.468C.057,35.058.165,21.645,0,8.236-.059,3.284,2.822-.088,8.16,0,22.143.238,36.134.05,50.122.139a5.3,5.3,0,0,1,3.367,1.32q10.818,10.59,21.4,21.416a5.3,5.3,0,0,1,1.349,3.363c.08,20.836-.015,41.675.112,62.511.03,4.932-2.925,8.193-8.024,8.145q-30.172-.28-60.348,0C2.951,96.941-.04,93.658.008,88.917c.14-13.482.049-26.966.049-40.449M69.5,31.013H66.912q-7.029,0-14.059,0c-5.135-.008-7.662-2.5-7.706-7.676-.039-4.686-.007-9.373-.02-14.059,0-.768-.075-1.535-.125-2.48H42.662q-13.627,0-27.253,0c-5.855.006-8.549,2.732-8.55,8.651q-.005,32.984,0,65.97c0,6.011,2.688,8.681,8.737,8.682q22.6.007,45.2,0c6.037,0,8.7-2.671,8.7-8.721q.005-20.979,0-41.961V31.013" transform="translate(0 0)" fill="#122555"/>
    <path id="Path_9599" data-name="Path 9599" d="M40.926,31.674v2.868a9.1,9.1,0,0,0-.269.989c-1.032,6.541-2.04,13.086-3.09,19.625a4.3,4.3,0,0,1-8.481.09c-1.131-7.008-2.266-14.016-3.3-21.038A7.588,7.588,0,0,1,31.526,25.7a7.671,7.671,0,0,1,9.082,5.149c.091.28.211.551.318.825" transform="translate(4.811 4.775)" fill="#f8b13a"/>
    <path id="Path_9600" data-name="Path 9600" d="M32.824,66.909c-.285-.085-.566-.191-.856-.252a5.34,5.34,0,0,1-4.283-5.907,5.332,5.332,0,1,1,6.486,5.885c-.283.068-.554.182-.831.274Z" transform="translate(5.178 10.479)" fill="#f8b13a"/>
  </g>
</svg>
