<svg id="Group_12049" data-name="Group 12049" xmlns="http://www.w3.org/2000/svg" xmlns:xlink="http://www.w3.org/1999/xlink" width="215.897" height="79.552" viewBox="0 0 215.897 79.552">
  <defs>
    <clipPath id="clip-path">
      <rect id="Rectangle_32475" data-name="Rectangle 32475" width="215.897" height="79.552" fill="none"/>
    </clipPath>
  </defs>
  <g id="Group_12032" data-name="Group 12032" transform="translate(0 0)">
    <g id="Group_12031" data-name="Group 12031" clip-path="url(#clip-path)">
      <path id="Path_9601" data-name="Path 9601" d="M61.257,21.607h-1.3q-1.068,3.553-2.137,7.122c-.963,3.22-1.885,6.454-2.909,9.657a4.246,4.246,0,0,1-1.254,1.952,2.571,2.571,0,0,1-4.1-1.765,5.213,5.213,0,0,1,.2-2.031q2.705-9.016,5.474-18.01a8.431,8.431,0,0,1,8.219-6.076q4.263-.007,8.528,0a8.539,8.539,0,0,1,8.145,5.9c1.924,6.167,3.785,12.355,5.625,18.547a4.332,4.332,0,0,1,.034,2.031,2.557,2.557,0,0,1-2.279,1.934,2.528,2.528,0,0,1-2.659-1.628c-.525-1.356-.906-2.766-1.323-4.161Q77.6,28.644,75.7,22.209c-.059-.2-.138-.394-.207-.591H74.076c2.912,9.982,5.809,19.913,8.74,29.959H74.709V52.6q0,10.439,0,20.881a7.15,7.15,0,0,1-.091,1.266,3.027,3.027,0,0,1-5.967-.1,8.926,8.926,0,0,1-.091-1.27q-.007-10.359,0-20.721v-1h-1.64c-.015.306-.044.61-.044.917q0,10.441-.011,20.883a6.338,6.338,0,0,1-.2,1.729,3.07,3.07,0,0,1-5.941-.662c-.032-.342-.02-.69-.02-1.035q0-10.4,0-20.8V51.629H52.6c2.9-10.061,5.769-19.992,8.662-30.023" transform="translate(9.272 2.331)" fill="#f8b13a"/>
      <path id="Path_9602" data-name="Path 9602" d="M65.862,12.908a6.454,6.454,0,1,1,6.526-6.4,6.432,6.432,0,0,1-6.526,6.4" transform="translate(11.126 0)" fill="#f8b13a"/>
      <path id="Path_9603" data-name="Path 9603" d="M105.655,0a8.891,8.891,0,0,1,4.254,2.131,6.3,6.3,0,0,1,1.07,7.465,6.948,6.948,0,0,1-6.769,3.446c-3.256-.493-5.594-2.543-6.082-5.335a6.541,6.541,0,0,1,5.6-7.521A2.161,2.161,0,0,0,104.185,0Z" transform="translate(18.35)" fill="#112455"/>
      <path id="Path_9604" data-name="Path 9604" d="M116.267,22.8H115v1.251q0,24.5,0,49c0,1.73-.551,3.188-2.354,3.85-2.849,1.049-5.678-.706-5.656-3.627.076-9.43.03-18.858.03-28.287V43.751l-1.267-.074v1.207q0,14,0,27.99c0,2.235-.93,3.594-2.822,4.153A3.807,3.807,0,0,1,97.8,73.72c-.03-.43-.019-.863-.019-1.294q0-24.153,0-48.307V22.808H96.405V24q0,8.466,0,16.933a2.634,2.634,0,0,1-1.5,2.636,3.164,3.164,0,0,1-3.184-.142,2.436,2.436,0,0,1-1.233-2.18c-.007-7-.052-14.01.017-21.016.04-4.109,4-7.719,8.4-7.761q7.036-.066,14.069,0c5.5.058,9.211,3.678,9.213,8.9q0,9.81,0,19.621a2.755,2.755,0,0,1-2.842,2.935,2.682,2.682,0,0,1-3.019-2.631c-.07-3.518-.046-7.036-.055-10.554-.007-2.617,0-5.235,0-7.951" transform="translate(16.934 2.329)" fill="#112455"/>
      <text id="_25_" data-name="25%" transform="translate(0.209 48.337)" fill="#f8b13a" font-size="23" font-family="ProximaNova-Bold, Proxima Nova" font-weight="700"><tspan x="0" y="0">25%</tspan></text>
    </g>
  </g>
  <text id="_17_" data-name="17%" transform="translate(148.782 47.868)" fill="#122555" font-size="22" font-family="ProximaNova-Bold, Proxima Nova" font-weight="700"><tspan x="0" y="0">17%</tspan></text>
</svg>
