<svg xmlns="http://www.w3.org/2000/svg" xmlns:xlink="http://www.w3.org/1999/xlink" width="87.858" height="87.859" viewBox="0 0 87.858 87.859">
  <defs>
    <clipPath id="clip-path">
      <rect id="Rectangle_32009" data-name="Rectangle 32009" width="87.858" height="87.859" fill="#fff"/>
    </clipPath>
  </defs>
  <g id="Group_11427" data-name="Group 11427" transform="translate(-0.001)">
    <g id="Group_11435" data-name="Group 11435" transform="translate(0.001 0)" clip-path="url(#clip-path)">
      <path id="Path_9298" data-name="Path 9298" d="M24.038,13.962A10.005,10.005,0,1,0,34.043,23.967,10.015,10.015,0,0,0,24.038,13.962" transform="translate(20.153 20.05)" fill="#fff"/>
      <path id="Path_9299" data-name="Path 9299" d="M45.872,7.5H20.551A13.1,13.1,0,0,0,7.464,20.585V45.909A13.1,13.1,0,0,0,20.551,58.993H45.872A13.1,13.1,0,0,0,58.958,45.909V20.585A13.1,13.1,0,0,0,45.872,7.5m-12.4,41.365a15.619,15.619,0,1,1,15.62-15.618,15.636,15.636,0,0,1-15.62,15.618M50,20.3a3.719,3.719,0,1,1,3.717-3.718A3.717,3.717,0,0,1,50,20.3" transform="translate(10.719 10.772)" fill="#fff"/>
      <path id="Path_9300" data-name="Path 9300" d="M65.621,0H22.239A22.239,22.239,0,0,0,0,22.239V65.622A22.239,22.239,0,0,0,22.239,87.861H65.621A22.239,22.239,0,0,0,87.861,65.622V22.239A22.239,22.239,0,0,0,65.621,0M75.643,56.681a19.072,19.072,0,0,1-19.053,19.05H31.267a19.072,19.072,0,0,1-19.05-19.05V31.358A19.072,19.072,0,0,1,31.267,12.3H56.591A19.073,19.073,0,0,1,75.643,31.358Z" transform="translate(0 -0.001)" fill="#fff"/>
    </g>
  </g>
</svg>
