<svg id="Group_11428" data-name="Group 11428" xmlns="http://www.w3.org/2000/svg" xmlns:xlink="http://www.w3.org/1999/xlink" width="87.858" height="87.859" viewBox="0 0 87.858 87.859">
  <defs>
    <clipPath id="clip-path">
      <rect id="Rectangle_32010" data-name="Rectangle 32010" width="87.858" height="87.859" fill="#fff"/>
    </clipPath>
  </defs>
  <g id="Group_11437" data-name="Group 11437" transform="translate(0 0)" clip-path="url(#clip-path)">
    <path id="Path_9301" data-name="Path 9301" d="M65.621,0H22.239A22.238,22.238,0,0,0,0,22.237V65.622A22.238,22.238,0,0,0,22.239,87.859H37.148V56.474H26.132V43.931H37.148V34.369c0-10.875,6.48-16.882,16.393-16.882a66.688,66.688,0,0,1,9.713.848V29.012H57.782c-5.391,0-7.072,3.345-7.072,6.777v8.142H62.744L60.822,56.474H50.71v31.38l.015,0h14.9A22.236,22.236,0,0,0,87.858,65.622V22.237A22.236,22.236,0,0,0,65.621,0" transform="translate(0 -0.001)" fill="#fff"/>
  </g>
</svg>
