<svg xmlns="http://www.w3.org/2000/svg" xmlns:xlink="http://www.w3.org/1999/xlink" width="331.713" height="353.526" viewBox="0 0 331.713 353.526">
  <defs>
    <clipPath id="clip-path">
      <rect id="Rectangle_2819" data-name="Rectangle 2819" width="331.713" height="353.526" fill="#b2b2b2"/>
    </clipPath>
    <clipPath id="clip-path-2">
      <rect id="Rectangle_2818" data-name="Rectangle 2818" width="331.713" height="353.526" fill="#a6acb1"/>
    </clipPath>
    <clipPath id="clip-path-3">
      <rect id="Rectangle_2809" data-name="Rectangle 2809" width="81.81" height="81.324" fill="#a6acb1"/>
    </clipPath>
    <clipPath id="clip-path-4">
      <rect id="Rectangle_2810" data-name="Rectangle 2810" width="53.366" height="58.74" fill="#a6acb1"/>
    </clipPath>
    <clipPath id="clip-path-5">
      <rect id="Rectangle_2811" data-name="Rectangle 2811" width="133.845" height="78.922" fill="#a6acb1"/>
    </clipPath>
    <clipPath id="clip-path-6">
      <rect id="Rectangle_2812" data-name="Rectangle 2812" width="248.451" height="236.802" fill="#a6acb1"/>
    </clipPath>
    <clipPath id="clip-path-7">
      <rect id="Rectangle_2813" data-name="Rectangle 2813" width="79.47" height="57.252" fill="#014f9a"/>
    </clipPath>
    <clipPath id="clip-path-8">
      <rect id="Rectangle_2814" data-name="Rectangle 2814" width="76.751" height="93.618" fill="#a6acb1"/>
    </clipPath>
    <clipPath id="clip-path-9">
      <rect id="Rectangle_2815" data-name="Rectangle 2815" width="60.247" height="117.293" fill="#a6acb1"/>
    </clipPath>
    <clipPath id="clip-path-10">
      <rect id="Rectangle_2816" data-name="Rectangle 2816" width="28.676" height="63.525" fill="#a6acb1"/>
    </clipPath>
    <clipPath id="clip-path-11">
      <rect id="Rectangle_2817" data-name="Rectangle 2817" width="13.162" height="20.18" fill="#a6acb1"/>
    </clipPath>
  </defs>
  <g id="Group_5193" data-name="Group 5193" clip-path="url(#clip-path)">
    <g id="Group_5192" data-name="Group 5192">
      <g id="Group_5191" data-name="Group 5191" clip-path="url(#clip-path-2)">
        <g id="Group_5166" data-name="Group 5166" transform="translate(81.546 272.202)" opacity="0.37">
          <g id="Group_5165" data-name="Group 5165">
            <g id="Group_5164" data-name="Group 5164" clip-path="url(#clip-path-3)">
              <path id="Path_2445" data-name="Path 2445" d="M148.749,484.808l-3.014,3.444,7.1,8.611,4.736-.646v1.722s-3.66-.861-4.3.431-.646,6.888-.646,6.888l-.861,4.52,9.687-.431,3.444,6.889,4.736-.215,1.507,3.444,2.152.861-1.722,4.736,1.076,4.52,5.381-.215,6.027,6.243.431,4.736,9.687,1.938.431,5.6s7.965,7.534,8.611,7.749,6.674,1.292,6.674,1.292l9.256,8.18,3.013.431,4.736-5.382-.215-4.735s-4.521-5.6-4.736-6.674-.861-7.1-.861-7.1l-11.624-9.472-2.8.431-3.66-4.52-3.444-4.306-5.382-16.79L166.4,492.773l-5.812-6.242Z" transform="translate(-145.366 -484.508)" fill="#a6acb1"/>
              <path id="Path_2446" data-name="Path 2446" d="M148.749,484.808l-3.014,3.444,7.1,8.611,4.736-.646v1.722s-3.66-.861-4.3.431-.646,6.888-.646,6.888l-.861,4.52,9.687-.431,3.444,6.889,4.736-.215,1.507,3.444,2.152.861-1.722,4.736,1.076,4.52,5.381-.215,6.027,6.243.431,4.736,9.687,1.938.431,5.6s7.965,7.534,8.611,7.749,6.674,1.292,6.674,1.292l9.256,8.18,3.013.431,4.736-5.382-.215-4.735s-4.521-5.6-4.736-6.674-.861-7.1-.861-7.1l-11.624-9.472-2.8.431-3.66-4.52-3.444-4.306-5.382-16.79L166.4,492.773l-5.812-6.242Z" transform="translate(-145.366 -484.508)" fill="#a6acb1" stroke="#fff" stroke-width="1"/>
            </g>
          </g>
        </g>
        <g id="Group_5169" data-name="Group 5169" transform="translate(102.275 246.971)" opacity="0.37">
          <g id="Group_5168" data-name="Group 5168">
            <g id="Group_5167" data-name="Group 5167" clip-path="url(#clip-path-4)">
              <path id="Path_2447" data-name="Path 2447" d="M235.142,475.392,207.472,440,185.3,449.6l-2.8,9.986,7.1,10.763,7.319-1.507,6.458,6.242,1.076,4.305,15.715,4.306,5.166,3.013,2.8,5.167-1.937,5.812.143.167,8.9-22.34Z" transform="translate(-182.196 -439.655)" fill="#a6acb1"/>
              <path id="Path_2448" data-name="Path 2448" d="M235.142,475.392,207.472,440,185.3,449.6l-2.8,9.986,7.1,10.763,7.319-1.507,6.458,6.242,1.076,4.305,15.715,4.306,5.166,3.013,2.8,5.167-1.937,5.812.143.167,8.9-22.34-.1-.126" transform="translate(-182.196 -439.655)" fill="#a6acb1" stroke="#fff" stroke-width="1"/>
            </g>
          </g>
        </g>
        <g id="Group_5172" data-name="Group 5172" transform="translate(98.843 215.174)" opacity="0.37">
          <g id="Group_5171" data-name="Group 5171">
            <g id="Group_5170" data-name="Group 5170" clip-path="url(#clip-path-5)">
              <path id="Path_2449" data-name="Path 2449" d="M285.522,457.2,303.6,446.177l3.014-13.562-1.292-6.028,3.444-4.09-2.583-2.368-1.723-4.736,5.166-4.521-3.23-20.194L279.27,383.75l-38.1-.431-6.243,11.409-35.087-10.117,4.09,12.916s-17.524-4.166-26.683-6.489l.205,1.538-1.076,6.673,4.306,7.1,11.409-6.674.431,9.041-13.777,6.674.431,6.242L182.832,424l-.218.777,22.175-9.6,27.67,35.392,23.132-.735,1.291,11.194,21.311.646Z" transform="translate(-176.08 -383.036)" fill="#a6acb1"/>
              <path id="Path_2450" data-name="Path 2450" d="M285.522,457.2,303.6,446.177l3.014-13.562-1.292-6.028,3.444-4.09-2.583-2.368-1.723-4.736,5.166-4.521-3.23-20.194L279.27,383.75l-38.1-.431-6.243,11.409-35.087-10.117,4.09,12.916s-17.524-4.166-26.683-6.489l.205,1.538-1.076,6.673,4.306,7.1,11.409-6.674.431,9.041-13.777,6.674.431,6.242L182.832,424l-.218.777,22.175-9.6,27.67,35.392,23.132-.735,1.291,11.194,21.311.646,7.328-4.471" transform="translate(-176.08 -383.036)" fill="#a6acb1" stroke="#fff" stroke-width="1"/>
            </g>
          </g>
        </g>
        <g id="Group_5175" data-name="Group 5175" opacity="0.37">
          <g id="Group_5174" data-name="Group 5174">
            <g id="Group_5173" data-name="Group 5173" clip-path="url(#clip-path-6)">
              <path id="Path_2451" data-name="Path 2451" d="M229.411,223.133l2.37.605,12.055,12.916,4.571-7.647-.912-3.762-2.153,1.938-8.611-7.319-.431-4.951h1.938l-4.951-7.319,8.181-159.081S182.27,61.644.586.724L1.878,11.918,8.336,27.632,9.2,37.965s6.674-3.659,7.319-3.659,6.458-.646,6.458-.646l3.229-2.8.431-3.014,4.52-.861.646-4.736,5.6.646,2.583-1.076L44.07,27.2l-1.292,6.674L56.34,58.63,65.6,95.871l-1.937,3.66,5.381,3.875-2.583,4.736,1.292,2.583-.215,3.444s6.889,5.6,7.75,6.028,11.409,12.7,11.409,12.7l5.812-.43-.215,2.367-4.306,6.028-.43,8.4-3.66,7.319-.215,6.242,1.292,1.507-10.979,12.7,5.812,7.965L77,191.018l6.243,7.319.646,6.458,1.076.861,6.458-8.4,6.673-2.153-.646,3.014,1.938,6.242-4.3-.215-2.153,4.736,3.66,4.736,2.583,1.722,1.087,8.148c9.159,2.323,26.683,6.49,26.683,6.49l-4.09-12.916,35.088,10.117,6.242-11.409,38.1.431Z" transform="translate(-0.257 -0.317)" fill="#a6acb1"/>
              <path id="Path_2452" data-name="Path 2452" d="M229.411,223.133l2.37.605,12.055,12.916,4.571-7.647-.912-3.762-2.153,1.938-8.611-7.319-.431-4.951h1.938l-4.951-7.319,8.181-159.081S56.1,18.378.586.724L1.878,11.918,8.336,27.632,9.2,37.965s6.674-3.659,7.319-3.659,6.458-.646,6.458-.646l3.229-2.8.431-3.014,4.52-.861.646-4.736,5.6.646,2.583-1.076L44.07,27.2l-1.292,6.674L56.34,58.63,65.6,95.871l-1.937,3.66,5.381,3.875-2.583,4.736,1.292,2.583-.215,3.444s6.889,5.6,7.75,6.028,11.409,12.7,11.409,12.7l5.812-.43-.215,2.367-4.306,6.028-.43,8.4-3.66,7.319-.215,6.242,1.292,1.507-10.979,12.7,5.812,7.965L77,191.018l6.243,7.319.646,6.458,1.076.861,6.458-8.4,6.673-2.153-.646,3.014,1.938,6.242-4.3-.215-2.153,4.736,3.66,4.736,2.583,1.722,1.087,8.148c9.159,2.323,26.683,6.49,26.683,6.49l-4.09-12.916,35.088,10.117,6.242-11.409,38.1.431,27.121,6.929" transform="translate(-0.257 -0.317)" fill="#a6acb1" stroke="#fff" stroke-width="1"/>
            </g>
          </g>
        </g>
        <g id="Group_5178" data-name="Group 5178" transform="translate(146.099 281.684)" opacity="0.997">
          <g id="Group_5177" data-name="Group 5177">
            <g id="Group_5176" data-name="Group 5176" clip-path="url(#clip-path-7)">
              <path id="Path_2453" data-name="Path 2453" d="M335.27,548.371l.215-9.9-7.965-5.381-1.076-12.916-4.081-11.144-7.328,4.471-21.311-.646-1.291-11.194-23.132.734.1.127-8.9,22.34,6.1,7.151,6.028-3.229,1.722,2.8-2.584,6.027,6.243,7.319s6.673-8.611,6.458-6.888,1.722,5.167,1.722,5.167-1.938,2.152-1.507,3.444a14.969,14.969,0,0,0,1.938,3.229l-1.076,3.659,6.674,2.368,12.7,1.292,34.157,1.134.286-4.579Z" transform="translate(-260.177 -501.37)" fill="#014f9a"/>
              <path id="Path_2454" data-name="Path 2454" d="M335.27,548.371l.215-9.9-7.965-5.381-1.076-12.916-4.081-11.144-7.328,4.471-21.311-.646-1.291-11.194-23.132.734.1.127-8.9,22.34,6.1,7.151,6.028-3.229,1.722,2.8-2.584,6.027,6.243,7.319s6.673-8.611,6.458-6.888,1.722,5.167,1.722,5.167-1.938,2.152-1.507,3.444a14.969,14.969,0,0,0,1.938,3.229l-1.076,3.659,6.674,2.368,12.7,1.292,34.157,1.134.286-4.579Z" transform="translate(-260.177 -501.37)" fill="#014f9a" stroke="#fff" stroke-width="1"/>
            </g>
          </g>
        </g>
        <g id="Group_5181" data-name="Group 5181" transform="translate(254.962 246.112)" opacity="0.37">
          <g id="Group_5180" data-name="Group 5180">
            <g id="Group_5179" data-name="Group 5179" clip-path="url(#clip-path-8)">
              <path id="Path_2455" data-name="Path 2455" d="M529.191,525.654s-6.027-4.306-6.242-4.951-2.583-3.229-2.583-4.09a35.154,35.154,0,0,0-1.507-4.951l.431-13.561-3.659-8.826-3.875-3.875-5.166-.431-8.611-11.84-3.014-2.152-4.735-1.292-2.583-11.409-6.027-2.8-.646,2.368-2.8-2.368-1.291-4.3-10.763-7.75v-4.455c-4.8,4.243-11.3,9.918-11.84,10.052-.861.215,1.722,42.837,1.722,42.837L466.765,517.9l-.735,13.777h27.213s36.81-1.076,37.025-1.722-1.076-4.306-1.076-4.306" transform="translate(-453.822 -438.344)" fill="#a6acb1"/>
              <path id="Path_2456" data-name="Path 2456" d="M529.191,525.654s-6.027-4.306-6.242-4.951-2.583-3.229-2.583-4.09a35.154,35.154,0,0,0-1.507-4.951l.431-13.561-3.659-8.826-3.875-3.875-5.166-.431-8.611-11.84-3.014-2.152-4.735-1.292-2.583-11.409-6.027-2.8-.646,2.368-2.8-2.368-1.291-4.3-10.763-7.75v-4.455c-4.8,4.243-11.3,9.918-11.84,10.052-.861.215,1.722,42.837,1.722,42.837L466.765,517.9l-.735,13.777h27.213s36.81-1.076,37.025-1.722S529.191,525.654,529.191,525.654Z" transform="translate(-453.822 -438.344)" fill="#a6acb1" stroke="#fff" stroke-width="1"/>
            </g>
          </g>
        </g>
        <g id="Group_5184" data-name="Group 5184" transform="translate(207.942 222.438)" opacity="0.37">
          <g id="Group_5183" data-name="Group 5183">
            <g id="Group_5182" data-name="Group 5182" clip-path="url(#clip-path-9)">
              <path id="Path_2457" data-name="Path 2457" d="M419.415,473.221s-2.583-42.623-1.722-42.838c.538-.134,7.036-5.809,11.84-10.052v-.066l-8.826-1.937-1.292-9.9-8.18-2.8-.81-3.342-4.571,7.647L393.8,397.017l-2.37-.605,3.231,20.194-5.167,4.52,1.722,4.736,2.583,2.368-3.444,4.09,1.292,6.028-3.014,13.561-18.073,11.028,4.081,11.144L375.716,487l7.965,5.381-.216,9.9,4.09,5.381-.286,4.579,24.181.8h17.993l.735-13.777Z" transform="translate(-370.216 -396.034)" fill="#a6acb1"/>
              <path id="Path_2458" data-name="Path 2458" d="M419.415,473.221s-2.583-42.623-1.722-42.838c.538-.134,7.036-5.809,11.84-10.052v-.066l-8.826-1.937-1.292-9.9-8.18-2.8-.81-3.342-4.571,7.647L393.8,397.017l-2.37-.605,3.231,20.194-5.167,4.52,1.722,4.736,2.583,2.368-3.444,4.09,1.292,6.028-3.014,13.561-18.073,11.028,4.081,11.144L375.716,487l7.965,5.381-.216,9.9,4.09,5.381-.286,4.579,24.181.8h17.993l.735-13.777Z" transform="translate(-370.216 -396.034)" fill="#a6acb1" stroke="#fff" stroke-width="1"/>
            </g>
          </g>
        </g>
        <g id="Group_5187" data-name="Group 5187" transform="translate(23.656 170.308)" opacity="0.37">
          <g id="Group_5186" data-name="Group 5186">
            <g id="Group_5185" data-name="Group 5185" clip-path="url(#clip-path-10)">
              <path id="Path_2459" data-name="Path 2459" d="M50.016,303.8c.379.569,4.744,3.985,4.744,3.985S52.483,310.817,54,311.2a25.844,25.844,0,0,0,5.123.19l.759,3.795,2.846-4.175,7.78,1.518-3.226,4.744-6.642,7.78-2.277,8.919,5.123.19.569,5.123L59.5,342.126l.189,6.452,2.277,3.795-.569,3.036,6.452,8.729s-4.934,3.226-5.5,2.277-4.933-10.626-4.933-10.626-5.123-6.642-4.933-7.21-.949-4.555-.949-4.555-3.036-1.138-2.846-2.087,1.518-7.211,1.518-7.211-6.452,2.088-5.883,1.518a8.521,8.521,0,0,0,1.328-3.416c0-.569-3.415-9.108-3.036-9.867s3.226-7.021,3.226-7.021l-1.708-5.882Z" transform="translate(-42.306 -303.346)" fill="#a6acb1"/>
              <path id="Path_2460" data-name="Path 2460" d="M50.016,303.8c.379.569,4.744,3.985,4.744,3.985S52.483,310.817,54,311.2a25.844,25.844,0,0,0,5.123.19l.759,3.795,2.846-4.175,7.78,1.518-3.226,4.744-6.642,7.78-2.277,8.919,5.123.19.569,5.123L59.5,342.126l.189,6.452,2.277,3.795-.569,3.036,6.452,8.729s-4.934,3.226-5.5,2.277-4.933-10.626-4.933-10.626-5.123-6.642-4.933-7.21-.949-4.555-.949-4.555-3.036-1.138-2.846-2.087,1.518-7.211,1.518-7.211-6.452,2.088-5.883,1.518a8.521,8.521,0,0,0,1.328-3.416c0-.569-3.415-9.108-3.036-9.867s3.226-7.021,3.226-7.021l-1.708-5.882Z" transform="translate(-42.306 -303.346)" fill="#a6acb1" stroke="#fff" stroke-width="1"/>
            </g>
          </g>
        </g>
        <g id="Group_5190" data-name="Group 5190" transform="translate(70.912 212.406)" opacity="0.37">
          <g id="Group_5189" data-name="Group 5189">
            <g id="Group_5188" data-name="Group 5188" clip-path="url(#clip-path-11)">
              <path id="Path_2461" data-name="Path 2461" d="M131.443,378.741l7.78,8.919-1.9,3.8-.379,3.605-3.415,3.036s-6.262-3.8-6.072-5.882a20.2,20.2,0,0,0-.759-5.5l2.277-3.8Z" transform="translate(-126.396 -378.263)" fill="#a6acb1"/>
              <path id="Path_2462" data-name="Path 2462" d="M131.443,378.741l7.78,8.919-1.9,3.8-.379,3.605-3.415,3.036s-6.262-3.8-6.072-5.882a20.2,20.2,0,0,0-.759-5.5l2.277-3.8Z" transform="translate(-126.396 -378.263)" fill="#a6acb1" stroke="#fff" stroke-width="1"/>
            </g>
          </g>
        </g>
      </g>
    </g>
  </g>
</svg>
